<mxfile host="65bd71144e">
    <diagram id="CVIsDPDey6TPFcnlQlj8" name="Page-1">
        <mxGraphModel dx="919" dy="1400" grid="1" gridSize="10" guides="1" tooltips="1" connect="1" arrows="1" fold="1" page="1" pageScale="1" pageWidth="850" pageHeight="1100" math="0" shadow="0">
            <root>
                <mxCell id="0"/>
                <mxCell id="1" parent="0"/>
                <mxCell id="2" value="" style="shape=image;imageAspect=0;aspect=fixed;verticalLabelPosition=bottom;verticalAlign=top;image=data:image/gif,R0lGODlhgQBBAIcAAAAAAP///////////////////////8DAwP///////y8vvS8vvC8vui4uui4uuS4uuC4uty0ttCwssCsrqykppikppSgooigooSgooCcnnicnnScnmiYmlyYmliUlkiQkkiQkkSQkjiMjjiMjjSEhgx4edh0ddhwcchwcbxsbbRsbaxoaahoaaBoaZxkZZBYWWhYWWRUVVhUVVRQUURQUUBQUTxQUThMTTRMTTBMTSxMTShISRxAQPg8PPg8PPQ0NNA0NMgAAZv///////////////////////////////////////////////////////////////////////////////////////////////////////////////////////////////////////////////////////////////////////////////////////////////////////////////////////////////////////////////////////////////////////////////////////////////////////////////////////////////////////////////////////////////////////////////////////////////////////////////////////////////////////////////////////////////////////////////////////////////////////////////////////////////////////////////////////////////////////////////////////////////////////////////////////////////////////////////////////////////////////////////////////////////////////////////////////////////////////////////////////////////////////////////////////yH/C05FVFNDQVBFMi4wAwHnAwAh/g6CdIJygmCUxYK9gtyCsgAh+QQIMgAAACwAAAAAgQBBAAAI/gD/CRxIsKDBgwgTKlzIsKHDhwoPSPwn8QDFiRUvWszIEaPHjR81iuwIsuTIkCRPmkzJMqTKly1XopwpsyZMmjdtxnyZs+fOnziB6gxKdKhJiEiTKl3KVKlQn0WhGpVK9WnKqlGtZt06VetUrF25gh3rlWrTs2jTqo0otuxTAHD/wQUgN+5csm2j4g3Lty7du4Djus37dXDft3YT/xVMeC/PtZAjS35o2HHGu5cV+91cufNEy40z0xW9OfDo0Kgtgj4cEvNE06UZs579eLLt27Y903ZtEjZp3qvN6h4L/Lfs2KdpVw5etvhrzcaTM9eLu7p1tMObH4ft3GL36TbB/lMFzv046exixSOWXl76+dRjr8ufDxH91PbI8+O331M9TvwAauYbfE/5Z1OAiyWoH3QEUkffgxAWxN9OCL5U4YQ4GWihgAz2xqGCGIYX4oYKDuhhiR1qmFGELEY4YkoXtmbec+41KKKNPcV4IokquvSijCiCCCSPPx7V4pHyFSnSdzrmp+SKT9LI435SfjdijzvC+CFnVc6onINIhpkbjutNuaWVZPqY5n1eLhgkljxFmeWQTcop5p1jfqmnm0SuKZyfZZq4ZJt2wknhllrWuGdZeDa6lp3R8UnloulB2uWbdQKqJqV9VZgpp/05KmpTloJaqkiGampqpaqmuupXJKPGmtSptOLo6q1K4tpqobL26lCtr96qa7CnDmssf74mq1BAAAAh+QQIMgAAACwAAAAAgQBBAAcI/gD/CRxIsKDBgwgTKlzIsKHDhwoPSPwn8QDFiRUvWszIEaPHjR81iuwIsuTIkCRPmkzJMqTKly1XopwpsyZMmjdtxnyZs+fOnziB6gxKdKhJiEiTKl3KVKlQn0WhGpVK9WnKqlGtZt06VetUrF25gh3rlWrTs2jTqo0otqzbtnDD2iQbl65cu2Pxvr27V2/UtYADC4bYtzBOAIj/IQbgl+9fw46nLlacGHJjkZctZ5w8WXPdq4NDixbtOTJlxpwTp0Zd+bNri5nrrj5Ne3bpvLfLzt6turVpy6ODC0+bO2rnibxZM97sO/bX4pKbJ6fNfPlr3Nd1S++tnDry5tB5/g4fT/5h+JTHTU5PL5L9+YnOe7r/3t12yPm/H2c3Dp5+be4v4RdfRuUVaOBB71lkn4IArtcggAkKFOGC/9X3oIXdRTjgfRD65yCGFW541IEkGjjhhSGihyKF4YnY3oodqgdjhvvNdSKILHo4o4sElujjeDcGGOOLOA7ZYpAq0ihjkUq6yKN/SXq3ZIg55jfXj1iOFmF1QjLZ5ZNHbQklh15GKSZsZ0pJJJX9MWidlWZlKadgaXL5oZoCalinjl6yl2eNPO3pJpsgcinonIgCluadjBoJ6FWL7thok3o+epikmFJq6YiJdsrUoaACCuaoh5K6qalXeqoqUqHC2aqEH6e+WqmrsdYK56q4mmcrqrzyKquov9IqbJy5FotQQAAAOw==;" parent="1" vertex="1">
                    <mxGeometry x="54.5" y="410" width="129" height="65" as="geometry"/>
                </mxCell>
                <mxCell id="3" value="egg" style="swimlane;childLayout=stackLayout;horizontal=1;startSize=30;horizontalStack=0;rounded=1;fontSize=14;fontStyle=0;strokeWidth=2;resizeParent=0;resizeLast=1;shadow=0;dashed=0;align=center;" parent="1" vertex="1">
                    <mxGeometry x="39" y="280" width="160" height="120" as="geometry"/>
                </mxCell>
                <mxCell id="4" value="+ appetite = 0&#10;+ care = 30&#10;+ thirst = 0&#10;+ health = 1" style="align=left;strokeColor=none;fillColor=none;spacingLeft=4;fontSize=12;verticalAlign=top;resizable=0;rotatable=0;part=1;" parent="3" vertex="1">
                    <mxGeometry y="30" width="160" height="90" as="geometry"/>
                </mxCell>
                <mxCell id="6" value="baby" style="swimlane;childLayout=stackLayout;horizontal=1;startSize=30;horizontalStack=0;rounded=1;fontSize=14;fontStyle=0;strokeWidth=2;resizeParent=0;resizeLast=1;shadow=0;dashed=0;align=center;" parent="1" vertex="1">
                    <mxGeometry x="265" y="280" width="160" height="120" as="geometry"/>
                </mxCell>
                <mxCell id="7" value="+ appetite = 50&#10;+ care = 65&#10;+ thirst = 60&#10;+ health = 3" style="align=left;strokeColor=none;fillColor=none;spacingLeft=4;fontSize=12;verticalAlign=top;resizable=0;rotatable=0;part=1;" parent="6" vertex="1">
                    <mxGeometry y="30" width="160" height="90" as="geometry"/>
                </mxCell>
                <mxCell id="8" value="" style="shape=image;verticalLabelPosition=bottom;labelBackgroundColor=#ffffff;verticalAlign=top;aspect=fixed;imageAspect=0;image=data:image/gif,R0lGODlhhQBFAPEBAP///8DAwAAAAAAAACH/C05FVFNDQVBFMi4wAwH4AAAh/h1HaWZCdWlsZGVyIDAuNSBieSBZdmVzIFBpZ3VldAAh+QQEMgD/ACwAAAAAhQBFAAAC/YyPqcvtD6OcEtiLs968ex984kiWRommaai27nYCh3zOdo2Ht57T/O8L7oS9obGIBM5olqMySXxKo1RnFWrNxrbY7lT79V7D5HGQ+Uqr12wTC2yGy8Xzcr35puvt+3j/PoQG+EfIZ+h3iNa2yNjYwnU4GFmIWGklSClpmclZhjkJuhmqeafoeIqaioc32in6Sgr1Cesa23q7Sotrq9u7FKMaLLwG6Vt7vCs2y8uMbDy17NycTH0GPIydTVI8/ezd/ZtXDS7tHD1ejo5rqt3ujsGd/i2veT6vft9rT47PX8n+LmC2eP3oGfREMJ+/hcoSMiwIkYoPFgIrqkLASuHTQY2JHG58yNGauJAgS/YAaDGlI48RTUbc9zHmS5YkZYZEqTInG5oua+KD2dKmP6A+iw69pjMpsZE9m8oj6jRoNahCq65DqjTrI6ZWjT7l2TXqK6pSvU7FqjXtNq7VBLgF4FYA3LdxzeYj+6quXrpvxfLCe2evXMF2u+FUi5gD2EN1ZxB23DcsJcBiGp94fDly2b+LK1kOgRm05sKT0SY+naGzFcKs+Q52TToU5SmtX9uee/tz7H+qodTGDfy33z6H01JEXVzrcdQUmjt/Dj269AAFAAAh+QQEMgD/ACwfADcAJwALAAACRoxhgZcg7+ATkbZ0mVaz+p5hixJ+0mltwMq27gvHbNmAR2dzEKbW+40aeXgkVc6U0iVlzKashAtGKdMKVIqlZq/aLvI7KQAAIfkEBDIA/wAsJwAnACMAGwAAAnuMYYGXIO/gE5GmhtmZtfOrKZnClRLUAOrKtu7rjguJbqdlC3Lz5R3/2PmAlB6NAksqX8Kj5/bUhWbRqkkqml6t0KV32azKruHt+FaGnouQr5s5JXLZ9DR9XrHjt+/+Kiy3ZQToI1hzQbWGl+LXR5gFmRjyKBk5QolpUAAAIfkEBDIA/wAsMwAnAB8AFwAAAmiMYYEnDS2egyupVGWk3NmDYd02eQeApurKtmjImMqYQfAsa7rY3HtMivAirqIx5aMpS4IkU7dsgoDQJ+2IbTmDmaFm+7tQbVMcF0zJqpHlKjeKtsqlYrP7nl6rfd5ohT8299fWJ5hQAAAh+QQEMgD/ACw7ACcAIwAbAAACdIxhgZerDVmSj7ob68Q2cw2E4kiWpuml3bqpoOvAMnvW9jm/9LT3euv7CG/EW07oOip5yKCnCEXRBFQAVWCtXj+wrVdbzXTB2C/2GU2HPNuG+dJmusOH9/wsr9MVdj1eoaZ2l1VGRnhoNvi2aHil2AhZKFkAACH5BAQyAP8ALD8ANwAnAAsAAAJGjGGBlyDv4BORtnSZVrP6nmGLEn7SaW3AyrbuC8ds2YBHZ3MQptb7jRp5eCRVzpTSJWXMpqyEC0Yp0wpUiqVmr9ou8jspAAAh+QQEMgD/ACw/ADcAJwALAAACR4xhAcLbLFxM6NB0D5R8Z/V93UNO1gkewMq27gvHK+VpZaXU6U43faTjiDA2U+72wykpsqYztonepEAkijqqarNLA/Y7te4KACH5BAQyAP8ALDsAJwAjABsAAAJ+jCGJmrJuAojzRNqezrTbK2Uio3iSCaTqyrauyx0jJJffacQhSe99hQvoNjYf8Eh5KZcwHtExQ96iVCcqUoU6hyimlxlFhW/AcfApDZqP6+733cqiudOtXfszyeXXA/yvgnGn0RckiIdWCHQ4V5R2BAioOEkGckZ5eYP5WFgAACH5BAQyAP8ALDMAJwAfABcAAAJqjCGJmrJuAogznvYyptxKDDJKJ1HAiabqyp7bJUKwXBrvF1c4rd/aONMJW8QiKuRA/ngRpTNHeiZzPpPxulKSlsIm9EDRgm3f2i6zxaqP1PaUSX5zxWbpHGhe68Nu9NjMJ0fX5XEntxVRAAAh+QQEMgD/ACwnACcAIwAbAAACdYxhgZerDVmSj7ob68Q2cw2E4kiWpuml3bqpoOvAMnvW9jm/9LT3euv7CG/EW07oOip5yKCnCEVZBFQAVWCtXptAxfarrSanYSwYC4uqRY1tu3xxU97owzkuntvzXjh9uKZ2Nwh3l0BoVqhYF4CYlQj5KJlQAAA7;" parent="1" vertex="1">
                    <mxGeometry x="278.5" y="410" width="133" height="69" as="geometry"/>
                </mxCell>
                <mxCell id="9" value="toddler" style="swimlane;childLayout=stackLayout;horizontal=1;startSize=30;horizontalStack=0;rounded=1;fontSize=14;fontStyle=0;strokeWidth=2;resizeParent=0;resizeLast=1;shadow=0;dashed=0;align=center;" parent="1" vertex="1">
                    <mxGeometry x="480" y="280" width="160" height="120" as="geometry"/>
                </mxCell>
                <mxCell id="10" value="+ appetite = 33&#10;+ care = 40&#10;+ thirst = 45&#10;+ health = 5" style="align=left;strokeColor=none;fillColor=none;spacingLeft=4;fontSize=12;verticalAlign=top;resizable=0;rotatable=0;part=1;" parent="9" vertex="1">
                    <mxGeometry y="30" width="160" height="90" as="geometry"/>
                </mxCell>
                <mxCell id="11" value="" style="shape=image;verticalLabelPosition=bottom;labelBackgroundColor=#ffffff;verticalAlign=top;aspect=fixed;imageAspect=0;image=data:image/gif,R0lGODlhhQBFAPEBAAAAAJmZmbu7u////yH/C05FVFNDQVBFMi4wAwH4AAAh/h1HaWZCdWlsZGVyIDAuNSBieSBZdmVzIFBpZ3VldAAh+QQJMgABACwAAAAAhQBFAAAC/YyPqcvtD6OcctiLs968ey984kiWRommaai27nYOwizTc3jXuM3vvg7MCXtB4vB3LCKNTFYsCW0qp9GllSqtYq+5wTML5oa3ZK15rPUGXuy2+436iudltJ1+xkvVlnxdD/gn6OfHN3h3GEiIuOi0BgcZKekil2jZeMmo6di3manoiYlpKBpqCooqaDjJ2up6UVl6BUA7QAtgW3ubi7sr+2lJejq1W6x73Fv7u4wonKplnCzNS8383Bzzqr3tFjvs6wl+PU7mDJwjbplufU5kzr6OGE/O3pXNjZ9P4p06X03kz189T+/CKQN48EfAhO3o0SjYjyE6iTQW4hrokJP+vo0cYTyCR5GcwGG/IKoLCWxkxmD8Tl4kWRElRpaPOtrk2BKTSmo7d84slFOezJjToA1dOSpooJ7IyPiEGUjNw5tUX81QKujp0qMNaXYSyVVnWKiqsPrRmnUs0jGrqrp1ZXYM2rNquwL9+K0u3ZdryZkUy7frXLJp7r09HCnu1sCA7RJ+qDgtY6GT+wL7a7CyZMeW2yL+3A2v5Wg8mw62fPcr59LTSJ9enRo2Uda0X/9kaxi07haRb6N+fAXz7+Gyg/cGXjy5vZq7m6c4Ttx3cuHKkUtPQv269e0/PDv//gF69ehks3MfP128dvIrvYN/r0H9+fVdzbNHP9M+/vkY5XODZwGfBf59B2CAFByIYIIKLshgAAUAACH5BAkyAAEALAAAAACFAEUAAAL9jI+py+0Po5xy2Iuz3rx7L3ziSJZGiaZpqLbudg7CLNNzeNe4ze++DswJe0Hi8HcsIo1MViwJbSqn0aWVKq1ir7nBMwvmhrdkrXms9QZe7Lb7jfqK52W0nX7GS9WWfF0P+Cfo58c3eHcYSIi46LQGBxkp6SKXaNl4yajp2LeZqeiJiWkoGmoKiipoOMna6npRWRoIQDtAC2Bbe5uLuyv7SUZ6KrhbrHvcW/u7vBc7rGWcLM1LzZyaFvOqve3mfC3l6xn+TQ4kXA6tLK6OPnwOnI77Ow7vns2Nn0/iXR9CTx8PCMBniN5ZE8iu2ph/CQ+O4neQobyFCQe2C7RKn/7GjRkgDrOIcFpAh54MEvTXkEg0MiBJ0jF5UeGVlSNPWsrIMac+j+Va0qAJLmXMQjyB+UQpMujEoQWLzhMaUuaUo/2CGaChM6u2GU7XLa1K1eUUmGChPv0qluijtD/Neq36C6fWuay69nRLJ6xNbGv3qsTLEjDbK2TF6p0p2C/he3QbR7JbdtpKoEzLFVZMbTIyqYNvQo64WXPSysDkOj7N5jPmzqyxqibdGrbrvrJrwy3JGLXuFq9v245toTfw4fZo+z5OHGPu3cz3GU+OfHWz59J/Vx8r/Dr0uMube++Q3br40uGjjz94+bx2zKa/u+9IXb384+nN24def/v6mBbtm7N4H9wjAMowYIAUHIhgggouuGABACH5BAkyAAEALAAAAACFAEUAAAL9jI+py+0Po5xy2Iuz3rx7L3ziSJZGiaZpqLbudg7CLNNzeNe4ze++DswJe0Hi8HcsIo1MViwJbSqn0aWVKq1ir7nBMwvmhrdkrXms9QZe7Lb7jfqK52W0nX7GS9WWfF0P+Cfo58c3eHcYSIi46LQGBxkp6SKXaNl4yajp2LeZqeiJiWkoGmoKiipoOMna6npRWZqaA1A7UAtwa4urm8sr+wlEehrMa7yL7GsLzEwzPEt8rDzdW90Mzfmqvf0WS+z36xmObfkcjDlumX6t6k0Oviwe/464yn2PT+J+LpW+3j/P2rcx5thp8RfwYMB/9K4UHHgFYS54E2kw5OcwRv6+jRw17DNI5CKtZGREQhT28eTIihFJKmSJkczDhlNMhpBWMqFKIvY6+syXkubKnNRexiwU9KhFnT9wGgVJZ6bSpkyBOAUIE+oUNc5+en01I6lWm+qqau0i9iRZdGZ3ZjuLdapAoXs0fr3rKi3dm23prHVrQa/cvy2zAk4iFS5Vw4EIy+2JNzIkwYqr4bzcVy5iyoAxU7u6t92jyhQtkwStmaBdyazdcA5N+rCz16lhy357u7ZupI9a+2ZDO7bt0IlzC989e7Tx5cO3rv4N3YTy5ser8wzOHDm54tSzV4YcPbwH7N3LB+OuPf138uq913suPr7H6e3NH0dv3f5J/Bru9W+HHx4L8gXW24ACDkhBggouyGCDDgZQAAAh+QQJMgABACwAAAAAhQBFAAAC/YyPqcvtD6OcctiLs968ey984kiWRommaai27nYOwizTc3jXuM3vvg7MCXtB4vB3LCKNTFYsCW0qp9GllSqtYq+5wTML5oa3ZK15rPUGXuy2+436iudltJ1+xkvVlnxdD/gn6OfHN3h3GEiIuOi0BgcZKekil2jZeMmo6di3manoiYlpKBpqCooqaDjJ2up6UVmaqgVQO1ALcGuLq5vLK2tJevo5xWu8i+xrCzwaO8xMc6w83VsNHbj6qr3d5jw7/OsZ/k0nTE6cM26pfj1ljg6+LC5/nhbDjZ9v8tgOzB5ND8i/EAPhcTJIrKDCgOkYPqPxrh+ihbmSUESYJJv+vo0cMXjDOKagP4f1IH6USEfkvIoPf0RsKUhlKpnENHa8me8kTFokBSYjQxPYy5KBaEoD2rPdUJApkwKkxpMlUSBqIOK8+mqGzqlRmVrbaZIf2KJOZ5atudWrxbOYgnqyiTXupLQoi7GdeDfV0rpd67rVS3esT6kI/wa7JzexpMBcpRheS5hv2E6NzUbGe7myBcZqiTz2nBftI8Wk4XCWfOWo6p+o3Z0WDLnaaqiwieyt3ZTa7K+aMyIuDZyS2N64O2N7TTy58c3Dl7d+PgZu8OkjkDsvXve2cujbJ1/vDt71aOrkqzfn/j19F+vo2w/Trh67YOnl63s8Lz88evgf7vXD5J9ffFPRNx0L9jF34AUGHkhBgw4+CGGEEgZQAAAh+QQJMgABACwAAAAAhQBFAAAC/YyPqcvtD6OcctiLs968ey984kiWRommaai27nYOwizTc3jXuM3vvg7MCXtB4vB3LCKNTFYsCW0qp9GllSqtYq+5wTML5oa3ZK15rPUGXuy2+436iudltJ1+xkvVlnxdD/gn6OfHN3h3GEiIuOi0BgcZKekil2jZeMmo6di3manoiYlpKBpqCooqaDjJ2up6UVmaiglQO1ALcGuLq5vLK0tGevopyGu8i+xrC5wWO8wsdaw83VsNfbX6qr3d5jz7TPTrKf79I1xOrEVuuX5t4Z0OHtKOSI+ezZ2vPwLvDmxvLdwygbncnYuHLgfAhQN/ABzVTx67hkAYFiSI8N3+o30cO2qImHAcRXcPER30N6xkKpWqQGakNTJlzFT4PNrU5xJlIJbSyLAslFOiH57JfM60dFKoyItXeqo7CjEAjZtUtc0IGnIn1KUZk2Yl9rPe1kBeX3LVGfBejKpsX2E1SyesVqbEyqKFSZfk2JaP7srM+7fr2raEJb31G3fvU8Bq+yr9KndKZKCOv6KdjBFtzcKc2Rx+XKxoT6eg7YL+Jzo1NcQaO1kGPVp1WritO9vuVpk2690mP7/+rXuP7+DAeXO6jbzFcOPEaZsufjo6tuXSm2senDy7COrQuzvnbr26QfDMy3varD19BvLi29Nk7938+9zyw8efij09C/UQtfnL8K8RBQIOSGCBBhpYAAAh+QQJMgABACwAAAAAhQBFAAAC/YyPqcvtD6OcctiLs968ey984kiWRommaai27nYOwizTc3jXuM3vvg7MCXtB4vB3LCKNTFYsCW0qp9GllSqtYq+5wTML5oa3ZK15rPUGXuy2+436iudltJ1+xkvVlnxdD/gn6OfHN3h3GEiIuOi0BgcZKekil2jZeMmo6di3manoiYlpKBpqCooqaDjJ2up6UVmaqgVQO1ALcGuLq5vLK2tJevo5xWu8i+xrCzwaO8xMc6w83VsNHbj6qr3d5jw7/OsZ/k0nTE6cM26pfj1ljg6+LC5/nhbDjZ9v8tgOrM4u5R89eD/e9UMkMJefhATdeWu4cCDAKwwPFrynL6P+xgwPLZKZCETax4EeDT5DSJKISFop69Ew6TIQyHTJRio8efHRxp0aO+K0CXRmtJYNYUIcIzTEyoBE2xn1yPImxZpRj+Z8yTPrqxk+YwL1mJTY059VwTYdNtZr2Z9hgWXTCrdVV6tf50ml22UuVKZ3MbVFq5csX2J/z72NixhSYLVIa4pcyvhKWryNqT2mKljyYspTLTvGHNmhzsSk32zeGxq16E6pM3MOdtq16tkvMZa+TYmf7N2tscXu/Vr1ZNrAiVuwjTv5PtbBeTfXrLu4c+NJhk+/Hvqw8u0efj//7tQ7dexixZMfn0o79/Uco4M/79y69Pl05b+nH340exYT7I/rX89ffxQMSGCBBh6IYAAFAAAh+QQJMgABACwAAAAAhQBFAAAC/YyPqcvtD6OcctiLs968ey984kiWRommaai27nYOwizTc3jXuM3vvg7MCXtB4vB3LCKNTFYsCW0qp9GllSqtYq+5wTML5oa3ZK15rPUGXuy2+436iudltJ1+xkvVlnxdD/gn6OfHN3h3GEiIuOi0BgcZKekil2jZeMmo6di3manoiYlpKBpqCooqaDjJ2up6UVmamgNQO1ALcGuLq5vLK/sJRHoazGu8i+xrC8xMMzxLfKw83VvdDM35qr39Fkvs9+sZjm35HIw5bpl+repNDr4sHv+OuMp9j0/ifi6Vvt4/z9q3MebYafEX8GDAf/SuFBx4BWEueBNpMOTnMEb+vo0cNewzSOQirWRkREIU9vHkyIoRSSpkiZHMw4ZTTIaQVjKhSiL2OvrMl5LmypzUXsYsFPSoRZ0/cBoFSWem0qZMgTgFCBPqFDXOfnp9NSOpVpvqqmrtIvYkWXRmd2Y7i3WqQKF7NH696yot3Ztt6ax1a0Gv3L8tswJOIhUuVcOBCMvtiTcyJMGKq+G83FcuYsqAMVO7urfdo8oULZMErZmgXcms3XAOTfqws9epYct+e7u2bqSPWvtmQzu27dCJcwvfPXu08eXDt67+Dd2E8ubHq/MMzhw5ueLUs1eGHD28B+zdywfjrj39d/Lqvdd7Lj6+x+ntzR9Hb93+Sfwa7vVvhx8eC/IF1tuAAg5IQYIKLshggw4GUAAAIfkECTIAAQAsAAAAAIUARQAAAv2Mj6nL7Q+jnHLYi7PevHsvfOJIlkaJpmmotu52DsIs03N417jN774OzAl7QeLwdywijUxWLAltKqfRpZUqrWKvucEzC+aGt2Steaz1Bl7stvuN+ornZbSdfsZL1ZZ8XQ/4J+jnxzd4dxhIiLjotAYHGSnpIpdo2XjJqOnYt5mp6ImJaSgaagqKKmg4ydrqelFZGghAO0ALYFt7m4u7K/tJRnoquFuse9xb+7u8FzusZZwszUvNnJoW86q97eZ8LeXrGf5NDiRcDq0sro4+fA6cjvs7Du+ezY2fT+JdH0Kf849GQH/s+ll6Zw3IwGpEFi5MWIhfQocFAVYUeLFd/qBV+jp6zCBx2MN18p55QmiSYEmNDFmOClluZCqZBrE9+ojTI0xgNKORoQmx2aOgP3oi+5mx5hiULI1Oi6c0lRoaOatqm7FzXlKtK6OqykrSK9CUU5gaHDtrK1mbVttuAztTbdyuRL8OXYuRrki5XpOYncgXE9q+VO+5PRwJLs/A4Bi7FNrpcVHHUwbX9auY62K9ku0i/pz4buckPksfvWxPNOHJ00w/xVvuL2xqrmlTRn2FI+jdlFTjXg08ou/Zv4svzUw8+ejCN3k7T4F8uXTgsqcbt848cnDl23Mbfg7+Q/Tu5BNWL8/99/nr6DvrDg8fxnDs9MmvT4/f/Xj2GPxTx8fAwn/vhRfgfxQciGCCCi7IYAAFAAA7;" parent="1" vertex="1">
                    <mxGeometry x="493.5" y="410" width="133" height="69" as="geometry"/>
                </mxCell>
                <mxCell id="12" value="teen_alien" style="swimlane;childLayout=stackLayout;horizontal=1;startSize=30;horizontalStack=0;rounded=1;fontSize=14;fontStyle=0;strokeWidth=2;resizeParent=0;resizeLast=1;shadow=0;dashed=0;align=center;" parent="1" vertex="1">
                    <mxGeometry x="960" y="278.5" width="160" height="120" as="geometry"/>
                </mxCell>
                <mxCell id="13" value="+ appetite = 28&#10;+ care = 40&#10;+ thirst = 3&#10;+ health = 12" style="align=left;strokeColor=none;fillColor=none;spacingLeft=4;fontSize=12;verticalAlign=top;resizable=0;rotatable=0;part=1;" parent="12" vertex="1">
                    <mxGeometry y="30" width="160" height="90" as="geometry"/>
                </mxCell>
                <mxCell id="14" value="teen_plant" style="swimlane;childLayout=stackLayout;horizontal=1;startSize=30;horizontalStack=0;rounded=1;fontSize=14;fontStyle=0;strokeWidth=2;resizeParent=0;resizeLast=1;shadow=0;dashed=0;align=center;" parent="1" vertex="1">
                    <mxGeometry x="960" y="441.5" width="160" height="120" as="geometry"/>
                </mxCell>
                <mxCell id="15" value="+ appetite = 3&#10;+ care = 40&#10;+ thirst = 45&#10;+ health = 12" style="align=left;strokeColor=none;fillColor=none;spacingLeft=4;fontSize=12;verticalAlign=top;resizable=0;rotatable=0;part=1;" parent="14" vertex="1">
                    <mxGeometry y="30" width="160" height="90" as="geometry"/>
                </mxCell>
                <mxCell id="16" value="" style="shape=image;verticalLabelPosition=bottom;labelBackgroundColor=#ffffff;verticalAlign=top;aspect=fixed;imageAspect=0;image=data:image/gif,R0lGODlhgQBBAPP/AP///8DAwAAAAAAAAAAAAAAAAAAAAAAAAAAAAAAAAAAAAAAAAAAAAAAAAAAAAAAAACH/C05FVFNDQVBFMi4wAwH4fwAh+QQIMgAAACwAAAAAgQBBAIP////AwMAAAAAAAAAAAAAAAAAAAAAAAAAAAAAAAAAAAAAAAAAAAAAAAAAAAAAAAAAE/xDISau9OOvNu/9aIAJiQI7laaYs6q6vKrdwPcf0bed8rP+9HW4oLAKJR2Pwl2wun0ioMkqd2kDYrHbL1UqdVZlgDLaWz190+DsWqM3fOPJNz7Xr6zzc1+37/4AZcntGd4NNd4Z6dHiEYmSHS4mQi4eNdIqOkmSZl0uBoKGiIJGVI50pk26qj252lJphnouop5y3q7AAtSa8sya/Z76srKm6xq6mZqPMzc6lsTbFYb6vydFM0JfTZtUx3tjBh9yIx0jgjM7q637a2ujk8ObYKeK08627uvLXwfaO/PT1C+iOD7uDCD0UBIjPmsB8m/otlDCRTcNvuCCeuxiuIjWO+e06EVTGJKHJkxY8dtuX0aJEjC/pjfhXbmDLjzE1yryismZIkMh89kRJFGXPiD9zBkV6dGbTQixzKbU1tRdQkjSZUn2oFWrVS0XDInwqFKewqx1JvkPL1SzZrG7jrvyqTaxddWQdBiXGFt1EuF6TPvS7Na9TtfdsSh3cl23du5BFGbZKlyThnTIA66R52d/ktpj1InYUuXSgz52Rph6dGbXjjYs/59C8lDU52TNN6+6Cm/LZ2Kz/9gbtc3XoOcM73w6OdbfzLMP3ZjRO20f0rXwrH0+7/Tdj4N2HPh+vkHl485qrn18P9jp79+Tjb4gAIfkECDIAAAAsAAAAAIEAQQCD////wMDAAAAAAAAAAAAAAAAAAAAAAAAAAAAAAAAAAAAAAAAAAAAAAAAAAAAAAAAABP8QyEmrvTjrzbv/WiACYkCO5WmmLOquryq3cD3H9G3nfKz/vR1uKCwCiUdj8JdsLp9IqDJKndpA2Kx2y9VKnVWwVSYoi89fdPjLRpYF6nG6LV/bje+4Ptft+/+AIXd6eXl0TYaDhyl7g4Vmi26QipQmjXUmj3CReJOYl4GhoqNYnIieZKiaAKs5iZ+moEuvqZsjq60xtKZzlae2NrS4Zru3qLxhpMrLzMjBx5LAv6zQsL6yutU/xZ1w3Nhj4LVn367E2s5NzOvsf+kp5cbSud3ih/by0/Dn0ub9vvfe5Zulip8+gNfaKVz4QWAmdAPzxXv2z9onfA8rjtvnDSJFjOrtHFLTyHHcxI0ILzJcydKCyJMnSwrzCBIkTJoyC5JMyeQlzZgSdYJc0rJoS5ElCe7MOBKlRT1DI9ZT2jQpz15PqWqNVlVq1CtGwypE6nXrGKBZkXztehZn2avJyDL9gpbtWj5i8zaDOzXMsI7z3Ka9ItfptL+GCzNS/LYeYquDz+idTIrxx8J1Y1lOzNdu4bvZloLKnJCyaXed6RpMR/opaMeCD0YmutmfZ1+toZ7e3aW239W/RYt8TQ54W+GdiasGXBz57BG8o3tJ3Rlx7nTKcRukl92S76fWYw+XTt7D9+7E0Z/frJ76c9fl42eIADs=;" parent="1" vertex="1">
                    <mxGeometry x="1130" y="306" width="129" height="65" as="geometry"/>
                </mxCell>
                <mxCell id="17" value="" style="shape=image;verticalLabelPosition=bottom;labelBackgroundColor=#ffffff;verticalAlign=top;aspect=fixed;imageAspect=0;image=data:image/gif,R0lGODlhgQBBAPP/AP///8DAwAAAAAAAAAAAAAAAAAAAAAAAAAAAAAAAAAAAAAAAAAAAAAAAAAAAAAAAACH/C05FVFNDQVBFMi4wAwH4fwAh+QQIMgAAACwAAAAAgQBBAIP////AwMAAAAAAAAAAAAAAAAAAAAAAAAAAAAAAAAAAAAAAAAAAAAAAAAAAAAAAAAAE/xDISau9OOvNu/9aIAJiQI7laaYs6q4vIMwy3cLmLNT7rf6+YExoAg6POGPSp+Mpf80m8TmtxqhI7DIbtXFp0qx1S36Czui0ep0ea9+p7k4OBdvn3rJ7P4KL/0l0dHF3TmF6gH5JioxTgoWEeJJOfIiWP2yZmpucIYmVT4d1k6JMeY2fV6CrI6Wtha6Bp6yXKai1Xz0xj7plsbeMncLDxCC0wG6/x8uqqbjPobPOyNPU0KDK08xlxd3e39vWhrDkveLH59q75eOT4ejv6jnsvOnXV9/5+prx0NmX/+yZ6ccooCNp9xJKIJgMYUGHDPHtm0jRQ0Rfpwy+MqdRoQ+BDfI5Qlwn0txFTCdNlXy4MqXEijBjUnApy6S8USAT5QQ4UmFHgTvf/AwZdIrMozJp4lTZjhLJolmgYrQ5jxSkp0ptZd0Yzao7rDdBIR1LUemgsE+H3pSKUy3Prx51mr0at6bTum/I6s138pfbrnfZsvXbk2Xgk4Md/mW6uNrex8TmwhXYWCHbSIfRVr3cDO/ByeEqA4NMutNWu8dEiXbDeao41YXDtQacOmNszaVz88NNFHO9s5tXy+WdCLbXpsYze+48O/lvuk2V6p7ehvhb5bNln45uPXuf7cC9Ly9CvbzF7tvTM1c/XjxK9PDbEzRPX0OEfwAh+QQIMgAAACwAAAAAgQBBAIP////AwMAAAAAAAAAAAAAAAAAAAAAAAAAAAAAAAAAAAAAAAAAAAAAAAAAAAAAAAAAE/xDISau9OOvNu/9aIAJiQI7laaYs6q6vCgj0XLewSQs2j8u/YExoAg6POWOS2Gsyd06kcsr8UaVVbAwKfda62mX4WgSZz+i0+pwVu8ky7nfuG8l5d3hbP+K/9z95eSmCdH6HTIhje4V4N3aGg4uTb2uWl5iZIZSKSWBvjVOfnaSkgFuPoJGpcaynf1KmnISuqI63orWwu3Cavr/AIK+yvIG6xMgpybOco8PPY8vFzDrH0NO8wdrb3NfSTaGS2N/K3uaQuOHW1KXn48bpq7juyNz295j0w862uXXv7MoFZMfP07GC5GLpa7au2r9WDxdmw0ex4geJcBB60ziwEkYvEeQ7RgFIUsJHKRxLpkxYxqLLlxVOqgpZkhZNljJwgsS5EqNOlA1J9RSpDKbRlzL98QzqMym8pTeT/pwJdeqUo1grOkU38ps4q1ZtdqX3VepWh2NFliUaI6tbe2fBMWX4cGjJsFztHhqldxhetH3H8J17961hYHHFYlxbUyFbXoEhG4r7F2LVyKUOa84Ud3BUwYRxVvaMDDO90axMc03cdrPrNZ0n55Unt27o07HnzY7H2zLrIrm7quut+HGv18jZGP9du7LAxtBLy46+x/ny3dZbJt/Ogbn360myi6f8nTr4zNzTY4gAIfkECDIAAAAsAAAAAIEAQQCD////wMDAAAAAAAAAAAAAAAAAAAAAAAAAAAAAAAAAAAAAAAAAAAAAAAAAAAAAAAAABP8QyEmrvTjrzbv/WiACYkCO5WmmLOquLyDMMt3C5izU+63+vmBMaAIOjzhj0qfjKX/NJvE5rcaoSOwyG7VxadKsdUt+gs7otHqdHmvfqe5ODgXb596yez+Ci/9JdHRxd05heoB+SYqMU4KFhHiSTnyIlj9smZqbnCGJlU+HdZOiTHmNn1egqyOlrYWugaeslymotV89MY+6ZbG3jJ3Cw8QgtMBuv8fLqqm4z6GzzsjT1NCgytPMZcXd3t/b1oaw5L3ix+fau+Xjk+Ho7+o57Lzp11ff+fqa8dDZl//smenHKKAjafcSSiCYDGFBhwzx7ZtI0UNEX6cMvjKnUaEPgQ3yOUJcJ9LcRUwnTZV8uDKlxIowY1JwKcukvFEgE+UEOFJhR4E73/wMGXSKzKMyaeJU2Y4SyaJZoGK0OY8UpKdKbWXdGM2qO6w3QSEdS1HpoLBPh96UilMtz68edZq9Grem07pvyOrNd/KX26532bL125Nl4JODHf5lurja3sfE5sIV2Fgh20iH0Va93AzvwcnhKgODTLrTVrvHRIl2w3mqONWFw7UGnDpjbM2lc/PDTRRzvbObV8vlnQi216bGM3vuPDv5b7pNleqe3ob4W+WzZZ+Obj17n+3AvS8vQr28xe7b0zNXP148SvTw2xM0T19DhH8AIfkECDIAAAAsAAAAAIEAQQCD////wMDAAAAAAAAAAAAAAAAAAAAAAAAAAAAAAAAAAAAAAAAAAAAAAAAAAAAAAAAABP8QyEmrvTjrzbv/WiACYkCO5WmmLOqurwoI9Fy3sEkLNo/Lv2BMaAIOjzljkthrMndOpHLK/FGlVWwMCn3Wutpl+FoEmc/otPqcFbvJMu537hvJeXd4Wz/iv/c/eXkpgnR+h0yIY3uFeDd2hoOLk29rlpeYmSGUiklgb41Tn52kpIBbj6CRqXGsp39SppyErqiOt6K1sLtwmr6/wCCvsryBusTIKcmznKPDz2PLxcw6x9DTvMHa29zX0k2hktjfyt7mkLjh1tSl5+PG6au47sjc9veY9MPOtrl17+zKBWTHz9OxguRi6Wu2rtq/Vg8XZsNHseIHiXAQetM4sBJGLxHkO0YBSFLCRykcS6ZMWMaiy5cVTqoKWZIWTZYycILEuRKjTpQNSfUUqQym0Zcy/fEM6jMpvKU3k/6cCXXqlKNYKzpFN/KbOKtWbXal91XqVodjRZYlGiOrW3tnwTFl+HBoybBc7R4apXcYXrR9x/Cde/etYWBxxWJcW1MhW16BIRuK+xdi1cilDmvOFHdwVMGEcVb2jAwzvdGsTHNN3Haz6zWdJ+eVJ7du6NOx582Ox9sy6yK5u6rrrfhxr9fI2Rj/XbuywMbQS8uOvsf58t3WWybfzoG59+tJsoun/J06+Mzc02OIACH5BAgyAAAALAAAAACBAEEAg////8DAwAAAAAAAAAAAAAAAAAAAAAAAAAAAAAAAAAAAAAAAAAAAAAAAAAAAAAAAAAT/EMhJq7046827/1ogAmJAjuVppizqri8gzDLdwuYs1Put/r5gTGgCDo84Y9Kn4yl/zSbxOa3GqEjsMhu1cWnSrHVLfoLO6LR6nR5r36nuTg4F2+fesns/gov/SXR0cXdOYXqAfkmKjFOChYR4kk58iJY/bJmam5whiZVPh3WTokx5jZ9XoKsjpa2FroGnrJcpqLVfPTGPumWxt4ydwsPEILTAbr/Hy6qpuM+hs87I09TQoMrTzGXF3d7f29aGsOS94sfn2rvl45Ph6O/qOey86ddX3/n6mvHQ2Zf/7JnpxyigI2n3EkogmAxhQYcM8e2bSNFDRF+nDL4yp1GhD4EN8jlCXCfS3EVMJ02VfLgypcSKMGNScCnLpLxRIBPlBDhSYUeBO9/8DBl0isyjMmniVNmOEsmiWaBitDmPFKSnSm1l3RjNqjusN0EhHUtR6aCwT4felIpTLc+vHnWavRq3ptO6b8jqzXfyl9uud9my9duTZeCTgx3+Zbq42t7HxObCFdhYIdtIh9FWvdwM78HJ4SoDg0y601a7x0SJdsN5qjjVhcO1Bpw6Y2zNpXPzw00Uc72zm1fL5Z0IttemxjN77jw7+W+6TZXqnt6G+Fvls2Wfjm49e5/twL0vL0K9vMXu29MzVz9ePEr08NsTNE9fQ4R/ACH5BAgyAAAALAAAAACBAEEAg////8DAwAAAAAAAAAAAAAAAAAAAAAAAAAAAAAAAAAAAAAAAAAAAAAAAAAAAAAAAAAT/EMhJq7046827/1ogAmJAjuVppizqrq8KCPRct7BJCzaPy79gTGgCDo85Y5LYazJ3TqRyyvxRpVVsDAp91rraZfhaBJnP6LT6nBW7yTLud+4byXl3eFs/4r/3P3l5KYJ0fodMiGN7hXg3doaDi5Nva5aXmJkhlIpJYG+NU5+dpKSAW4+gkalxrKd/UqachK6ojreitbC7cJq+v8Agr7K8gbrEyCnJs5yjw89jy8XMOsfQ07zB2tvc19JNoZLY38re5pC44dbUpefjxumruO7I3Pb3mPTDzra5de/sygVkx8/TsYLkYulrtq7av1YPF2bDR7HiB4lwEHrTOLASRi8R5DtGAUhSwkcpHEumTFjGosuXFU6qClmSFk2WMnCCxLkSo06UDUn1FKkMptGXMv3xDOozKbylN5P+nAl16pSjWCs6RTfymzirVm12pfdV6laHY0WWJRojq1t7Z8ExZfhwaMmwXO0eGqV3GF60fcfwnXv3rWFgccViXFtTIVtegSEbivsXYtXIpQ5rzhR3cFTBhHFW9owMM73RrExzTdx2s+s1nSfnlSe3bujTsefNjsfbMusiubuq6634ca/XyNkY/127ssDG0EvLjr7H+fLd1lsm386BuffrSbKLp/ydOvjM3NNjiAAh+QQIMgAAACwAAAAAgQBBAIP////AwMAAAAAAAAAAAAAAAAAAAAAAAAAAAAAAAAAAAAAAAAAAAAAAAAAAAAAAAAAE/xDISau9OOvNu/9aIAJiQI7laaYs6q6jIAOyoN5pTc8t7OMv4K8nlBCPQeQwNtMpdzZncrqsFp9Xataaa/K0OilX+ywHQei0es1Wm8dwqDz8NdGjXtt7y8fu/0F3c3WDeIZ9ZIlxiHFPgoJdh5CKjJUpbZiZmpshlIA/YjePhEShn5Znp6emTJKkga+NnlqosqCxhXKOuKqzJpzAwcIgvbaVrMbFtUa+y3vIzs2n0cmU0MrYtMPb3NzZ1XZ5uZPg1EXmyqOuh9/oI+7l6uO80vU/3fj5mu3P9HHX9pbBO+aPD8By0/hZK7hLT8B2+iJKJPZwocNwFw0SOjiQSEcwG/QZthIlEiEthVZCcYxEMiNKPhNjyrzwslRJgi4rGvuY8ma/nCZ31oQF1NxKnedmKpU59FZRedCOBj3XtGURqLik8mQ2teFVceSsVsWytGzEqmHbpUXqhy1RXW4xwu1KaStLrT/n2j1jtm+3l1F9gmQXFybgrIJ7Eqa76PDTxF8X773nt7IwtOIcTzZc+C5kr2NPdh6J1+JmspZT7xut2GjIolVPv033Wva90E5dZyw9VbVvTLj1Yl1nlbc528LBKpe8ljFV1mJJL8/lGTb039jdQK+OPDjy5t0Lf8+8vTzl7Og7BF9v/rlz9u8Dho9PX2D6+xkiACH5BAgyAAAALAAAAACBAEEAg////8DAwAAAAAAAAAAAAAAAAAAAAAAAAAAAAAAAAAAAAAAAAAAAAAAAAAAAAAAAAAT/EMhJq7046827/1ogAmJAjuVppizqrqMgA7Kg3mlNzy3s4y/gryeUEI9B5DA20yl3NmdyuqwWn1dq1ppr8rQ6KVf7LAdB6LR6zVabx3CoPPw10aNe23vLx+7/QXdzdYN4hn1kiXGIcU+Cgl2HkIqMlSltmJmamyGUgHaERI+hTHqep40jlqhyjnmtgaSps3yrtGJFo6Y/uJ+2RZzBwsMgvsaUvazHtJfLv667z8rTJtLMyLLW2ljE3d7ezr66hbDX5pXbrOPj4dS17bev69nw2t/3+Jr10HzJoNH73KWL4+9GwYIBaQ3sR69UrobnnOWbSLGYO34Jyy30tTEWwIsO5DNyFBkSJC+IHa1UXMnyAsl/KTW+fGfy4ceIJXHqNFJTFEpxP3tqaUm05UyE7pDu3BMzUkylTc8cDRrvZlSVRbNOzDhpqUOoM5++4jpWqEKyh9DKNFtLq9tvasGqIyTXa7W4VCvhqrtQbFq2e/PWe0uY2FSrzrpeBXbY71q7NCE7xYuYLZHCmDmpnZxUsGWpgOl6PllZMiXHnM/xnXkps+s2lA3Km/0XJuvTsZ3Oq/148eXcX2mTS+176OvjaW5DVqyc8WfTMFc/5wndsfTqyLN/aM59uh/v4KuPDF9c/Gnt6DNE+AAh+QQIMgAAACwAAAAAgQBBAIP////AwMAAAAAAAAAAAAAAAAAAAAAAAAAAAAAAAAAAAAAAAAAAAAAAAAAAAAAAAAAE/xDISau9OOvNu/9aIAJiQI7laabsKLzAK6h0Ksdwu6L87tc94E8nlBCPQeLthjQtc8noUFpsVkfXqZb2nFm72bB1TCWCzui0ep0mb20wMNMVr8/m77I+zzfuw3J2XIJgbmJ/himHfYF3UE6EgomIlH1sl5iZmiGVRXiDjqGAj4ulkz+mVJ9woqtBrn2nqSaznqSsOKJft52yhpvAwcIgvr10XsaxybW1xZDIytHNy9PSuM7V2WbD3N3d2LutkbrL4J3aquO567Do1n/utuLz6+bv9975+pr2oNnt/frFu7YMYLmDqAIe+8cLn0JU+yJK/NDvk8EfFhsOpFaR1EV/BOsdIiwSLyO0USc/Piw1saXLCx1PxtwoMuFIlZ1w1mQ2c6VOmmFeCn3Z85W6dj9XWimpsVE9ozJHCiyK8WhTjUrPDd0aEVshqQuTgt3CkNxOXGLPUin7VO2ztkBlcZ2bTxZSrDkljc1W625UfF/d8rV79W9fvYKx0V08zCtipoazSmObFmXckZTxAtZ82RLjz/z2Vg4JVzJLn5zDgdyrGHXkPyY7MwNNmw1VdlbN4n6dGN5tp07Rpma99nfu3f5GE6dVuzmamcp7S6cBufRy2b+gD59uepvz7x26Xxc/mTz28b7Rc1fPErz7DBH+ACH5BAgyAAAALAAAAACBAEEAg////8DAwAAAAAAAAAAAAAAAAAAAAAAAAAAAAAAAAAAAAAAAAAAAAAAAAAAAAAAAAAT/EMhJq7046827/1ogAmJAjuVppiw6CjAAC2qdznLcri7v2z3gbyeUEI9BpAmHU+ZozaR0OC06idbq9RWLUpddnXb8zZaxoLR6zW6rt+cgMwwVg+v4p3kP5wf9cT9zeV56g3p9iWR7gI2Hhzd0hnaNioFFbpmam5whi06FRI+UkTSWlZ9/p6KkcpKhXKapl6uqs0Wwgq+td6i0t2idwsPEHrW/Zbm+y8c1zMCussjP033U18rN2rfF3d7f28m7hJLh19bmrOTriNDV7s7p0ZPs2fDyP9/6+5v47eLSath7R5CRv4H/BPI6d89WQXV7lCH0d4qfxYsgzE28tfEhPIa93Q4upMhN40h4HUE2wsiy5QWTAWGq9KcyZR+bDafVPFkQp0edLoO2lCkyZk6VO43+TEiyYNKZsaAuTSG06sVmkI6WYqr1I9ZyXXv5lBoPJdipUcc2tcp239c8RRUqJesE29mnW9eiMws3bEK1ftsKLkbUb1a0S/Eavqt3kWLE9Oh+HEyZ01u5duc21nk5L1/JkDNj7uyXZuXTbi4XGlWPEmDIWFS7Hhd5NU/QBj/bbs3OM+yjqIOv2bzsMO6KxE8ZT+6Y+bTlpScLn97B+fHol67/3n5Nu3frVKmLzxDhACH5BAgyAAAALAAAAACBAEEAg////8DAwAAAAAAAAAAAAAAAAAAAAAAAAAAAAAAAAAAAAAAAAAAAAAAAAAAAAAAAAAT/EMhJq7046827/1ogAmJAjuVppuwovMArqHQqx3C7ovzu1z3gTyeUEI9B4u2GNC1zyehQWmxWR9eplvacWbvZsHVMJYLO6LR6nSZvbTAw0xWvz+bvsj7PN+7DcnZcgmBuYn+GKYd9gXdQToSCiYiUfWyXmJmaIZVFeIOOoYCPi6WTP6ZUn3Ciq0GufaepJrOepKw4ol+3nbKGm8DBwiC+vXRexrHJtbXFkMjK0c3L09K4ztXZZsPc3d3Yu62Rusvgndqq47nrsOjWf+624vPr5u/33vn6mvag2e39+sW7tgxguYOoAh77xwufQlT7Ikr80O+TwR8WGw6kVpHURX8E6x0iLBIvI7RRJz8+LDWxpcsLHU/G3Cgy4UiVnXDWZDZzpU6aYV4Kfdnzlbp2P1daKamxUT2jMkcKLIrxaFONSs8N3RoRWyGpC5OC3cKQ3E5cYs9SKftU7bO2QGVxnZtPFlKsOSWNzVbrblR8X93ytXv1b1+9grHRXTzMK2KmhrNKY5sWZdyRlPEC1nzZEuPP/PZWDglXMkufnMOB3KsYdeQ/JjszA02bDVV2Vs3ifp0Y3m2nTtGmZr32d+7d/kYTp1W7OZqZyntLpwG59HLZv6APn256m/PvHbpfFz+ZPPbxvtFzV88SvPsMEf4AIfkECDIAAAAsAAAAAIEAQQCD////wMDAAAAAAAAAAAAAAAAAAAAAAAAAAAAAAAAAAAAAAAAAAAAAAAAAAAAAAAAABP8QyEmrvTjrzbv/WiACYkCO5WmmLDoKMAALap3OctyuLu/bPeBvJ5QQj0GkCYdT5mjNpHQ4LTqJ1ur1FYtSl12ddvzNlrGgtHrNbqu35yAzDBWD6/ineQ/nB/1xP3N5XnqDen2JZHuAjYeHN3SGdo2KgUVumZqbnCGLToVEj5SRNJaVn3+noqRykqFcpqmXq6qzRbCCr613qLS3aJ3Cw8Qetb9lub7LxzXMwK6yyM/TfdTXys3at8Xd3t/bybuEkuHX1uas5OuI0NXuzunRk+zZ8PI/3/r7m/jt4tJq2HtHkJG/gf8E8jp3z1ZBdXuUIfR3ip/FiyDMTby18SE8hr3dDi6kyE3jSHgdQTbCyLLlBZMBYar0pzJlH5sNp9U8WRCnR50ug7aUKTJmTpU7jf5MSLJg0pmxoC5NIbTqxWaQjpZiqvUj1nJde/mUGg8l2KlRxza1ynbf1zxFFSol6wTb2adb16IzCzdsQrV+2wouRtRvVrRL8Rq+q3eRYsT06H4cTJnTW7l25zbWeTkvX8mQM2Pu7Jdm5dNuLhcaVY8SYMhYVLseF3k1T9AGP9tuzc4z7KOog6/ZvOww7orETxlP7pj5tOWlJwuf3sH58eiXrv/efk27d+tUqYvPEOEAIfkECDIAAAAsAAAAAIEAQQCD////wMDAAAAAAAAAAAAAAAAAAAAAAAAAAAAAAAAAAAAAAAAAAAAAAAAAAAAAAAAABP8QyEmrvTjrzbv/WiACYkCO5WmmLDoKMAALap3OctyuLu/bPeBvJ5QQj0GkCYdT5mjNpHQ4LTqJ1ur1FYtSl12ddvzNlrGgtHrNbqu35yAzDBWD6/ineQ/nB/1xP3N5XnqDen2JZHuAjYeHN3SGdo2KgUVumZqbnCGLfYWRhJREoZ+nlymVi6Z3kzROraupi7N7so+kcrq0vY2dwMHCIJa2pbzGqMk/y82yxdDKWNG+x7DS2NW1w9zd3dSOkrl54OW15pfjr4jZzX3urOLy5O3ojN74+Zr21s7I/O3glXkW75q2g78ACvpXUKBDVfoiSvygkJ0rUJQIIgT3kItBi7frMjLcGLBiIY01To7seGmiy5cXTK4shrKiE5Yg7dWspwznTl8/caKBSdSlzI+i1uGaydOXT2TqliJt2uzpVFfq+tkMWLRrRJ2SjuakWswhJLIex5JEaDYsWqxM197zSvdbO6lt6cnlCA4vWL1Cz92FGjck4K0t6yoW9letv6uBWzYOihEyYkaTC1eObGux506XKe/6KHrvn9CaR6dMbZoZassNk15+97m2G7FJo7qFC7s15rcgdY8ivZvzTdxphQcvPruK7edrxJY2Dtyq4+a+jwM/mx04R+jgPWCn3t3p+PPeBZcnz/5m+PcZIgAh+QQIMgAAACwAAAAAgQBBAIP////AwMAAAAAAAAAAAAAAAAAAAAAAAAAAAAAAAAAAAAAAAAAAAAAAAAAAAAAAAAAE/xDISau9OOvNu/9aIAJiQI7laaYs6q6vCgj0XLewSQs2j8u/YExoAg6POWOS2Gsyd06kcsr8UaVVbAwKfda62mX4WgSZz+i0+pwVu8ky7nfuG8l5d3hbP+K/9z95eSmCdH6HTIhje4V4N3aGg4uTb2uWl5iZIZSKSWBvjVOfnaSkgFuPoJGpcaynf1KmnISuqI63orWwu3Cavr/AIK+yvIG6xMgpybOco8PPY8vFzDrH0NO8wdrb3NfSTaGS2N/K3uaQuOHW1KXn48bpq7juyNz295j0w862uXXv7MoFZMfP07GC5GLpa7au2r9WDxdmw0ex4geJcBB60ziwEkYvEeQ7RgFIUsJHKRxLpkxYxqLLlxVOqgpZkhZNljJwgsS5EqNOlA1J9RSpDKbRlzL98QzqMym8pTeT/pwJdeqUo1grOkU38ps4q1ZtdqX3VepWh2NFliUaI6tbe2fBMWX4cGjJsFztHhqldxhetH3H8J17961hYHHFYlxbUyFbXoEhG4r7F2LVyKUOa84Ud3BUwYRxVvaMDDO90axMc03cdrPrNZ0n55Unt27o07HnzY7H2zLrIrm7quut+HGv18jZGP9du7LAxtBLy46+x/ny3dZbJt/Ogbn360myi6f8nTr4zNzTY4gAIfkECDIAAAAsAAAAAIEAQQCD////wMDAAAAAAAAAAAAAAAAAAAAAAAAAAAAAAAAAAAAAAAAAAAAAAAAAAAAAAAAABP8QyEmrvTjrzbv/WiACYkCO5WmmLOquLyDMMt3C5izU+63+vmBMaAIOjzhj0qfjKX/NJvE5rcaoSOwyG7VxadKsdUt+gs7otHqdHmvfqe5ODgXb596yez+Ci/9JdHRxd05heoB+SYqMU4KFhHiSTnyIlj9smZqbnCGJlU+HdZOiTHmNn1egqyOlrYWugaeslymotV89MY+6ZbG3jJ3Cw8QgtMBuv8fLqqm4z6GzzsjT1NCgytPMZcXd3t/b1oaw5L3ix+fau+Xjk+Ho7+o57Lzp11ff+fqa8dDZl//smenHKKAjafcSSiCYDGFBhwzx7ZtI0UNEX6cMvjKnUaEPgQ3yOUJcJ9LcRUwnTZV8uDKlxIowY1JwKcukvFEgE+UEOFJhR4E73/wMGXSKzKMyaeJU2Y4SyaJZoGK0OY8UpKdKbWXdGM2qO6w3QSEdS1HpoLBPh96UilMtz68edZq9Grem07pvyOrNd/KX26532bL125Nl4JODHf5lurja3sfE5sIV2Fgh20iH0Va93AzvwcnhKgODTLrTVrvHRIl2w3mqONWFw7UGnDpjbM2lc/PDTRRzvbObV8vlnQi216bGM3vuPDv5b7pNleqe3ob4W+WzZZ+Obj17n+3AvS8vQr28xe7b0zNXP148SvTw2xM0T19DhH8AIfkECDIAAAAsAAAAAIEAQQCD////wMDAAAAAAAAAAAAAAAAAAAAAAAAAAAAAAAAAAAAAAAAAAAAAAAAAAAAAAAAABP8QyEmrvTjrzbv/WiACYkCO5WmmLOqurwoI9Fy3sEkLNo/Lv2BMaAIOjzljkthrMndOpHLK/FGlVWwMCn3Wutpl+FoEmc/otPqcFbvJMu537hvJeXd4Wz/iv/c/eXkpgnR+h0yIY3uFeDd2hoOLk29rlpeYmSGUiklgb41Tn52kpIBbj6CRqXGsp39SppyErqiOt6K1sLtwmr6/wCCvsryBusTIKcmznKPDz2PLxcw6x9DTvMHa29zX0k2hktjfyt7mkLjh1tSl5+PG6au47sjc9veY9MPOtrl17+zKBWTHz9OxguRi6Wu2rtq/Vg8XZsNHseIHiXAQetM4sBJGLxHkO0YBSFLCRykcS6ZMWMaiy5cVTqoKWZIWTZYycILEuRKjTpQNSfUUqQym0Zcy/fEM6jMpvKU3k/6cCXXqlKNYKzpFN/KbOKtWbXal91XqVodjRZYlGiOrW3tnwTFl+HBoybBc7R4apXcYXrR9x/Cde/etYWBxxWJcW1MhW16BIRuK+xdi1cilDmvOFHdwVMGEcVb2jAwzvdGsTHNN3Haz6zWdJ+eVJ7du6NOx582Ox9sy6yK5u6rrrfhxr9fI2Rj/XbuywMbQS8uOvsf58t3WWybfzoG59+tJsoun/J06+Mzc02OIACH5BAgyAAAALAAAAACBAEEAg////8DAwAAAAAAAAAAAAAAAAAAAAAAAAAAAAAAAAAAAAAAAAAAAAAAAAAAAAAAAAAT/EMhJq7046827/1ogAmJAjuVppizqri8gzDLdwuYs1Put/r5gTGgCDo84Y9Kn4yl/zSbxOa3GqEjsMhu1cWnSrHVLfoLO6LR6nR5r36nuTg4F2+fesns/gov/SXR0cXdOYXqAfkmKjFOChYR4kk58iJY/bJmam5whiZVPh3WTokx5jZ9XoKsjpa2FroGnrJcpqLVfPTGPumWxt4ydwsPEILTAbr/Hy6qpuM+hs87I09TQoMrTzGXF3d7f29aGsOS94sfn2rvl45Ph6O/qOey86ddX3/n6mvHQ2Zf/7JnpxyigI2n3EkogmAxhQYcM8e2bSNFDRF+nDL4yp1GhD4EN8jlCXCfS3EVMJ02VfLgypcSKMGNScCnLpLxRIBPlBDhSYUeBO9/8DBl0isyjMmniVNmOEsmiWaBitDmPFKSnSm1l3RjNqjusN0EhHUtR6aCwT4felIpTLc+vHnWavRq3ptO6b8jqzXfyl9uud9my9duTZeCTgx3+Zbq42t7HxObCFdhYIdtIh9FWvdwM78HJ4SoDg0y601a7x0SJdsN5qjjVhcO1Bpw6Y2zNpXPzw00Uc72zm1fL5Z0IttemxjN77jw7+W+6TZXqnt6G+Fvls2Wfjm49e5/twL0vL0K9vMXu29MzVz9ePEr08NsTNE9fQ4R/ACH5BAgyAAAALAAAAACBAEEAg////8DAwAAAAAAAAAAAAAAAAAAAAAAAAAAAAAAAAAAAAAAAAAAAAAAAAAAAAAAAAAT/EMhJq7046827/1ogAmJAjuVppizqrq8KCPRct7BJCzaPy79gTGgCDo85Y5LYazJ3TqRyyvxRpVVsDAp91rraZfhaBJnP6LT6nBW7yTLud+4byXl3eFs/4r/3P3l5KYJ0fodMiGN7hXg3doaDi5Nva5aXmJkhlIpJYG+NU5+dpKSAW4+gkalxrKd/UqachK6ojreitbC7cJq+v8Agr7K8gbrEyCnJs5yjw89jy8XMOsfQ07zB2tvc19JNoZLY38re5pC44dbUpefjxumruO7I3Pb3mPTDzra5de/sygVkx8/TsYLkYulrtq7av1YPF2bDR7HiB4lwEHrTOLASRi8R5DtGAUhSwkcpHEumTFjGosuXFU6qClmSFk2WMnCCxLkSo06UDUn1FKkMptGXMv3xDOozKbylN5P+nAl16pSjWCs6RTfymzirVm12pfdV6laHY0WWJRojq1t7Z8ExZfhwaMmwXO0eGqV3GF60fcfwnXv3rWFgccViXFtTIVtegSEbivsXYtXIpQ5rzhR3cFTBhHFW9owMM73RrExzTdx2s+s1nSfnlSe3bujTsefNjsfbMusiubuq6634ca/XyNkY/127ssDG0EvLjr7H+fLd1lsm386BuffrSbKLp/ydOvjM3NNjiAAh+QQIMgAAACwAAAAAgQBBAIP////AwMAAAAAAAAAAAAAAAAAAAAAAAAAAAAAAAAAAAAAAAAAAAAAAAAAAAAAAAAAE/xDISau9OOvNu/9aIAJiQI7laaYs6q4vIMwy3cLmLNT7rf6+YExoAg6POGPSp+Mpf80m8TmtxqhI7DIbtXFp0qx1S36Czui0ep0ea9+p7k4OBdvn3rJ7P4KL/0l0dHF3TmF6gH5JioxTgoWEeJJOfIiWP2yZmpucIYmVT4d1k6JMeY2fV6CrI6Wtha6Bp6yXKai1Xz0xj7plsbeMncLDxCC0wG6/x8uqqbjPobPOyNPU0KDK08xlxd3e39vWhrDkveLH59q75eOT4ejv6jnsvOnXV9/5+prx0NmX/+yZ6ccooCNp9xJKIJgMYUGHDPHtm0jRQ0Rfpwy+MqdRoQ+BDfI5Qlwn0txFTCdNlXy4MqXEijBjUnApy6S8USAT5QQ4UmFHgTvf/AwZdIrMozJp4lTZjhLJolmgYrQ5jxSkp0ptZd0Yzao7rDdBIR1LUemgsE+H3pSKUy3Prx51mr0at6bTum/I6s138pfbrnfZsvXbk2Xgk4Md/mW6uNrex8TmwhXYWCHbSIfRVr3cDO/ByeEqA4NMutNWu8dEiXbDeao41YXDtQacOmNszaVz88NNFHO9s5tXy+WdCLbXpsYze+48O/lvuk2V6p7ehvhb5bNln45uPXuf7cC9Ly9CvbzF7tvTM1c/XjxK9PDbEzRPX0OEfwAh+QQIMgAAACwAAAAAgQBBAIP////AwMAAAAAAAAAAAAAAAAAAAAAAAAAAAAAAAAAAAAAAAAAAAAAAAAAAAAAAAAAE/xDISau9OOvNu/9aIAJiQI7laaYs6q6vCgj0XLewSQs2j8u/YExoAg6POWOS2Gsyd06kcsr8UaVVbAwKfda62mX4WgSZz+i0+pwVu8ky7nfuG8l5d3hbP+K/9z95eSmCdH6HTIhje4V4N3aGg4uTb2uWl5iZIZSKb2BJjXCfnYekgFKjhJGPnqymY69/Y6mQjrairqeySZq9vr8gurGktLvDe8ecwsXJxonC0Mq1zdQpwNfY2dHOnKGh28PV0qCrt5Lc6HDi6YHlTefr6tnz9Jfg99PgzPiV/MP7s3KNK+VPn8B0ANnBqsew4YeC3VwljCPxYLx4jCrWMTZqoj+MAe03RuGoESQvhyhTWoCI0KJBkSxlmMQFc6CqmgqNzfSC859LmzFUClUZM2NPbxY9Ai1SNOQUpEd/5pyyE1VSd8yUTrU2tCvDpq1uxYQXsyo5sUspot0qxazakdTIpuXqtS42sG/b9VxmCK/brFIPyWXLC+/Np4GNwi1rt/Evw1v6zs03uV9lmovTag0H+Wxmwp8vOh6dqTPml3kvWzPN06fIzcLctkZ92C/p22tYR36N1d1h2Jxk734LFe5gasI9/+699l3igbijo9HtGTjoj9SJP79+Obn2vaq7Sx/vIbv58IXRez/PVD177+Tja4gAIfkECDIAAAAsAAAAAIEAQQCD////wMDAAAAAAAAAAAAAAAAAAAAAAAAAAAAAAAAAAAAAAAAAAAAAAAAAAAAAAAAABP8QyEmrvTjrzbv/WiACYkCO5WmmLOquLyDMMt3C5izU+63+vmBMaAIOjzhj0qfjKX/NJvE5rcaoSOwyG7VxadKsdUt+gs7otHqdHmvfqe5ODgXb596yez+Ci/9JdHRxd05heoB+SYqMU4KFhHiSTnyIlj9smZqbnCGJlU+HdZOiTHmNn1egqyOlrYWugaeslymotV89MY+6ZbG3jJ3Cw8QgtMBuv8fLqqm4z6GzzsjT1NCgytPMZcXd3t/b1oaw5L3ix+fau+Xjk+Ho7+o57Lzp11ff+fqa8dDZl//smenHKKAjafcSSiCYDGFBhwzx7ZtI0UNEX6cMvjKnUaEPgQ3yOUJcJ9LcRUwnTZV8uDKlxIowY1JwKcukvFEgE+UEOFJhR4E73/wMGXSKzKMyaeJU2Y4SyaJZoGK0OY8UpKdKbWXdGM2qO6w3QSEdS1HpoLBPh96UilMtz68edZq9Grem07pvyOrNd/KX26532bL125Nl4JODHf5lurja3sfE5sIV2Fgh20iH0Va93AzvwcnhKgODTLrTVrvHRIl2w3mqONWFw7UGnDpjbM2lc/PDTRRzvbObV8vlnQi216bGM3vuPDv5b7pNleqe3ob4W+WzZZ+Obj17n+3AvS8vQr28xe7b0zNXP148SvTw2xM0T19DhH8AIfkECDIAAAAsAAAAAIEAQQCD////wMDAAAAAAAAAAAAAAAAAAAAAAAAAAAAAAAAAAAAAAAAAAAAAAAAAAAAAAAAABP8QyEmrvTjrzbv/WiACYkCO5WmmLOqurwoI9Fy3sEkLNo/Lv2BMaAIOjzljkthrMndOpHLK/FGlVWwMCn3Wutpl+FoEmc/otPqcFbvJMu537hvJeXd4Wz/iv/c/eXkpgnR+h0yIY3uFeDd2hoOLk29rlpeYmSGUim9gSY1wn52HpIBSo4SRj56spmOvf2OpkI62oq6nskmavb6/ILqxpLS7w3vHnMLFycaJwtDKtc3UKcDX2NnRzpyhodvD1dKgq7eS3Ohw4umB5U3n6+rZ8/SX4PfT4Mz4lfzD+7NyjSvlT5/AdADZwarHsOGHgt1cJYwj8WC8eIwq1jE2aqI/jAHtN0bhqBEkL4coU1qAiNCiQZEsZZjEBXOgqpoKjc30gvOfS5sxVApVGTNjT28WPQItUjTkFKRHf+acshNVUnfMlE61NrQrw6atbsWEF7MqObFLKaLdKsWs2pHUyKbl6rUuNrBv2/VcZgiv26xSD8llywvvzaeBjcIta7fxL8Nb+s7NN7lfZZqL02oNB/lsZsKfLzoenakz5pd5L1szzdOnyM3C3LZGfdgv6dtrWEd+jdXdYdicZO9+CxXuYGrCPf/uvfZd4oG4o6PR7Rk46I/UiT+/fjm59r2qu0sf7yG7+fCF0Xs/z1Q9e+/k42uIACH5BAgyAAAALAAAAACBAEEAg////8DAwAAAAAAAAAAAAAAAAAAAAAAAAAAAAAAAAAAAAAAAAAAAAAAAAAAAAAAAAAT/EMhJq7046827/1ogAmJAjuVppizqrq8KCPRct7BJCzaPy79gTGgCDo85Y5LYazJ3TqRyyvxRpVVsDAp91rraZfhaBJnP6LT6nBW7yTLud+4byXl3eFs/4r/3P3l5KYJ0fodMiGN7hXg3doaDi5Nva5aXmJkhlIpJYG+NU5+dpKSAW4+gkalxrKd/UqachK6ojreitbC7cJq+v8Agr7K8gbrEyCnJs5yjw89jy8XMOsfQ07zB2tvc19JNoZLY38re5pC44dbUpefjxumruO7I3Pb3mPTDzra5de/sygVkx8/TsYLkYulrtq7av1YPF2bDR7HiB4lwEHrTOLASRi8R5DtGAUhSwkcpHEumTFjGosuXFU6qClmSFk2WMnCCxLkSo06UDUn1FKkMptGXMv3xDOozKbylN5P+nAl16pSjWCs6RTfymzirVm12pfdV6laHY0WWJRojq1t7Z8ExZfhwaMmwXO0eGqV3GF60fcfwnXv3rWFgccViXFtTIVtegSEbivsXYtXIpQ5rzhR3cFTBhHFW9owMM73RrExzTdx2s+s1nSfnlSe3bujTsefNjsfbMusiubuq6634ca/XyNkY/127ssDG0EvLjr7H+fLd1lsm386BuffrSbKLp/ydOvjM3NNjiAAh+QQIMgAAACwAAAAAgQBBAIP////AwMAAAAAAAAAAAAAAAAAAAAAAAAAAAAAAAAAAAAAAAAAAAAAAAAAAAAAAAAAE/xDISau9OOvNu/9aIAJiQI7laaYs6q6vCgj0XLewSQs2j8u/YExoAg6POWOS2Gsyd06kcsr8UaVVbAwKfda62mX4WgSZz+i0+pwVu8ky7nfuG8l5d3hbP+K/9z95eSmCdH6HTIhje4V4N3aGg4uTb2uWl5iZIZSKb2BJjXCfnYekgFKjhJGPnqymY69/Y6mQjrairqeySZq9vr8gurGktLvDe8ecwsXJxonC0Mq1zdQpwNfY2dHOnKGh28PV0qCrt5Lc6HDi6YHlTefr6tnz9Jfg99PgzPiV/MP7s3KNK+VPn8B0ANnBqsew4YeC3VwljCPxYLx4jCrWMTZqoj+MAe03RuGoESQvhyhTWoCI0KJBkSxlmMQFc6CqmgqNzfSC859LmzFUClUZM2NPbxY9Ai1SNOQUpEd/5pyyE1VSd8yUTrU2tCvDpq1uxYQXsyo5sUspot0qxazakdTIpuXqtS42sG/b9VxmCK/brFIPyWXLC+/Np4GNwi1rt/Evw1v6zs03uV9lmovTag0H+Wxmwp8vOh6dqTPml3kvWzPN06fIzcLctkZ92C/p22tYR36N1d1h2Jxk734LFe5gasI9/+699l3igbijo9HtGTjoj9SJP79+Obn2vaq7Sx/vIbv58IXRez/PVD177+Tja4gAIfkECDIAAAAsAAAAAIEAQQCD////wMDAAAAAAAAAAAAAAAAAAAAAAAAAAAAAAAAAAAAAAAAAAAAAAAAAAAAAAAAABP8QyEmrvTjrzbv/WiACYkCO5WmmLOquryqnQg3Uwhzjt93CQF3wJxMaichYcjji8Za93FNJZVqL0Gz1uKXZplenr0u+pkDotHrNVmvNZW5QLP2OTfSo/i039vmAW3l5XnWGe3GBJn+JjWF2h2B6g3eMcEFtmZqbnCGOlqCSRJQ5o5WKfaCofKI7kIhzp59QqrNxrbGRsni7tVedwMHCIKu2l6G9xcdEvs3KRrjOxhLP1dPR1ssjw9zd3tnSj7rjsOGg5uCm5KTon+3a8JOv7Olx3vf4m/Xx6n3R2NOY7TMHkFcpVwf5uRv4rGC5Qu9S5ZtI8QPDTw5RZZwWsWGyax/tFWK6GG9jyZDmKqpceYEksoQRTTbrCBImOJmoaIp8GLAJymcsg7J0yeonRqM7dTbDeQvpTKJNbfY0qPSM0KsToYrjuRMi02NVo3Il+Gpg2GOEpspI2zUG1rf3tEIrqxaiXbVn/dFtm2utU1py+33VC3MwM7iIhQUW9Fes4S15i0rlK29yysVbB7KNmLhzJ8x+CzfuKzcyY9GWJZteBPouVY+p627zTLtNa5+HvM7bjTrv6rm5cVceLukx2NtUi/MmXsm4xNrQ0SDPu9nsdJfVZbPW/htKdspWo4vvcJ379O7m0yctD179ufHwM0T4ACH5BAgyAAAALAAAAACBAEEAg////8DAwAAAAAAAAAAAAAAAAAAAAAAAAAAAAAAAAAAAAAAAAAAAAAAAAAAAAAAAAAT/EMhJq7046827/1ogAmJAjuVppizqrq8qCzRAC3Jr3nat57GfMAaEGYvI4fHH4yl7OGdwuqQik9an1tr0cWvSqhg7ToHO6LR6nd6Ws/AdeB71yut4KHnvlvT/cTN0emGEg4WAb0d8gYmCeV04KZGGko2Xi2yam5ydGY6gX5ZHlIgxpoqMJqqsjqiVek+voYu0raJIpXa5u7Y/nsDBwiC+mLekvcbFtcrNqbLJz857x9XLsdPXZsPc3d3a2aeH43ngqdbhqbqQg+bU7tfrsLPpV973+Jvw0/Tq0ehjAApk8q9Pv4EjEErzN6rawWv5IkokVs9WoYcjLhasp1CgxobQ9BpiXCijo8VdI7HdMUlkosuXFvaRTGlwI8lfMlnRDLSTJMubGW06FGoLplGYOWuCDMqunLilQAMm5flP3querH4OhTqv3VOt246KzTd1DCV3ZysmLMvLadS2KjuCpeq2Y9q3v8bq9cZ2UlWidONC7MsUbjyveIkQXkmQqyvEcvdKFrb4keB6WPvMZXg5MWO1zDxv7ewR8NvJqD1VDllapOmsq3GddO142ubRsy27S81bU2xktLs2tZzZym2lxMnB8lt3MGjcha1Cvhu5t/Uzv5PXFr07O3PS3o2HX1mcu7Hr6D+MP/4cZ/v35uOXXE/fdvr7GSIAIfkECDIAAAAsAAAAAIEAQQCD////wMDAAAAAAAAAAAAAAAAAAAAAAAAAAAAAAAAAAAAAAAAAAAAAAAAAAAAAAAAABP8QyEmrvTjrzbv/WiACYkCO5WmmLOquryqnQg3Uwhzjt93CQF3wJxMaichYcjji8Za93FNJZVqL0Gz1uKXZplenr0u+pkDotHrNVmvNZW5QLP2OTfSo/i039vmAW3l5XnWGe3GBJn+JjWF2h2B6g3eMcEFtmZqbnCGOlqCSRJQ5o5WKfaCofKI7kIhzp59QqrNxrbGRsni7tVedwMHCIKu2l6G9xcdEvs3KRrjOxhLP1dPR1ssjw9zd3tnSj7rjsOGg5uCm5KTon+3a8JOv7Olx3vf4m/Xx6n3R2NOY7TMHkFcpVwf5uRv4rGC5Qu9S5ZtI8QPDTw5RZZwWsWGyax/tFWK6GG9jyZDmKqpceYEksoQRTTbrCBImOJmoaIp8GLAJymcsg7J0yeonRqM7dTbDeQvpTKJNbfY0qPSM0KsToYrjuRMi02NVo3Il+Gpg2GOEpspI2zUG1rf3tEIrqxaiXbVn/dFtm2utU1py+33VC3MwM7iIhQUW9Fes4S15i0rlK29yysVbB7KNmLhzJ8x+CzfuKzcyY9GWJZteBPouVY+p627zTLtNa5+HvM7bjTrv6rm5cVceLukx2NtUi/MmXsm4xNrQ0SDPu9nsdJfVZbPW/htKdspWo4vvcJ379O7m0yctD179ufHwM0T4ACH5BAgyAAAALAAAAACBAEEAg////8DAwAAAAAAAAAAAAAAAAAAAAAAAAAAAAAAAAAAAAAAAAAAAAAAAAAAAAAAAAAT/EMhJq7046827/1ogAmJAjuVppizqrq8qCzRAC3Jr3nat57GfMAaEGYvI4fHH4yl7OGdwuqQik9an1tr0cWvSqhg7ToHO6LR6nd6Ws/AdeB71yut4KHnvlvT/cTN0emGEg4WAb0d8gYmCeV04KZGGko2Xi2yam5ydGY6gX5ZHlIgxpoqMJqqsjqiVek+voYu0raJIpXa5u7Y/nsDBwiC+mLekvcbFtcrNqbLJz857x9XLsdPXZsPc3d3a2aeH43ngqdbhqbqQg+bU7tfrsLPpV973+Jvw0/Tq0ehjAApk8q9Pv4EjEErzN6rawWv5IkokVs9WoYcjLhasp1CgxobQ9BpiXCijo8VdI7HdMUlkosuXFvaRTGlwI8lfMlnRDLSTJMubGW06FGoLplGYOWuCDMqunLilQAMm5flP3querH4OhTqv3VOt246KzTd1DCV3ZysmLMvLadS2KjuCpeq2Y9q3v8bq9cZ2UlWidONC7MsUbjyveIkQXkmQqyvEcvdKFrb4keB6WPvMZXg5MWO1zDxv7ewR8NvJqD1VDllapOmsq3GddO142ubRsy27S81bU2xktLs2tZzZym2lxMnB8lt3MGjcha1Cvhu5t/Uzv5PXFr07O3PS3o2HX1mcu7Hr6D+MP/4cZ/v35uOXXE/fdvr7GSIAIfkECDIAAAAsAAAAAIEAQQCD////wMDAAAAAAAAAAAAAAAAAAAAAAAAAAAAAAAAAAAAAAAAAAAAAAAAAAAAAAAAABP8QyEmrvTjrzbv/WiACYkCO5WmmLOquryqnQg3Uwhzjt93CQF3wJxMaichYcjji8Za93FNJZVqL0Gz1uKXZplenr0u+pkDotHrNVmvNZW5QLP2OTfSo/i039vmAW3l5XnWGe3GBJn+JjWF2h2B6g3eMcEFtmZqbnCGOlqCSRJQ5o5WKfaCofKI7kIhzp59QqrNxrbGRsni7tVedwMHCIKu2l6G9xcdEvs3KRrjOxhLP1dPR1ssjw9zd3tnSj7rjsOGg5uCm5KTon+3a8JOv7Olx3vf4m/Xx6n3R2NOY7TMHkFcpVwf5uRv4rGC5Qu9S5ZtI8QPDTw5RZZwWsWGyax/tFWK6GG9jyZDmKqpceYEksoQRTTbrCBImOJmoaIp8GLAJymcsg7J0yeonRqM7dTbDeQvpTKJNbfY0qPSM0KsToYrjuRMi02NVo3Il+Gpg2GOEpspI2zUG1rf3tEIrqxaiXbVn/dFtm2utU1py+33VC3MwM7iIhQUW9Fes4S15i0rlK29yysVbB7KNmLhzJ8x+CzfuKzcyY9GWJZteBPouVY+p627zTLtNa5+HvM7bjTrv6rm5cVceLukx2NtUi/MmXsm4xNrQ0SDPu9nsdJfVZbPW/htKdspWo4vvcJ379O7m0yctD179ufHwM0T4ACH5BAgyAAAALAAAAACBAEEAg////8DAwAAAAAAAAAAAAAAAAAAAAAAAAAAAAAAAAAAAAAAAAAAAAAAAAAAAAAAAAAT/EMhJq7046827/1ogAmJAjuVppizqrq8KCPRct7BJCzaPy79gTGgCDo85Y5LYazJ3TqRyyvxRpVVsDAp91rraZfhaBJnP6LT6nBW7yTLud+4byXl3eFs/4r/3P3l5KYJ0fodMiGN7hXg3doaDi5Nva5aXmJkhlIpvYEmNcJ+dh6SAUqOEkY+erKZjr39jqZCOtqKup7JJmr2+vyC6saS0u8N7x5zCxcnGicLQyrXN1CnA19jZ0c6coaHbw9XSoKu3ktzocOLpgeVN5+vq2fP0l+D30+DM+JX8w/uzco0r5U+fwHQA2cGqx7Dhh4LdXCWMI/FgvHiMKtYxNmqiP4wB7TdG4agRJC+HKFNagIjQokGRLGWYxAVzoKqaCo3N9ILzn0ubMVQKVRkzY09vFj0CLVI05BSkR3/mnLITVVJ3zJROtTa0K8OmrW7FhBezKjmxSymi3SrFrNqR1Mim5eq1Ljawb9v1XGYIr9usUg/JZcsL782ngY3CLWu38S/DW/rOzTe5X2Wai9NqDQf5bGbCny86Hp2pM+aXeS9bM83Tp8jNwty2Rn3YL+nba1hHfo3V3WHYnGTvfgsV7mBqwj3/7r32XeKBuKOj0e0ZOOiP1Ik/v345ufa9qrtLH+8hu/nwhdF7P89UPXvv5ONriAAh+QQIMgAAACwAAAAAgQBBAIP////AwMAAAAAAAAAAAAAAAAAAAAAAAAAAAAAAAAAAAAAAAAAAAAAAAAAAAAAAAAAE/xDISau9OOvNu/9aIAJiQI7laaYs6q6vCgj0XLewSQs2j8u/YExoAg6POWOS2Gsyd06kcsr8UaVVbAwKfda62mX4WgSZz+i0+pwVu8ky7nfuG8l5d3hbP+K/9z95eSmCdH6HTIhje4V4N3aGg4uTb2uWl5iZIZSKSWBvjVOfnaSkgFuPoJGpcaynf1KmnISuqI63orWwu3Cavr/AIK+yvIG6xMgpybOco8PPY8vFzDrH0NO8wdrb3NfSTaGS2N/K3uaQuOHW1KXn48bpq7juyNz295j0w862uXXv7MoFZMfP07GC5GLpa7au2r9WDxdmw0ex4geJcBB60ziwEkYvEeQ7RgFIUsJHKRxLpkxYxqLLlxVOqgpZkhZNljJwgsS5EqNOlA1J9RSpDKbRlzL98QzqMym8pTeT/pwJdeqUo1grOkU38ps4q1ZtdqX3VepWh2NFliUaI6tbe2fBMWX4cGjJsFztHhqldxhetH3H8J17961hYHHFYlxbUyFbXoEhG4r7F2LVyKUOa84Ud3BUwYRxVvaMDDO90axMc03cdrPrNZ0n55Unt27o07HnzY7H2zLrIrm7quut+HGv18jZGP9du7LAxtBLy46+x/ny3dZbJt/Ogbn360myi6f8nTr4zNzTY4gAIfkECDIAAAAsAAAAAIEAQQCD////wMDAAAAAAAAAAAAAAAAAAAAAAAAAAAAAAAAAAAAAAAAAAAAAAAAAAAAAAAAABP8QyEmrvTjrzbv/WiACYkCO5WmmLOquLyDMMt3C5izU+63+vmBMaAIOjzhj0qfjKX/NJvE5rcaoSOwyG7VxadKsdUt+gs7otHqdHmvfqe5ODgXb596yez+Ci/9JdHRxd05heoB+SYqMU4KFhHiSTnyIlj9smZqbnCGJlU+HdZOiTHmNn1egqyOlrYWugaeslymotV89MY+6ZbG3jJ3Cw8QgtMBuv8fLqqm4z6GzzsjT1NCgytPMZcXd3t/b1oaw5L3ix+fau+Xjk+Ho7+o57Lzp11ff+fqa8dDZl//smenHKKAjafcSSiCYDGFBhwzx7ZtI0UNEX6cMvjKnUaEPgQ3yOUJcJ9LcRUwnTZV8uDKlxIowY1JwKcukvFEgE+UEOFJhR4E73/wMGXSKzKMyaeJU2Y4SyaJZoGK0OY8UpKdKbWXdGM2qO6w3QSEdS1HpoLBPh96UilMtz68edZq9Grem07pvyOrNd/KX26532bL125Nl4JODHf5lurja3sfE5sIV2Fgh20iH0Va93AzvwcnhKgODTLrTVrvHRIl2w3mqONWFw7UGnDpjbM2lc/PDTRRzvbObV8vlnQi216bGM3vuPDv5b7pNleqe3ob4W+WzZZ+Obj17n+3AvS8vQr28xe7b0zNXP148SvTw2xM0T19DhH8AOw==;" parent="1" vertex="1">
                    <mxGeometry x="1130" y="469" width="129" height="65" as="geometry"/>
                </mxCell>
                <mxCell id="18" value="teen_duck" style="swimlane;childLayout=stackLayout;horizontal=1;startSize=30;horizontalStack=0;rounded=1;fontSize=14;fontStyle=0;strokeWidth=2;resizeParent=0;resizeLast=1;shadow=0;dashed=0;align=center;" parent="1" vertex="1">
                    <mxGeometry x="960" y="118.5" width="160" height="120" as="geometry"/>
                </mxCell>
                <mxCell id="19" value="+ appetite = 28&#10;+ care = 40&#10;+ thirst = 25&#10;+ health = 12" style="align=left;strokeColor=none;fillColor=none;spacingLeft=4;fontSize=12;verticalAlign=top;resizable=0;rotatable=0;part=1;" parent="18" vertex="1">
                    <mxGeometry y="30" width="160" height="90" as="geometry"/>
                </mxCell>
                <mxCell id="20" value="" style="shape=image;verticalLabelPosition=bottom;labelBackgroundColor=#ffffff;verticalAlign=top;aspect=fixed;imageAspect=0;image=data:image/gif,R0lGODlhgQBBAPEBAP///8DAwAAAAAAAACH/C05FVFNDQVBFMi4wAwH4AAAh/h1HaWZCdWlsZGVyIDAuNSBieSBZdmVzIFBpZ3VldAAh+QQEMgD/ACwAAAAAgQBBAAAC/YSPqcvtD6OcLlhgA7556w5y4jcCwmmip+ClbEjGLTyX9H3VMr7bvrZyCTtBnu5oTJaQP2bvKQwWL1Oo0to0UrbcrvfbvTrHRqnqzKqSs2ysZu2GH81p9LAtF9PyeD3VTncX5ze4BHaImKjYQMgHpSYG2TcZ52hJIxmXeUnZwln4iNK42Vias4iaqjphChol+vdSskna2fgpF0gEK0PLi3vbmmu3K9v7Wwxse7ra7NwsXIa8rDntGkw9VnvdtK0s8z1nHZ4c3fmMnp5oXl1nHO7N7ikv7U4ee19J302cjTm+D5y6gQRZ+eP3LmCLeAfBKSzXUBvAiHse4rN4LCHaxSYFO3pcgHFhP26hNJKUk0+cPYUMT1bcWFIQvIkuOX686THkP5OWWqZMWW8mT505iGYUChQPzqUEjap8ZS+Qz5BJ20G9qgumpaoSowL6OlSrFqZknzkNChHIr6lauUZaC/cd25oOxXZSgzeuW5tl+6ZyKlVvWpFh6Y7Zq9arXMGzaHJFjJVx4qdnDfm9vM7uybyLC0OG/LYzYdAcK1sdPPcn5tVgTJM2LOa1bKezNdd+wzo3F9e8bXe4DVxhcN/EBeo+HqG31aywIw6Pyfy5AeVdr1Lfgzx7gwIAIfkEBDIA/wAsKQAhAC8AHwAAAqmMYQHCeOkUnO8wEam6sWtfbU3ycd8ZduYBtO4Lx/JMg5LVcHrOY+tNsi16Qx9xh9GgRMZm8YkU1qbUammES2ZVWGAm9XtCwmEluCvejtGfqvv9umq9ZHT0IhfW59Be/q+2FQVHaJWyxrcnZOaFyJXIdkjSGMj0uJhSqEmzhEn5adMpKgk6WUrqmbq5CjN6+hqK6prKSCt768Wqa2sZNWuaehf5OivM51oAADs=;" parent="1" vertex="1">
                    <mxGeometry x="1130" y="146" width="129" height="65" as="geometry"/>
                </mxCell>
                <mxCell id="21" value="adult_alien" style="swimlane;childLayout=stackLayout;horizontal=1;startSize=30;horizontalStack=0;rounded=1;fontSize=14;fontStyle=0;strokeWidth=2;resizeParent=0;resizeLast=1;shadow=0;dashed=0;align=center;" parent="1" vertex="1">
                    <mxGeometry x="1370" y="280" width="160" height="120" as="geometry"/>
                </mxCell>
                <mxCell id="22" value="+ appetite = 33&#10;+ care = 40&#10;+ thirst = 45&#10;+ health = 30" style="align=left;strokeColor=none;fillColor=none;spacingLeft=4;fontSize=12;verticalAlign=top;resizable=0;rotatable=0;part=1;" parent="21" vertex="1">
                    <mxGeometry y="30" width="160" height="90" as="geometry"/>
                </mxCell>
                <mxCell id="23" value="" style="shape=image;verticalLabelPosition=bottom;labelBackgroundColor=#ffffff;verticalAlign=top;aspect=fixed;imageAspect=0;image=data:image/gif,R0lGODlhgQBBAPP/AP///8DAwAAAAAAAAAAAAAAAAAAAAAAAAAAAAAAAAAAAAAAAAAAAAAAAAAAAAAAAACH/C05FVFNDQVBFMi4wAwH4fwAh+QQIMgAAACwAAAAAgQBBAIP////AwMAAAAAAAAAAAAAAAAAAAAAAAAAAAAAAAAAAAAAAAAAAAAAAAAAAAAAAAAAE/xDISau9OOvNu/9aIAJiQI7laaYs6q6vKrdwPcf0bed8rP+9HW4oLAKJR2Pwl2wun0ioMkqd2kDYrHbL1UqdVZlgDLYCxoKyerkOf9FtI/xLR8bvubkbqTfXjV2BgoOEIXt+fGR9Z4qNaXCLkGR/d3iHYo6Yj5mSaSmdlogmoXegn5yoniOml5SFr7CxIJS0iaqijLekrrW4S4tvk63DV727q8K4wMSVss7Pz8bGkclqy76Xx9gm1LrB3sxf2qXV103m0nbQ6+yC6du55Lro4Xbv8vin4PDi95T0cspV86euncGDHggqE7hp3w+A41JEvNQt3reJZjBaY2gxDESFCOlDisQA8leme6z4hdFosuG4lCxHxAzoEuXJehlH6hRZMkZFUEBTdeQ2EKeMmZqSBnW5dKhTkEj1KRXaFOZHZjuzHuxp46rKrkW/HuWalGyesOOiInNI1mszrXCjGb1YlapdtnNlmvV5N15dpmih7gULuLDfvm6NxV0sa/BDji3L5s3o+Oy8wGsli+03eeNlvEQ/q73CuDShyram1syMuljnfxytYt5s7zXF2DdDj2ZiuneX1ruBB7dNW+zw4seb+F7uhXhy4BKhO5c+ivpz58yzf7Bu+bBh7nqn3zYM0/p1mt7Tgx+lvX2GCAAh+QQIMgAAACwAAAAAgQBBAIP////AwMAAAAAAAAAAAAAAAAAAAAAAAAAAAAAAAAAAAAAAAAAAAAAAAAAAAAAAAAAE/xDISau9OOvNu/9aIAJiQI7laaYs6q6vKrdwPcf0bed8rP+9HW4oLAKJR2Pwl2wun0ioMkqd2kDYrHbL1UqdSIEYbAWIBeT0N6Wu/s5tI3ztppvi+Hk9PLbjl12BgoOEIXtlKXB6JopjjWiLZo59h38+fl+PMpqclIyTaJiVOZZlmomgkpCpqKuho7BXhbO0tR+iiDGRmZ6lvmy4eb28r7nGeL+Vu27Lx8GkttHS0s/Mvc1N2NXHyabXw9bF3cjb2d/ixOPB0+ztg+VL2nzi8s6xEvDzwvTg9v4y6vT5iVQvoBF3CBOCyCfnnKo0BRkykZiDIKtwBsndS9fqIceNIOTvKBxJ0gLFEadCPoyoktTJT67Gpfy37uXKfvs8tqxUsmdJiRZjdhKaKmhGQEAdDr1JNGZHmy53wtxUtGpTplTRSWXisyvCpFppYoR6aStLsTbOjsuotlxblV7jsrO5tK5VrGQP0r1r9+rMo0gAT+2LlXBernIT0zpsNJ7Dw0i3VnwsECVOyCMEZ93smF9YzdAUi34nufLgi1MxlwGtSylqnWjXqoZdmHLscqNzB5rNu/SV3rd9awxOnHVx3ci9CAduHCDz51ubQy8eOrl1DswJv6UeODvf19OdL9dnePy/6+g1RPgAIfkECDIAAAAsAAAAAIEAQQCD////wMDAAAAAAAAAAAAAAAAAAAAAAAAAAAAAAAAAAAAAAAAAAAAAAAAAAAAAAAAABP8QyEmrvTjrzbv/WiACYkCO5WmmLOquryq3cD3H9G3nfKz/vR1uKCwCiUdj8JdsLp9IqDJKndpA2Kx2y9VKnVWwVUz+5sphc3o9Vo/RbTZ87iZ37/i8PiSv+/uAcUZ0gYSChnOIf4eLimF7kJGSII2VcgKYjoxImp1LmAKehSmim4egpYiTq6ytlqeZqLKxmSmzoa+quV+3AL2otrS4o8QmqZ/CvsnAI727ha3R0nnPRsyww6bHI9s212Tf1brFTeFh5tri0+vslOQ56DLxwdndduL05bVI8+9y9v1MBFRWD9+/dggTWjAocNk+bPbqAHRY8NzDiI8YEtw4EN5FjV/QFIpUKM4ZOZPpyKVCiYglSE4lk+Vy6e/QyJvsZl78RZFjz3wvB+msxzNUUZ9Gd36s2aTTt6NQfzZbmtImzquuTlKdWLHqPa1duWIUCnasvK1BsapdFTOpW6Rwo4ZNS6pt3J5yN9KFyTSvX6leG60dvEfjU7RTiSIO/M+w0rmJz0JmbNOx4sl6I+99Q7hzl7SH34Y2KxH0Y7hAmeYyO5plR9WPPMvOspk0bLKUbecWXLv3bRmzg38wLRqvzN+8kUf++9b3G+J3izdXrk24dQ0R/gAh+QQIMgAAACwAAAAAgQBBAIP////AwMAAAAAAAAAAAAAAAAAAAAAAAAAAAAAAAAAAAAAAAAAAAAAAAAAAAAAAAAAE/xDISau9OOvNu/9aIAJiQI7laaYs6q6vKrdwPcf0bed8rP+9HW4oLAKJR2Pwl2wun0ioMkqd2kDYrHbL1UqdSIEYbAWIBeT0N6Wu/s5tI3ztppvi+Hk9PLbjl12BgoOEIXtlKXB6JopjjWiLZo59h38+fl+PMpqclIyTaJiVOZZlmomgkpCpqKuho7BXhbO0tR+iiDGRmZ6lvmy4eb28r7nGeL+Vu27Lx8GkttHS0s/Mvc1N2NXHyabXw9bF3cjb2d/ixOPB0+ztg+VL2nzi8s6xEvDzwvTg9v4y6vT5iVQvoBF3CBOCyCfnnKo0BRkykZiDIKtwBsndS9fqIceNIOTvKBxJ0gLFEadCPoyoktTJT67Gpfy37uXKfvs8tqxUsmdJiRZjdhKaKmhGQEAdDr1JNGZHmy53wtxUtGpTplTRSWXisyvCpFppYoR6aStLsTbOjsuotlxblV7jsrO5tK5VrGQP0r1r9+rMo0gAT+2LlXBernIT0zpsNJ7Dw0i3VnwsECVOyCMEZ93smF9YzdAUi34nufLgi1MxlwGtSylqnWjXqoZdmHLscqNzB5rNu/SV3rd9awxOnHVx3ci9CAduHCDz51ubQy8eOrl1DswJv6UeODvf19OdL9dnePy/6+g1RPgAIfkECDIAAAAsAAAAAIEAQQCD////wMDAAAAAAAAAAAAAAAAAAAAAAAAAAAAAAAAAAAAAAAAAAAAAAAAAAAAAAAAABP8QyEmrvTjrzbv/WiACYkCO5WmmLOquryq3cD3H9G3nfKz/vR1uKCwCiUdj8JdsLp9IqDJKndpA2Kx2y9VKnVWwVUz+5sphc3o9Vo/RbTZ87iZ37/i8PiSv+/uAcUZ0gYSChnOIf4eLimF7kJGSII2VcgKYjoxImp1LmAKehSmim4egpYiTq6ytlqeZqLKxmSmzoa+quV+3AL2otrS4o8QmqZ/CvsnAI727ha3R0nnPRsyww6bHI9s212Tf1brFTeFh5tri0+vslOQ56DLxwdndduL05bVI8+9y9v1MBFRWD9+/dggTWjAocNk+bPbqAHRY8NzDiI8YEtw4EN5FjV/QFIpUKM4ZOZPpyKVCiYglSE4lk+Vy6e/QyJvsZl78RZFjz3wvB+msxzNUUZ9Gd36s2aTTt6NQfzZbmtImzquuTlKdWLHqPa1duWIUCnasvK1BsapdFTOpW6Rwo4ZNS6pt3J5yN9KFyTSvX6leG60dvEfjU7RTiSIO/M+w0rmJz0JmbNOx4sl6I+99Q7hzl7SH34Y2KxH0Y7hAmeYyO5plR9WPPMvOspk0bLKUbecWXLv3bRmzg38wLRqvzN+8kUf++9b3G+J3izdXrk24dQ0R/gAh+QQIMgAAACwAAAAAgQBBAIP////AwMAAAAAAAAAAAAAAAAAAAAAAAAAAAAAAAAAAAAAAAAAAAAAAAAAAAAAAAAAE/xDISau9OOvNu/9aIAJiQI7laaYs6q6vKrdwPcf0bed8rP+9HW4oLAKJR2Pwl2wun0ioMkqd2kDYrHbL1UqdVbBVTP7mymFzej1Wj9FtNnzuJnfv+Lw+JK/7+4BxRnSBhIKGc4h/h4uKYXuQkZIgjZVIApiOjHKanSmYAp6FS6KbRqClqZOrrK2Wp5mosrGZn7Shr6q5ObOhvQCotr61o8WDuzG/ysQmv8imTK3S03jPwMxkwcapZ9bah9/c2ymp4V/m4+lX1OztH7noNvEy89aNnfUj+c3Y9tv4/ZIFlDdQHDR3CBNegHfrGi45+wzaYTis4pyI/g4BtIhR4ENoGdJlKBypsJGzbSdBqhNpsiFFhxLvtbT4sqPKgyRzsqsTbhnHhj7pFQxJiie2oEiBHh268svFpT+jwgwqLCYnnVhdQWR684dNqyaefgQLkygno2PN8kvb9GrWt5FmTlUqNSnbrrkQ2Z1bly7ZOnr97t2rNhHcw3peVl3Sk+tfJBuF3pVMubBMlFCbNJ5s+RHiz128ZU5Zti1eH6LHUtXnuPOb1JRJf3UdDbRtLLRzm2a5W/dpjb4f/659uzgH2INd9l5ZTrBzzssPIn/OVzgi49g1RPgAIfkECDIAAAAsAAAAAIEAQQCD////wMDAAAAAAAAAAAAAAAAAAAAAAAAAAAAAAAAAAAAAAAAAAAAAAAAAAAAAAAAABP8QyEmrvTjrzbv/WiACYkCO5WmmLOquryq3cD3H9G3nfKz/vR1uKCwCiUdj8JdsLp9IqDJKndpA2Kx2y9VKnSOBGGwFiAXk9HeprprHa+S5XY4b6c25/ad37/8jXYKDhIUhfnJjfSZzjYqPaCmOkYh1lTJ4OZMym51wYZCZl1+iNpuSoZ6UjKGAlq+GsbKzWK55n7CLpbtstku6X8Cjw7C8iatpwrC+brTOz9DMprhvyMHU0sYm2pzUyrfWxNwp46DI37/Y4tnk0O7vg+zmeLro6/fb8qzhZfXqy/iY6KtGz9u/cgC3wVvI8MNAf2jsTeOHEE9FiASvURy456LBiAfiNYUMaKuhyZMXsp0KuDJhRW4td8XkeAlmK5Y3XQ5EyROlLYyqCAbFSLPYz49CUykFybTbRpLNjp5bmrRpUFRPddbsyXWh1IrpsoL18bUon5FajYqT6FGs2XZd4z5TSXVo3Zxj1aatyteuVbxvo+L8S7jvXbdQy8hdTOsh0rBO8+5qGxkyVsklHU8VSzQxN8agDZkFipdtYMWjkcY07blj6s18L5+eHLp2l9m4Wwvem5u3Z8y6fQu3TXxLb+DDSR1fHhwT8+TNSRWf7mG234zRf1s/jB26dwnbC8/Mvpe6eQ0R/gAh+QQIMgAAACwAAAAAgQBBAIP////AwMAAAAAAAAAAAAAAAAAAAAAAAAAAAAAAAAAAAAAAAAAAAAAAAAAAAAAAAAAE/xDISau9OOvNu/9aIAJiQI7laaYs6q6vKrdwPcf0bed8rP+9HW4oLAKJR2Pwl2wun0ioMkqd2kDYrHbL1Up/grCzCggLxla0OreOmdvG93dOppvgMnkdqU/b8UtdgoOEhSF7Jm99ZWKKjY9nKY6RiICVKXiTeZCMZ5qSnH+ilyOZoSOaqWKgnqukfq8yhrO0tSCjNotfurG4eJa5rrCJwsDGf8eoxbvLvc7DttHS08aLvGnXydBf1cXZS9/P2rK+1s3Y5+O+bNTt7lzl6eDe8uLrPvGU0Ob66vb4scLFodfv3rZK7xIq7JBvU6uCfOodnKimW79PZAT6o4ipIatOauI0Ghy3sKRJCn8wclT2cKNLUy1HqnQ5EiZImadW6mxysudCZhc5qWo51CFNcSEJgizKVOnIp6WAGm1KVKjTfzsx+dzaTipUdBCzIvWKtYnIstzIigV7dCfXt9JSWq1Kd+nctiTl1qVqt+7Xl3r7CuY7829NuIhneWRp9upavBaNzgsaFq+vyB8nS0bL+U7iz4NwUhacuTNk0VNz3jRtOKo4fqQZt37MDrRtL6xz045lWXfvNL+Dz+Z5u/gt38OTkxGOvPkV5bujGzNOnWFZwhKZU3SJvTL0vNfvFnZOsrr5CxH+ACH5BAgyAAAALAAAAACBAEEAg////8DAwAAAAAAAAAAAAAAAAAAAAAAAAAAAAAAAAAAAAAAAAAAAAAAAAAAAAAAAAAT/EMhJq7046827/1ogAmJAjuVppizqrq8qt3A9x/Rt53ys/70dbigsAolHY/CXbC6fSKgySp3aQNisdsvVSp1VsFVM/ubKYXN6PVaP0W02fO4md+/4vD4kr/v7gHFGdIGEgoZziH+Hi4phe5CRkiCNlUgCmI6McpqdKZgCnoVLoptGoKWpk6usrZanmaiysZmftKGvqrk5s6G9AKi2vrWjxYO7Mb/KxCa/yKZMrdLTeM/AzGTBxqln1tqH39zbKanhX+bj6VfU7O0fueg28TLz1o2d9SP5zdj22/j9kgWUN1AcNHcIE16Ad+saLjn7DNphOKzinIj+DgG0iFHgQ2gZ0mUoHKmwkbNtJ0GqE2myIUWHEu+1tPiyo8qDJHOyqxNuGceGPukVDEmKJ7agSIEeHbryy8WlP6PCDCosJiedWF1BZHrzh02rJp5+BAuTKCejY83yS9v0ata3kWZOVSo1KduuuRDZnVuXLtk6ev3u3as2EdzDel5WXdKT618kG4XelUy5sEyUUJs0nmz5EeLPXbxlTlm2LV4fosdS1ee485vUlEl/dR0NtG0stHObZrlb92mNvh//rn27OAfYg132XllOsHPOyw8if85XOCLj2DVE+AAh+QQIMgAAACwAAAAAgQBBAIP////AwMAAAAAAAAAAAAAAAAAAAAAAAAAAAAAAAAAAAAAAAAAAAAAAAAAAAAAAAAAE/xDISau9OOvNu/9aIAJiQI7laaYs6q6vKrdwPcf0bed8rP+9HW4oLAKJR2Pwl2wun0ioMkqd2kDYrHbL1Up/grCzCggLxla0OreOmdvG93dOppvgMnkdqU/b8UtdgoOEhSF7Jm99ZWKKjY9nKY6RiICVKXiTeZCMZ5qSnH+ilyOZoSOaqWKgnqukfq8yhrO0tSCjNotfurG4eJa5rrCJwsDGf8eoxbvLvc7DttHS08aLvGnXydBf1cXZS9/P2rK+1s3Y5+O+bNTt7lzl6eDe8uLrPvGU0Ob66vb4scLFodfv3rZK7xIq7JBvU6uCfOodnKimW79PZAT6o4ipIatOauI0Ghy3sKRJCn8wclT2cKNLUy1HqnQ5EiZImadW6mxysudCZhc5qWo51CFNcSEJgizKVOnIp6WAGm1KVKjTfzsx+dzaTipUdBCzIvWKtYnIstzIigV7dCfXt9JSWq1Kd+nctiTl1qVqt+7Xl3r7CuY7829NuIhneWRp9upavBaNzgsaFq+vyB8nS0bL+U7iz4NwUhacuTNk0VNz3jRtOKo4fqQZt37MDrRtL6xz045lWXfvNL+Dz+Z5u/gt38OTkxGOvPkV5bujGzNOnWFZwhKZU3SJvTL0vNfvFnZOsrr5CxH+ACH5BAgyAAAALAAAAACBAEEAg////8DAwAAAAAAAAAAAAAAAAAAAAAAAAAAAAAAAAAAAAAAAAAAAAAAAAAAAAAAAAAT/EMhJq7046827/1ogAmJAjuVppizqrq8qt3A9x/Rt53ys/70dbigsAolHY/CXbC6fSKgySp3aQNisdsvVSp1VsFVM/ubKYXN6PVaP0W02fO4md+/4vD4kr/v7gHFGdIGEgoZziH+Hi4phe5CRkiCNlUgCmI6McpqdKZgCnoVLoptGoKWpk6usrZanmaiysZmftKGvqrk5s6G9AKi2vrWjxYO7Mb/KxCa/yKZMrdLTeM/AzGTBxqln1tqH39zbKanhX+bj6VfU7O0fueg28TLz1o2d9SP5zdj22/j9kgWUN1AcNHcIE16Ad+saLjn7DNphOKzinIj+DgG0iFHgQ2gZ0mUoHKmwkbNtJ0GqE2myIUWHEu+1tPiyo8qDJHOyqxNuGceGPukVDEmKJ7agSIEeHbryy8WlP6PCDCosJiedWF1BZHrzh02rJp5+BAuTKCejY83yS9v0ata3kWZOVSo1KduuuRDZnVuXLtk6ev3u3as2EdzDel5WXdKT618kG4XelUy5sEyUUJs0nmz5EeLPXbxlTlm2LV4fosdS1ee485vUlEl/dR0NtG0stHObZrlb92mNvh//rn27OAfYg132XllOsHPOyw8if85XOCLj2DVE+AAh+QQIMgAAACwAAAAAgQBBAIP////AwMAAAAAAAAAAAAAAAAAAAAAAAAAAAAAAAAAAAAAAAAAAAAAAAAAAAAAAAAAE/xDISau9OOvNu/9aIAJiQI7laaYs6q6vKrdwPcf0bed8rP+9HW4oLAKJR2Pwl2wun0ioMkqd2kDYrHbL1UqdVbBVTP7mymFzej1Wj9FtNnzuJnfv+Lw+JK/7+4BxRnSBhIKGc4h/h4uKYXuQkZIgjZVyApiOjEianUuYAp6FKaKbh6CliJOrrK2Wp5mosrGZKbOhr6q5X7cAvai2tLijxCapn8K+ycAjvbuFrdHSec9GzLDDpscj2zbXZN/VusVN4WHm2uLT6+yU5DnoMvHB2d124vTltUjz73L2/UwEVFYP3792CBNaMChw2T5s9uoAdFjw3MOIjxgS3DgQ3kWNX9AUilQozhk5k+nIpUKJiCVITiWT5XLp79DIm+xmXvxFkWPPfC8H6azHM1RRn0Z3fqzZpNO3o1B/Nlua0ibOq65OUp1Yseo9rV25YhQKdqy8rUGxql0VM6lbpHCjhk1Lqm3cnnI30oXJNK9fqV4brR28R+NTtFOJIg78z7DSuYnPQmZs07HiyXoj731DuHOXtIffhjYrEfRjuECZ5jI7mmVH1Y88y86ymTRsspRt5xZcu/dtGbODfzAtGq/M37yRR/771vcb4neLN1euTbh1DRH+ACH5BAgyAAAALAAAAACBAEEAg////8DAwAAAAAAAAAAAAAAAAAAAAAAAAAAAAAAAAAAAAAAAAAAAAAAAAAAAAAAAAAT/EMhJq7046827/1ogAmJAjuVppizqrq8qt3A9x/Rt53ys/70dbigsAolHY/CXbC6fSKgySp3aQNisdsvVSp1IgRhsBYgF5PQ3pa7+zm0jfO2mm+L4eT08tuOXXYGCg4Qhe2UpcHomimONaItmjn2Hfz5+X48ympyUjJNomJU5lmWaiaCSkKmoq6GjsFeFs7S1H6KIMZGZnqW+bLh5vbyvucZ4v5W7bsvHwaS20dLSz8y9zU3Y1cfJptfD1sXdyNvZ3+LE48HT7O2D5UvafOLyzrES8PPC9OD2/jLq9PmJVC+gEXcIE4LIJ+ecqjQFGTKRmIMgq3AGyd1L1+ohx40g5O8oHEnSAsURp0I+jKiS1MlPrsal/Lfu5cp++zy2rFSyZ0mJFmN2EpoqaEZAQB0OvUk0ZkebLnfC3FS0alOmVNFJZeKzK8KkWmlihHppK0uxNs6Oy6i2XFuVXuOys7m0rlWsZA/SvWv36syjSABP7YuVcF6uchPTOmw0nsPDSLdWfCwQJU7IIwRn3eyYX1jN0BSLfie58uCLUzGXAa1LKWqdaNeqhl2Ycuxyo3MHms279JXet31rDE6cdXHdyL0IB24cIPPnW5tDLx46uXUOzAm/pR44O9/X050v12d4/L/r6DVE+AAh+QQIMgAAACwAAAAAgQBBAIP////AwMAAAAAAAAAAAAAAAAAAAAAAAAAAAAAAAAAAAAAAAAAAAAAAAAAAAAAAAAAE/xDISau9OOvNu/9aIAJiQI7laaYs6q6vKrdwPcf0bed8rP+9HW4oLAKJR2Pwl2wun0ioMkqd2kDYrHbL1UqdVbBVTP7mymFzej1Wj9FtNnzuJnfv+Lw+JK/7+4BxRnSBhIKGc4h/h4uKYXuQkZIgjZVyApiOjEianUuYAp6FKaKbh6CliJOrrK2Wp5mosrGZKbOhr6q5X7cAvai2tLijxCapn8K+ycAjvbuFrdHSec9GzLDDpscj2zbXZN/VusVN4WHm2uLT6+yU5DnoMvHB2d124vTltUjz73L2/UwEVFYP3792CBNaMChw2T5s9uoAdFjw3MOIjxgS3DgQ3kWNX9AUilQozhk5k+nIpUKJiCVITiWT5XLp79DIm+xmXvxFkWPPfC8H6azHM1RRn0Z3fqzZpNO3o1B/Nlua0ibOq65OUp1Yseo9rV25YhQKdqy8rUGxql0VM6lbpHCjhk1Lqm3cnnI30oXJNK9fqV4brR28R+NTtFOJIg78z7DSuYnPQmZs07HiyXoj731DuHOXtIffhjYrEfRjuECZ5jI7mmVH1Y88y86ymTRsspRt5xZcu/dtGbODfzAtGq/M37yRR/771vcb4neLN1euTbh1DRH+ACH5BAgyAAAALAAAAACBAEEAg////8DAwAAAAAAAAAAAAAAAAAAAAAAAAAAAAAAAAAAAAAAAAAAAAAAAAAAAAAAAAAT/EMhJq7046827/1ogAmJAjuVppizqrq8qt3A9x/Rt53ys/70dbigsAolHY/CXbC6fSKgySp3aQNisdsvVSp1IgRhsBYgF5PQ3pa7+zm0jfO2mm+L4eT08tuOXXYGCg4Qhe2UpcHomimONaItmjn2Hfz5+X48ympyUjJNomJU5lmWaiaCSkKmoq6GjsFeFs7S1H6KIMZGZnqW+bLh5vbyvucZ4v5W7bsvHwaS20dLSz8y9zU3Y1cfJptfD1sXdyNvZ3+LE48HT7O2D5UvafOLyzrES8PPC9OD2/jLq9PmJVC+gEXcIE4LIJ+ecqjQFGTKRmIMgq3AGyd1L1+ohx40g5O8oHEnSAsURp0I+jKiS1MlPrsal/Lfu5cp++zy2rFSyZ0mJFmN2EpoqaEZAQB0OvUk0ZkebLnfC3FS0alOmVNFJZeKzK8KkWmlihHppK0uxNs6Oy6i2XFuVXuOys7m0rlWsZA/SvWv36syjSABP7YuVcF6uchPTOmw0nsPDSLdWfCwQJU7IIwRn3eyYX1jN0BSLfie58uCLUzGXAa1LKWqdaNeqhl2Ycuxyo3MHms279JXet31rDE6cdXHdyL0IB24cIPPnW5tDLx46uXUOzAm/pR44O9/X050v12d4/L/r6DVE+AAh+QQIMgAAACwAAAAAgQBBAIP////AwMAAAAAAAAAAAAAAAAAAAAAAAAAAAAAAAAAAAAAAAAAAAAAAAAAAAAAAAAAE/xDISau9OOvNu/9aIAJiQI7laaYs6q6vKrdwPcf0bed8rP+9HW4oLAKJR2Pwl2wun0ioMkqd2kDYrHbL1UqdVZlgDLYCxoKyerkOf9FtI/xLR8bvubkbqTfXjV2BgoOEIXt+fGR9Z4qNaXCLkGR/d3iHYo6Yj5mSaSmdlogmoXegn5yoniOml5SFr7CxIJS0iaqijLekrrW4S4tvk63DV727q8K4wMSVss7Pz8bGkclqy76Xx9gm1LrB3sxf2qXV103m0nbQ6+yC6du55Lro4Xbv8vin4PDi95T0cspV86euncGDHggqE7hp3w+A41JEvNQt3reJZjBaY2gxDESFCOlDisQA8leme6z4hdFosuG4lCxHxAzoEuXJehlH6hRZMkZFUEBTdeQ2EKeMmZqSBnW5dKhTkEj1KRXaFOZHZjuzHuxp46rKrkW/HuWalGyesOOiInNI1mszrXCjGb1YlapdtnNlmvV5N15dpmih7gULuLDfvm6NxV0sa/BDji3L5s3o+Oy8wGsli+03eeNlvEQ/q73CuDShyram1syMuljnfxytYt5s7zXF2DdDj2ZiuneX1ruBB7dNW+zw4seb+F7uhXhy4BKhO5c+ivpz58yzf7Bu+bBh7nqn3zYM0/p1mt7Tgx+lvX2GCAAh+QQIMgAAACwAAAAAgQBBAIP////AwMAAAAAAAAAAAAAAAAAAAAAAAAAAAAAAAAAAAAAAAAAAAAAAAAAAAAAAAAAE/xDISau9OOvNu/9aIAJiQI7laaYs6q6vKrdwPcf0bed8rP+9HW4oLAKJR2Pwl2wun0ioMkqd2kDYrHbL1Uqd1Z9gDLYCxoKyOrcOf1PotjH+dvvqZvyZrM/R7Xk+XYOEhYYZfYBiZH8mcY+MkWlwknJqlok2kJMjm3tpnpSgfIpfmKUxoZ2Vno2fr5lNh7O0tSCxuKmkgY67p7wSucBLrl/FqMC/yn6+xs3Il7bS09PCysdmrtjLd9DW28S+4N7dw+Saz9ni6dxX1O/whNax2uzhnObJ89D1+Grj+ZjsC9jPEsB28RIqxDLQoD1do/wdtIaQ3kN0EWVMPBeMo0V/9+lgrQLpUdDCkygrNHSW8VullSMqKlIVUJTImkhkAqN57WVJdymDnoQ5Z13GVqySSrxoSWeTgkiPKr1JlSLRRUulan0VVSNTPULDKrzKjCROdWaVOQ1JFqLTtUg2nvWaNpbYu+/aFt3ata/PuWz0YuU61e/Wq3DREuZbeCpivJBrCWY78qnRxDIws6RrOavmmJPjXqbcq+7PyKhnhVZsk6dchJ93Xnb99XTsf7P/Vj3NJrXvLqtvBxfOu3hA4oCNq/3NPEvw58pTIJ8umHr060aaa/8AXbFh6ybAd15MvnvH5OjJdzW/vb2GCAAh+QQIMgAAACwAAAAAgQBBAIP////AwMAAAAAAAAAAAAAAAAAAAAAAAAAAAAAAAAAAAAAAAAAAAAAAAAAAAAAAAAAE/xDISau9OOvNu/9aIAJiQI7laaYs6q6vKrdwPcf0bed8rP+9HW4oLAKJR2Pwl2wun0ioMkqd2kDYrHbL1UqdVbBVTP7mymFzej1Wj9FtNnzuJnfv+Lw+JK/7+4BxRnSBhIKGc4h/h4uKYXuQkZIgjY0Cl46MhWeVhZcCmaF1onKfpJqoMpOrrK2dh6amKbGYtKCym7kmp022Mr7AmK+IvEu+s7XJt8rFcq3P0HnDlsKl1amNzbDXZLjYhdrd3F/e4WfR6Okf09agxuMx5eyD8+LuSPLx8N9v9eT7vwAiu8fPjrqDCC34C5NvTDCC5kZENNKwF7OKC3dltAjx37KPE9dVJRyJcGOOY7oAoCy4JORAlQLbweyYklNNhsyGrQxHsmc6kyPKPZxJdKjQmAVDHgVp9GLOoEiJATWxtKhTplcD0mQp0adXVzcpRq2HMaXSsWGJbjy7NVzZpF/jSpqq1SrWu3bz0nUJFW9Tv0+50kv7DrDhvDvXyl2sh+5Jbm/V9uWrkTBOiJGrOpa42YZmfJDRCmZMGk/nH1V3Rl57+jHmrC9bc7a87TXe2LSblN7tJbfs0V8oC9/7e3hu3sjX+b6MOOvq48Vf/tW7fDBwmdMTVxeZvDuGCAAh+QQIMgAAACwAAAAAgQBBAIP////AwMAAAAAAAAAAAAAAAAAAAAAAAAAAAAAAAAAAAAAAAAAAAAAAAAAAAAAAAAAE/xDISau9OOvNu/9aIAJiQI7laaYs6q6vKrdwPcf0bed8rP+9HW4oLAKJR2Pwl2wun0ioMkqd2kDYrHbL1Uqd1Z9gDLYCxoKyOrcOf1PotjH+dvvqZvyZrM/R7Xk+XYOEhYYZfYBiZH8mcY+MkWlwknJqlok2kJMjm3tpnpSgfIpfmKUxoZ2Vno2fr5lNh7O0tSCxuKmkgY67p7wSucBLrl/FqMC/yn6+xs3Il7bS09PCysdmrtjLd9DW28S+4N7dw+Saz9ni6dxX1O/whNax2uzhnObJ89D1+Grj+ZjsC9jPEsB28RIqxDLQoD1do/wdtIaQ3kN0EWVMPBeMo0V/9+lgrQLpUdDCkygrNHSW8VullSMqKlIVUJTImkhkAqN57WVJdymDnoQ5Z13GVqySSrxoSWeTgkiPKr1JlSLRRUulan0VVSNTPULDKrzKjCROdWaVOQ1JFqLTtUg2nvWaNpbYu+/aFt3ata/PuWz0YuU61e/Wq3DREuZbeCpivJBrCWY78qnRxDIws6RrOavmmJPjXqbcq+7PyKhnhVZsk6dchJ93Xnb99XTsf7P/Vj3NJrXvLqtvBxfOu3hA4oCNq/3NPEvw58pTIJ8umHr060aaa/8AXbFh6ybAd15MvnvH5OjJdzW/vb2GCAAh+QQIMgAAACwAAAAAgQBBAIP////AwMAAAAAAAAAAAAAAAAAAAAAAAAAAAAAAAAAAAAAAAAAAAAAAAAAAAAAAAAAE/xDISau9OOvNu/9aIAJiQI7laaYs6q6vKrdwPcf0bed8rP+9HW4oLAKJR2Pwl2wun0ioMkqd2kDYrHbL1UqdVbBVTP7mymFzej1Wj9FtNnzuJnfv+Lw+JK/7+4BxRnSBhIKGc4h/h4uKYXuQkZIgjY0Cl46MhWeVhZcCmaF1onKfpJqoMpOrrK2dh6amKbGYtKCym7kmp022Mr7AmK+IvEu+s7XJt8rFcq3P0HnDlsKl1amNzbDXZLjYhdrd3F/e4WfR6Okf09agxuMx5eyD8+LuSPLx8N9v9eT7vwAiu8fPjrqDCC34C5NvTDCC5kZENNKwF7OKC3dltAjx37KPE9dVJRyJcGOOY7oAoCy4JORAlQLbweyYklNNhsyGrQxHsmc6kyPKPZxJdKjQmAVDHgVp9GLOoEiJATWxtKhTplcD0mQp0adXVzcpRq2HMaXSsWGJbjy7NVzZpF/jSpqq1SrWu3bz0nUJFW9Tv0+50kv7DrDhvDvXyl2sh+5Jbm/V9uWrkTBOiJGrOpa42YZmfJDRCmZMGk/nH1V3Rl57+jHmrC9bc7a87TXe2LSblN7tJbfs0V8oC9/7e3hu3sjX+b6MOOvq48Vf/tW7fDBwmdMTVxeZvDuGCAA7;" parent="1" vertex="1">
                    <mxGeometry x="1542" y="278.5" width="129" height="65" as="geometry"/>
                </mxCell>
                <mxCell id="25" value="youth" style="swimlane;childLayout=stackLayout;horizontal=1;startSize=30;horizontalStack=0;rounded=1;fontSize=14;fontStyle=0;strokeWidth=2;resizeParent=0;resizeLast=1;shadow=0;dashed=0;align=center;" parent="1" vertex="1">
                    <mxGeometry x="710" y="278.5" width="160" height="120" as="geometry"/>
                </mxCell>
                <mxCell id="26" value="+ appetite = 26&#10;+ care = 40&#10;+ thirst = 45&#10;+ health = 8" style="align=left;strokeColor=none;fillColor=none;spacingLeft=4;fontSize=12;verticalAlign=top;resizable=0;rotatable=0;part=1;" parent="25" vertex="1">
                    <mxGeometry y="30" width="160" height="90" as="geometry"/>
                </mxCell>
                <mxCell id="27" value="" style="shape=image;verticalLabelPosition=bottom;labelBackgroundColor=#ffffff;verticalAlign=top;aspect=fixed;imageAspect=0;image=data:image/gif,R0lGODlhhQBFAPEDAP8A/////8DAwAAAACH/C05FVFNDQVBFMi4wAwH4AAAh/h1HaWZCdWlsZGVyIDAuNSBieSBZdmVzIFBpZ3VldAAh+QQFMgAAACwAAAAAhQBFAAAC/YSPqcvtD6OcMtiLs968ey984kiWRommaai27nYGwizTc3jXuM3vvg7MCXtB4vB3LCKNTFYsCW0qp9GllSqtYq+5wDML5oa3ZK15rPUCXuy2+436iudltJ1+xkvVlnxdD/gn6OfHN3h3GEiIuOi0BgcZKekil2jZeMmo6di3manoiYlpKBpqCooqaDjJ2up6UVmamjNQG1A7cGuLq5vLK/sJRHoazGu8i+xrC8xMMzxLfKw83VvdDM35qr39Fkvs9+sZjm35HIw5bpl+repNDr4sHv+OuMp9j0/ifi61TuMfAqC1b2PMsdMiMOE8IAIPEjFI8IrCXEkm8gtkL5/+xo0Y9jn80VAexYhkINKTuJBdyJPCPJKklTJaTJZJMnK8ic8lzX8zGSYjs/Jiy0cfgfaESQ3h0ZfOdApFajRpv6U7HTnDifXVDKcqf3alFpSdyac8pZKTNrDq0E5qoYYdg/YtOZtZ607iSlKuIL1i8bLkC5cq2WxFlY78K7goXbuMuxFlivKwUMBz/U5OjIhysLGFyw5O+7lmjMak4Vgumi6uV8+d6XCG7FOyarOgW0953Za159mxQxccXTr4i9N5FwbVrJg4YtmCkZPE7Tug8eaYc2cTjl2F8s/OrZfcjrp69HLgi0u2nfxR9vX6HntHD7tQ+ffxn88fD5/lYvYp/Du6x18ffVdAlx+A3hEYoIHj7YcdC/1ZAFx/Dj5IQYUWXohhhhoCUAAAIfkEBTIAAQAsMwAXAB8AIwAAAoaUMxkme+xaGhHOiKFVbFP9hBJ3BOaJpupqgo2biZUM16L90nrD9v6JQyguuOCFuDMOSbnm78lCOo/MmECKoX52WI9w64RAx8Cd9dwxB11rtYxMboeT7rldjn7DoVjt9+/Rt0ThF1jlV3hwsQflpQT25WgmOCBpB6iowPiEByPVKfNZdyZVAAA7;" parent="1" vertex="1">
                    <mxGeometry x="723.5" y="410" width="133" height="69" as="geometry"/>
                </mxCell>
                <mxCell id="28" value="adult_eel" style="swimlane;childLayout=stackLayout;horizontal=1;startSize=30;horizontalStack=0;rounded=1;fontSize=14;fontStyle=0;strokeWidth=2;resizeParent=0;resizeLast=1;shadow=0;dashed=0;align=center;" parent="1" vertex="1">
                    <mxGeometry x="1370" y="-40" width="160" height="120" as="geometry"/>
                </mxCell>
                <mxCell id="29" value="+ appetite = 33&#10;+ care = 40&#10;+ thirst = 45&#10;+ health = 20" style="align=left;strokeColor=none;fillColor=none;spacingLeft=4;fontSize=12;verticalAlign=top;resizable=0;rotatable=0;part=1;" parent="28" vertex="1">
                    <mxGeometry y="30" width="160" height="90" as="geometry"/>
                </mxCell>
                <mxCell id="32" value="" style="shape=image;verticalLabelPosition=bottom;labelBackgroundColor=#ffffff;verticalAlign=top;aspect=fixed;imageAspect=0;image=data:image/gif,R0lGODlhgQBBAPECAP///8DAwAAAAAAAACH/C05FVFNDQVBFMi4wAwH4AAAh+QQEMgD/ACwAAAAAgQBBAAAC/YSPqcvtD6OcLlhgA7556w5y4jd6ZkimZ4muaguX7hy/7G3nNL7r9dwL/oY8oq+IPKoozKbzCXUaTYIqoCq4WrHa7PSbFIZ/YhX3vE17x2xl+d2CX9BZelfuBufbpqj/DxhYEcald2eIyJeo8VbI57gXiTcZNwXZaLVIqcgn6PkJSvFzedlCqnbIKalZyXO6pvN6V6q6uXoRJDuaOYdKewtsGzpMXDzzK7wLm1w7dcwbbIjM2szzvEztNl0dbW38DQ5lCs2sYbfdnR50XU7lS57dTjaOzT2LGp8fFs7fH0EvjxA8e/qWACyYa6A6hB3YMXSlMOBCXP4qWjxwkGDarzr4NE5049DjPY71Pkrsk9HkuYgPTV586S9lO3QnWxqQGY+mTYQhVbIUuZMizKHGlAnTCTSpQYglMTUNarJVrJ/aqNZU2oeo1mGW3pEceTVqLadgVz7FChWlwK9mU4l9O2mr3E+a7KS9u69uR7h4JR3dGzawobmEAXVAagZwX8EyDlsFiJgxX1yOz079ujiz0MKcm1Rmh8wu2tEgP0OOKHqy6nWmS6R2h5m0ZCCda4tyrXgjWM2rpcJ2+/s179mgUXudPbyh7eUQkstOi/y59KW9p0dnxDz7ggIAIfkEBDIA/wAsAQAFAD8ANwAAAv2MYYGXqy0iiGJKaituUCbOhI+Yldh5eeT2ja4Dd1o61yWosArA9/4PDAqHxCAutlK9jjqTMnOMHprS3BNVkVWR1iyJeaXBMMWy+Vzeyri3r3s5jajj3hf1zdbi1+B6fk+HJjiItnUHh8iG1fah+DSXuLbYknj4Fxk4eUDI2flj+AiIOQqFZwl56SgA6ofqmlThKcvJmvraxVhaGUpa20RRe5uqiTtrXGjKa5vspxMsuozL16Iabf37dKxd9NwLfUrdZ40K3igu3M22vW70rUz+LgLfCj09Oj8Oa83O3yO8CFDMrX9iAtoYWC9TwYX0SPXrh05fuWgR7QhMiKjiQJiL3hI95JdO3ERIISXG61jS4kGM6j6uw9YszMqOl2BujDkzHyKb9pw01AnD5bqekjgCrUJUYU6NOJLiInb0TQEAIfkEBDIA/wAsAQAFAEMANwAAAv2MYYGXq92EBFLQWa/N8PDEhI/olNmJpdvUKR9YtjGJrraGyy/A9/4PDAqHxOJshDzmSDqWR2WSyKY0Z7JpiUC1Auq1mmWCozeu8YxOn73KnZkNf3bFX5eVrIwnK3o8Nk/XNqFGWJjW5xaICPWyGFYHCFmzBMOWCOmIs2PI2QmU2RcayKcoF3kqajeHaZqKOjroKcsJWsq6tyVXe/uqSqmx23s6aTZrTBjs+vcGwnspvNzaPHynPMascKy9Zvtrjft4lNxtWS0yzlseLrPdPuT6jC5OLp1+bQtvbu/b5+7/800To4Hr8NEDJ/AGsYMBJznMte+fRB4B/8RjeJBaQ5mMLSqOuRhx4j95ZkD2ImnKpB6UvlR2E+kP268dCyN6kUnzTk1odHDq/LnRZiCY7qIh3OkRiVE8SDn2vHcUIs9bBQAAIfkEBDIA/wAsBQAFAEMANwAAAv2MYYGXq92EBFLQWa+FrL/kOSL3KdmJpVtIOu3LHqg1a2NcAvrO9/4PDAqHtxzMNDkWbUoQbhlJPluZphP6rE5DWmOICA6LidZcl5mVImkq19asRnvXolq3XI+fqfr2eQwYKIa394Y1lydAGIfXyCWxuILoOCkzIYiZ6RN52MnHBupWSUfZaafGWap0KqnpqplqqPqoaFg46plWi3ubi/v5GhwY+2vrh2rcOgsXepfsC80qIkwNRgy9yuhxvZx4yC2r21lNHlTaCz53rl1M+rauHO6OW17f0y0tTYl/3Ny2L89bvn8B7RnE9gydvG7AFLZjSEsOwhwH7WWLx4tgNztRSxx21Djx4kQbHpVUrCeyITuSK4+kjNirBkBEMUFGCVXqZDlONf1h9MVzpb6ATjLihGlTXgEAIfkEBDIA/wAsEQAFADsANwAAAv2MYYGXqy0iiGJKamvbLPX3OSJGXqYWcp6oskdZwZkL1sCN5/rO9/6fawlfkqENUkx5jkoFxkibGaGtZzNqZSqA3K63Vz1JiSjt2JmshWNiZBmbPjvWs6yc7o5+9/xfnnoFaJP1F2hohrd0dxglKNcHGQnHRtnImLiSJ+PoSBgiY8d5ZSdZ+lWIeMnoifYmmmrGughrSUtqiuv3KRaqGptGt+lbexbcNgx1m7us0xn3Ojm3+oy8W+bsWj0Yx9yNA91LiyotTkacTJ05nV3equfdDa3JS89Ofm5dVz97D74Pmk4EvHjaooWrJW/UsXYJf1WCNpBZwxEL8bWaOM8eLDoBGM0d3BhRYkFh2x5am0iSosmSKCtmjBYyV0d3KV8uaWfQpUdgBV8eJFkAACH5BAQyAP8ALBEABQA/ADcAAAL9jCEJFnspkIIyUspcy/ywjHnPRFplpaXdJn7oil6nHMF2C+T6zvf+Dwz+Qg1aiqjCIW+sANIIUjCPUhzzeYrWrMpqM/kVisdk8ZL7hZ2LXrBm7Z7C4Ss62j1vT8v8Plkbo3c3BcgECDWY+GXnYsQYd/foN0nJ80ioSLWVZnCZicm2CebJWQoZelqpSollIgqaytj68pkp24ZoClt4t+pbxou6ayvYFEyrWyuMdkyaegzzKy0kV/wcaf2B/aqMl63tzZ08juw2fe4D66z2bUwsfr08rt4eW5+Bnq8zjOo4c9+CXyBXA8uBEuiPYK54+hoKZEfwYcBuEA1SBCexHz1Acg3zZdRkcVG7j4fqMSI5IuK2VB3RoRSpUl45CC9BzmqWoGZJUTdTtnR5kVzCcBp0dlFojYhRmAUrMigAACH5BAQyAP8ALA0ABQBDADcAAAL9jCEJFnspkIIyUspcy/x01mDeM5WWWWnqt45gyl6ofEbs7arAzvf+DwwKh0RRCJUxtjYkWw7HDChpKiUU9sxGp8jm8mvVfonksvmMjX6v4aNTDW2vxXJ5XHHNe2N4MQsNGHiWNNMH50dnOPdCZYd46LaoQViTJqkXiSm4yQnkCHmZ+Lb4GQrKN3qX+mgKpnjVGcvJVampWcpAa2kraqqLy0rZKksMKHwczArMqLjcuoycmXy6x1p8Xcb2Ou26Cqnt3YpqCi6uvA2KrS50i/7sDtUeLm/+Us6r5pyxzu+Dn9Ko0LxH/wJWovIPBDeDALtQS9cvYsIcCLnFs0jRYUS9JRPzaeyoI2I/kMJKQcPosVYvTCS9mISXQ+RIlN0s6YrWMqXNZjzf5Kyi8Wa1BjL5/RxXUeeHoxkPumvDVGdSoN4KAAAh+QQEMgD/ACwJAAUAQwA3AAAC/YxhgZerAgEUMs5Km2Zc7eR1zniV1pmJ3/it7mFSMcaqdqgA+s73/g8MCocvHK1Ye0SQRSZseUseo03qM2VEXpzZw/ALDotJqKkSK91epdUzTe3WQuNWXGMGN6fneu74DziW50coMnhz2KXIFpWY5Fi4uAIpEmh56XNXRinZyNf2VhbJSNcJEirzWUfaF4X5esnJOiqbULvqdxugO7vKCwv8p5lK3GtKhgaKp3osl3wzjGo8/Rts/eU8ncuclD3qXQfe7Mu9cn0etP08Xmqsrm1YDk2+Ti2/iJ7fQ7vZX/wNgp20Zf9wdeBXjGArgfoawls0A6AiicgWPnRAMRo9Lz8O9VGMaLBdi5AVN64BhdCiOCkd86V0BNIIp5fcYlZESc+izWhIWqL76G9PQVNAE9YUFY6kRqQymZIqAAA7;" parent="1" vertex="1">
                    <mxGeometry x="1540" y="-12.5" width="129" height="65" as="geometry"/>
                </mxCell>
                <mxCell id="33" value="adult_duck" style="swimlane;childLayout=stackLayout;horizontal=1;startSize=30;horizontalStack=0;rounded=1;fontSize=14;fontStyle=0;strokeWidth=2;resizeParent=0;resizeLast=1;shadow=0;dashed=0;align=center;" parent="1" vertex="1">
                    <mxGeometry x="1370" y="118.5" width="160" height="120" as="geometry"/>
                </mxCell>
                <mxCell id="34" value="+ appetite = 33&#10;+ care = 40&#10;+ thirst = 45&#10;+ health = 4" style="align=left;strokeColor=none;fillColor=none;spacingLeft=4;fontSize=12;verticalAlign=top;resizable=0;rotatable=0;part=1;" parent="33" vertex="1">
                    <mxGeometry y="30" width="160" height="90" as="geometry"/>
                </mxCell>
                <mxCell id="36" value="" style="shape=image;verticalLabelPosition=bottom;labelBackgroundColor=#ffffff;verticalAlign=top;aspect=fixed;imageAspect=0;image=data:image/gif,R0lGODlhgQBBAPECAMDAwAAAAP///wAAACH/C05FVFNDQVBFMi4wAwH4AAAh/h1HaWZCdWlsZGVyIDAuNSBieSBZdmVzIFBpZ3VldAAh+QQEMgD/ACwAAAAAgQBBAAAC/5SPqcvtD6OcDlhhAb556w5y4ncFpmAG6JmuatuG5OzVsj3itM7fft6BsYYvoqsHTNJ+yxyyCX3WhMXqkSplZpU8ivcLDovB2jI3eDLTsLGzO6o2xOe5NrxutG/v/C69f6MXx5b2tnfYMaa4yNhYYfh3FFi4RnllFJnppNknWGKJphJ6KQpp2od4KolXWtlKugqoquVYa3tLwTmVx2vlGYWlq5sK3AsbbIgsuyxFzEPoazyIOVu9g4udnS38+TrtnQxq7ew8Cd4pjn5ersru6vwrFc+Nqm1/v0h/bKx8OD8ex92uaARhRfrHLJLAUdD2rdOCcCEXfBQr5gLYzV86jfMPMaLSF3GUrpAe/ZQkqQHls436aFl8CVMBSH7SxqlseUFiSpoFR7IsSWtmwYY+OyZsFzMpTJzvmK40qrNGVHNTudwsWbUpUKs/j9ZTChafU5Fbi0F1mnVgWqpjJ7bdefZk17Rh69p7q9bpVa8m+X5LuzfqWlaA5+K1ixgXXrY2LfU7vJhwUbWBFUbWylfP47JSE3tuhLdfQ6Jc4/rNGZoaXIcGSw/ekdoKQ56xnr7u/Dm3GL2GOVceV9h01N98g99mfJqZ7uVk5PbkPFs29E3OWye3vfn6jeE1tRPOTpe5eAmXj09XXj79+WbqvbsXPD5+gwIAIfkEBTIAAgAsGQAhAD8AGwAAAp6UFXkGvQ+jPCm8BmS9bvpvbAumKWMHppB4kOoLx6V1ZrLKMuiTC+4N6v14ptYOOBEekczmQmlrQmFTZxVX1EWZV6f3tul1U2MSJpxFpIfk9dHcQNMo7m17ruVk2N8+Ea/3F8PWU1NoZHfoQZhm2IgoCMMIWONn6bHBdymoqWbRuRmi0Jm5FEr3aXrap+ij6tV69pgXGhs362rnZwtQAAA7;" parent="1" vertex="1">
                    <mxGeometry x="1540" y="146" width="157.54" height="64" as="geometry"/>
                </mxCell>
                <mxCell id="37" value="adult_dancer" style="swimlane;childLayout=stackLayout;horizontal=1;startSize=30;horizontalStack=0;rounded=1;fontSize=14;fontStyle=0;strokeWidth=2;resizeParent=0;resizeLast=1;shadow=0;dashed=0;align=center;" parent="1" vertex="1">
                    <mxGeometry x="1370" y="441.5" width="160" height="120" as="geometry"/>
                </mxCell>
                <mxCell id="38" value="+ appetite = 33&#10;+ care = 40&#10;+ thirst = 45&#10;+ health = 25" style="align=left;strokeColor=none;fillColor=none;spacingLeft=4;fontSize=12;verticalAlign=top;resizable=0;rotatable=0;part=1;" parent="37" vertex="1">
                    <mxGeometry y="30" width="160" height="90" as="geometry"/>
                </mxCell>
                <mxCell id="39" value="" style="shape=image;verticalLabelPosition=bottom;labelBackgroundColor=#ffffff;verticalAlign=top;aspect=fixed;imageAspect=0;image=data:image/gif,R0lGODlhhQBFAPEBAP///8DAwAAAAAAAACH/C05FVFNDQVBFMi4wAwH4AAAh/h1HaWZCdWlsZGVyIDAuNSBieSBZdmVzIFBpZ3VldAAh+QQEMgD/ACwAAAAAhQBFAAAC/YyPqcvtD6OcEtiLs968ex984kiWRommaai27nYCh3zOdo2Ht57T/O8L7oS9obGIBM5olqMySXxKo1RnFWrNxrbY7lT79V7D5HGQ+Uqr12wTC2wWyAFyAX1ev9vzebhf/AeEFkjFh3e4h6hnRtgIyNX0OGWYWLlIySiZWWaF1vYJGtrCxdnTZ6p4CqS62eo4Nag5wzqbOjdEK6tbKkjqepIbghm8+PrLS+UpuszcHBmJzEpsJX27e4wdG20tzN1abWcsLqb97T0NBY49jqzs/A6f5guHjozrzb4OVU6Pf30f7p/AMvzE1NPXLaC9ga3cxXsIUcQ8g+f8lVGXL2P+j4IXKyo09/GgxoVvSm4LaTGOR4Qs4TiMCDPmM2zEhtn6WAsnw5EzCdW8eSmlyJ3XOKrUmTCopZ9IWxItKTNq1Ikdm+YbStIpVJopr3Z9ytIota9Zc2o9O8QHC6lsnSGAdrQQWbkorYI1JhZVU6xBMN4Fm3eV0LkA+xL+2y5G28VuTYIsds2m3bKAqcblWxgTT56B6ULOKhkt4pmMS4uyPHYyS8yjO6FOdxh0bNGJHfdTbYw15awvTft+8boq7c/D83VOPVx38X3B4/JUvpn52t/UgduOvDK02ei7kzW/bXipou2tK1+XXVcpcejlYSmuDn/Fea7pkXNfvtVrfdhNuNtn+07RfpPMdh8hvcWHIAcAnoRfgwYu+FiB/rkEIXgSdmfcewluqOB8Fzo4ISQgYhgibxWWOOJZB8I3HYcabtgijBTMSGONNt6IYwEAIfkEBDIA/wAsEwAHADcANwAAAv2MYYGXqwIBFDLOSu9tibOvNJpFZiXmOF4IpqMJo2/aAPaN5/rO9/1KO2xasyHrEem0gEbXqSlKKoNHFPMprTZ93K6XB4xSxNQyWRwWZq3LNnKsFqTfTnh1zqZ/9/yfO2/2hzcxuIZ3SARRaBd4JxjXFynZCAj1SIf212TpqLVGqPlpeFkZMXnqtVhWhMWY2QlIxhpzJRfqCjkbC4na6wfLSYn4pjosnGgLPAprTOb7nFO7uky5qYg8jcsM+VqXfezJeAFNXn3SjP2iGmw8u07d3lpOXkyKTnwLrt8tfa8/Ps9XPG37kA0suA1fwl0LVQUUaI9bLnlnphyURVFiKod/omLMqKjgYS9/1giCVBERk8ZvK0h2NEdQJCp/J2laTMkQoU2VDd0UAAAh+QQEMgD/ACwbAAcANwA3AAAC/YxhgZcg7+ATkc6Km06sq3aF0miRy+dt6IqJ5dtC6gnU9o3n+s73M2hyxWBC1e8gTAaXFKOHpiQyh7RG74rN7mZRavcCbHJY32k3fOKa11KxAnzQyuc8tdvLziBlYyj/nXe252bn14YHg2ZFx8hYWFh2p9g3SRb4Z5j2BGd5WLSJ2Sgq9/iExlkFSqia2qnHUsqReQSYaMq6OKpbh3sL69v6GhtMSzyo6VqsDIy666wzvPw7bRgNLB08YU2NXfj8bbP9Osv8J45amW3em8yufgcOfj6FzTl/WL/e7vrJfZwbb5e4bu7G7DPm76BBcgkRMqQR8FkxVJEeOqFGMU8tuovvMgmq5TCis3yS3KFLce1fuTsnV5B0mLEkC5ECUzYciPKmTYu+COoEKa0AACH5BAQyAP8ALCMABwA7ADcAAAL9jGGBl6sCARQyzkrvbTyxr3SPRWYlhoqOyh7a+ZqyQzfAjef6zvf+j2uFXLDiLJYCCWnIphG1UYJqxOPTOVMBt9xub4mFXk+NqIc6sqrF63LEM3Wvw2E5zYvP/8DvKvuPZAc3RJiUBjhGIQiHZog4R+Zno0dZyac4RRdZaHbZqJmV2XemYsaU6LioUMma5+lp+spYOvq52agqW2gXGyd50BrMpYvruyuKSYpcfNxsm0y8JL08KWzNE23MvD2R7Tzt3K3d+63teY2u4536Gz66Ts7O+T5eq3qa/HyXzg//BG7IXxtz7QT+AWiKX796+QB6W+eQmhR3DQmWO6RFITY6hLVA4WPGMZ/HeyJCfqzTrpHGjRY/Eos3aBtJiRiNRaxJ0aW2ldduyqQJsqXPmc2GCk0ppAAAIfkEBDIA/wAsLwAHADsAMwAAAv2MYYGXqy0iiGJKaivGLXUGPmFGbtepSZ/ntGtrpnKJugeA5/rO9/4PzL2GB84oRnoZWUSRYgmrQSEqj9N2nRal1Ww3CA6Lf81ohXoelaGUMtqMjb/R7m36+a3j76Sx/w+kl6RGeLUWIahlWChnl5jHKPgGSFnZ6MWneDm495gJuYhp5gknaQdnmTpGqsQ1o9kWedr66hoXG1p6ZItEq/oLxiqbeyggTDx8i5isaZqLARzdU6zMd5xB7evMic0IC7rJJiFNLsRcs/0WQ9p8Xmvszr2NBF1Ofp3uvYy8t5nfGe9fuHH2pM0DJxCXv1nJPB201lBfhYIGI4pSZ2uOIJWFF0/R+7IkIUheI/lQjCbyE8SOTlLqegbKpUaYKwsAACH5BAQyAP8ALDsABwA7ADcAAAL9jGGBl6stIohiSmorxi11Bj5hRm7XqUmf57Rra6ZyiboHgOf6zvf+D8y9hgfOKEZ6GVlEkWIJq0EhKo/Tdp0WpdVsNwgOi3/NaIV6HpWhlDLajI2/0e5t+vmt4++ksf8PpJekRni1FiGoZVgoZ5eYxyj4BkhZ2ejFp3g5uPeYCbmIaeYJJ2kHZ5k6RqrENaPZFnna+uoaFxtaemSLRKv6C8Yqm3soIEw8fIuYrGmaiwEc3VOszHecQe3rzInNCAu6ySYhTS7EXLP9FkPafF5r7M69jQRdTn6d7r2MvLeZ3xnvX7hx9qTNAycQl79ZyTwdtNZQX4WCBiOKUmdrji6VhRdP0fuyJCFIXiP5UIwm8hPEjk5S6noGyqVGmCtPorRYjeMlgTN1ruCJU08BACH5BAQyAP8ALEMABwAzADcAAAL9jGEBwtssXISyJnRu0of6B04hpnDldiqfyFYrCZvATNf2jef6fb3++IvIUCqgsRWMZVCuYxM5Gh521Kq1lsw6ew2TFgq2dLrLwPeJpnCF5av7fVOPw+e10kwu0p1y/b2fxhc1dwdn+AZoV9eWaNDot5gilvIYGCZTeahJVamYV2jn9Yk5KEnKRjnKWApKKLMJi9PZJmXqWjZrq1v4mNu6G9oWO0zjW/sL02dMy7yrrArcjAxITFx5DZ0MjY2q3X36l809nV09PP5yHJz6TZguvU6CznqcaQ67HC2Zm48cL9pOH7mAMO7Bihdp0i+EgrrlY7jHYbZXBjWBq/fp4R0qghD9Mfm30ZtHBRUtwjvpR10ZlQL7ERnJa2KzAgAh+QQEMgD/ACw7AAcANwA3AAAC/YxhAcLbLFyEsiZ0rk750P+Ek4gpm9lxZQWOLtucqwzU9o3n+s7zVwt7AYGy0480RCojxdRRuAxKmyhF74rN7pLQ7tQTS5W4UjLlOUuZo2Q0VQuP985g75pZT1fpins53Aeox/dnR+ImdiG3yEiI5ifjqCb4yEaZRyUZaPgSeVnFGBqnuUKUKEaakJq3Ctra+gXqiSd7IHp7Bfv29vqp98vrqyp8WmtsUYyrvEV8vIv6qZv8vDnYDDwNTbuy3G1DCn7du43oKt4cTo6ZDOvtnR6LXZ3p25Y9Xwxv6rx+7N4tjZ85dcYCyit1bRjBg8EW0vinrFwhZPgElpAIqR8sQw4VJxIyqAgirlkHPyZ0oq2kIJAcETrUyNKKyFvUVL4UWLPhRmM52Z00VgAAIfkEBDIA/wAsKwAHAD8ANwAAAv2MYYEnDS2egzJSmpbK/KS+MdNokdUJaiqYZpf5lvLq1eEN5PrO9/4PDP5SGNspRlMUca0PbqlCQl2OJtMZrRql2mc3CRaKx2QxNXIGW1EitJHVzrqvdLbya03r3/z73K52UDZISLZXt7Y21XcYiNgHmBeXCKmIB1mYqcnTuPjoJ+eo0Xn5CeiZRPpHCdq4tgmb6RrHNUNUmjq5BcO7qvs5C1ob+Ssae1wWLMpKTKfMbOnrXAxdSY2JnB2EihodysqN6/1sEy4tCtVtpM3uk6ZuOsz6Lm4tbDJPWx/fuyzYDjAHOVPj7A30VwfeqGsE7TULExDgrXPVvFC0MRGhQ0aFTixqZMbxX0R2Be/NSLcvV8Ivw1BenLbyT0uWKVOMbFfy4UFJMb9BCgkTjEt0NbHdzAayaENgDoF+ZNRU6VM6BQAAIfkEBDIA/wAsJwAHADMANwAAAv2MYYEnDS2egzJSmpZKubMJWmFFeht3puQ1smJkasBM1/aN5/odY0fmKv0+sCFH5lMFk0iHqec0rkbQomqHzWprwKiCGas2rV2rUBUmjjXldRqtbme29LpNLn3L9Ek8/L+XF4dyFgio52enWJcIJqjkddYYiTj45TVpVnlpxrT4iZXYtkQl1We5RvpiKIk62lIKaQZKiyP6yMqH6Yq76UboeNhrGllrTBNc6MuUlJys2+nlTDnM+atwfPyqWZ0au53brcqm9iwOO5tdeyvcfs0e7u4H7wsto75OzC2PeyobD1AMin/1zqXD98keuCDsFJZDd40cIGYQKe5DSMuhHTWNhjia2/jIIzWCuDAmNBiw20CAH1OmWDbSpaECACH5BAQyAP8ALCcABwAvADcAAAL9jGEBwtssXISyJnTSvbS/P4GYsmnk4YVqlY7uBcTyTNf2jbvtLvJRqWH1hqsWkEMUFpPAnPMJVUp9UuTPQM0yUY2Edgm2cK+KqPksVnyn3fGIYmWH4W5vW51cx2Hofo5+gjcn0gQIqJNHmFGHdYc4uFLo6EdpcygZuRj4+OaImfaimXYpaiT6yVepCtrUelp6R7rpOgtLJhtaq8uZukqJS5srbAX8uhsMUXxsLEzhq4ob7WnbScZLjRw7Ldi8fV32/OtNFbzXaB1nusxth+6mPswIHt6nHL8ra1+OranPjCqKnh9z3MjJy0VQDihlCfUcbCKwD0B8jhjyo2jN4hYme4fsRUSzbx0rYyHvjdRVMps7XQUAACH5BAQyAP8ALB8ABwA3ADcAAAL9jGEBwtssXISyJnSuTvnQ/4STiCmb2XFlBY4u25yrDNT2jef6zvNXC3sBgbLTjzREKiPF1FG4DEqbKEXvis3uktDu1BNLlbhSMuU5S5mjZDRVC4/3zmDvmllPV+mKezncB6jH92dH4iZ2IbfISIjmJ+OoJvjIRplHJRlo+BJ5WcUYGqe5QpQoRpqQmrcK2tr6BeqJJ3sgensF+/b2+qn3y+urKnxaa2xRjKu8RXy8i/qpm/y8OdgMPA1Nu7LcbUMKft27jegq3hxOjpkM6+2dHotdnenblj1fDG/qvH7s3i2Nnzl1xgLKK3VtGMGDwRbS+KesXCFk+ASWkAipHyxDDhUnEjKoCCKuWQc/JnSiraQgkBwROtTI0orIW9RUvhRYs+FGYznZnTRWAAA7;" parent="1" vertex="1">
                    <mxGeometry x="1540" y="467" width="133" height="69" as="geometry"/>
                </mxCell>
                <mxCell id="40" value="adult_bunny" style="swimlane;childLayout=stackLayout;horizontal=1;startSize=30;horizontalStack=0;rounded=1;fontSize=14;fontStyle=0;strokeWidth=2;resizeParent=0;resizeLast=1;shadow=0;dashed=0;align=center;" parent="1" vertex="1">
                    <mxGeometry x="1370" y="780" width="160" height="120" as="geometry"/>
                </mxCell>
                <mxCell id="41" value="+ appetite = 33&#10;+ care = 40&#10;+ thirst = 45&#10;+ health = 20" style="align=left;strokeColor=none;fillColor=none;spacingLeft=4;fontSize=12;verticalAlign=top;resizable=0;rotatable=0;part=1;" parent="40" vertex="1">
                    <mxGeometry y="30" width="160" height="90" as="geometry"/>
                </mxCell>
                <mxCell id="42" value="" style="shape=image;verticalLabelPosition=bottom;labelBackgroundColor=#ffffff;verticalAlign=top;aspect=fixed;imageAspect=0;image=data:image/gif,R0lGODlhgQBBAPECAP///8DAwAAAAAAAACH/C05FVFNDQVBFMi4wAwH4AAAh/h1HaWZCdWlsZGVyIDAuNSBieSBZdmVzIFBpZ3VldAAh+QQEMgD/ACwAAAAAgQBBAAAC/YSPqcvtD6OcLlhgA7556w5y4ncJJmAK3hqSWoqeLTvSro3j817z7wnz4WDBnvEmFOqOS2SNKGPOoKqk9OrUULbcrvfbtWabK2pMVRybzWJy240lr4FRNR19h4/bHb1/msfGNIdXFcfHBKa4yNhYcQh5Q3gmF5iHuBf3F1lmWVj5KZg56rdJChh6OehJiWm64hgrO0vhalvCmkY5eXua2Ps6qStc9wpszNlBbPiT+gl8TCs9PQ3NubybW2ztq8Xthx2+nUzuXR6s7Zz9fB5N/Q6v+N2mC1zfzonc3cms34q/r8+8OPcC4uo3kFS8hQxrAQTFD12/gv6UJBxSjKLpkGHjDO6rSDBjR4jKRl7s0zClSgUnn5g8uI7kwzctJb1sFnPjTZA3eMq0o04nwpmJVhpVWTOmxnOifM5w6jIoUZxLPeZIymtqTq1Pj3pdiJXVxaZJodqUahXVv7SawqL1SZbrha903yUtOZTtWbNk+Kp16/eX3L2A79aoi5iWYcJMVel9FRiov7iPaQ7GmBec48g5EntutBiz0nRrOT8NrVbcW9RzWe9VvbVyvs+0wbgenVmoacGySWXdV5Xz7teb6e0sWzs5l9vMLwt0Dr23v+HUm2tRjl2C9erRDWz/rpW7dPA9s5tvUAAAIfkEBDIA/wAsJQABADcANwAAAv2MYYEnDS2WSrJS+BxN+1yHdZNHKlhYitWplZbLRipA1/aN5/q+q3EWQY2GwOKPAwMpgy3ihwktIom/o+tpXFZ43K5X59NanQyxdroyR1XYajMcHb9Maunhi8/3ruX4uZ+1lsJH5ydYGGg3xAboJtNYN6M3OcmI6JiIKWKZWYcpJMH56RnpQnmKJ9o0xwo3p/pIJssKiubKiQsoicq7R7VaS5gWq3irK2yMaHusjJxEDNornZNMWzorVO0ql6z9nAi7NT1O07aaO2sOpd7qjK3Gjt7+a0huH+8+PxyIn57PDqGfPnmY7I3z5i/hvmXNFMrDwlDRwH/MDB4Uxo1iM8NQGP84/Lap46GJ9FhZlBZuVL1gi0R2WunxlUuVL/Wd7BXuIaSRESFqrBnyHTGC1yQUAAA7;" parent="1" vertex="1">
                    <mxGeometry x="1140" y="809.5" width="129" height="65" as="geometry"/>
                </mxCell>
                <mxCell id="43" value="" style="endArrow=classic;html=1;" parent="1" source="4" target="7" edge="1">
                    <mxGeometry width="50" height="50" relative="1" as="geometry">
                        <mxPoint x="340" y="330" as="sourcePoint"/>
                        <mxPoint x="390" y="280" as="targetPoint"/>
                    </mxGeometry>
                </mxCell>
                <mxCell id="44" value="" style="endArrow=classic;html=1;" parent="1" source="7" target="10" edge="1">
                    <mxGeometry width="50" height="50" relative="1" as="geometry">
                        <mxPoint x="425" y="350" as="sourcePoint"/>
                        <mxPoint x="480" y="210" as="targetPoint"/>
                    </mxGeometry>
                </mxCell>
                <mxCell id="45" value="" style="endArrow=classic;html=1;exitX=1;exitY=0.5;exitDx=0;exitDy=0;" parent="1" source="10" target="26" edge="1">
                    <mxGeometry width="50" height="50" relative="1" as="geometry">
                        <mxPoint x="219" y="375" as="sourcePoint"/>
                        <mxPoint x="285" y="375" as="targetPoint"/>
                    </mxGeometry>
                </mxCell>
                <mxCell id="46" value="" style="endArrow=classic;html=1;" parent="1" source="26" target="13" edge="1">
                    <mxGeometry width="50" height="50" relative="1" as="geometry">
                        <mxPoint x="870" y="360" as="sourcePoint"/>
                        <mxPoint x="295" y="385" as="targetPoint"/>
                    </mxGeometry>
                </mxCell>
                <mxCell id="47" value="" style="edgeStyle=elbowEdgeStyle;elbow=horizontal;endArrow=classic;html=1;exitX=1;exitY=0.25;exitDx=0;exitDy=0;entryX=0;entryY=0.5;entryDx=0;entryDy=0;" parent="1" source="26" target="19" edge="1">
                    <mxGeometry width="50" height="50" relative="1" as="geometry">
                        <mxPoint x="630" y="320" as="sourcePoint"/>
                        <mxPoint x="680" y="270" as="targetPoint"/>
                    </mxGeometry>
                </mxCell>
                <mxCell id="48" value="" style="edgeStyle=elbowEdgeStyle;elbow=horizontal;endArrow=classic;html=1;exitX=1.004;exitY=0.624;exitDx=0;exitDy=0;entryX=0;entryY=0.5;entryDx=0;entryDy=0;exitPerimeter=0;" parent="1" source="26" target="15" edge="1">
                    <mxGeometry width="50" height="50" relative="1" as="geometry">
                        <mxPoint x="960" y="520" as="sourcePoint"/>
                        <mxPoint x="1010" y="470" as="targetPoint"/>
                        <Array as="points">
                            <mxPoint x="920" y="430"/>
                        </Array>
                    </mxGeometry>
                </mxCell>
                <mxCell id="50" value="" style="endArrow=classic;html=1;exitX=1;exitY=0.75;exitDx=0;exitDy=0;" parent="1" source="19" edge="1">
                    <mxGeometry width="50" height="50" relative="1" as="geometry">
                        <mxPoint x="1180" y="250" as="sourcePoint"/>
                        <mxPoint x="1370" y="216" as="targetPoint"/>
                    </mxGeometry>
                </mxCell>
                <mxCell id="51" value="" style="edgeStyle=elbowEdgeStyle;elbow=horizontal;endArrow=classic;html=1;exitX=1.011;exitY=0.169;exitDx=0;exitDy=0;exitPerimeter=0;entryX=-0.009;entryY=0.35;entryDx=0;entryDy=0;entryPerimeter=0;" parent="1" source="18" target="29" edge="1">
                    <mxGeometry width="50" height="50" relative="1" as="geometry">
                        <mxPoint x="1180" y="270" as="sourcePoint"/>
                        <mxPoint x="1230" y="220" as="targetPoint"/>
                        <Array as="points">
                            <mxPoint x="1260" y="80"/>
                        </Array>
                    </mxGeometry>
                </mxCell>
                <mxCell id="52" value="" style="endArrow=classic;html=1;exitX=1.009;exitY=0.806;exitDx=0;exitDy=0;exitPerimeter=0;" parent="1" source="13" edge="1">
                    <mxGeometry width="50" height="50" relative="1" as="geometry">
                        <mxPoint x="1500" y="470" as="sourcePoint"/>
                        <mxPoint x="1370" y="381" as="targetPoint"/>
                    </mxGeometry>
                </mxCell>
                <mxCell id="53" value="teen_bunny" style="swimlane;childLayout=stackLayout;horizontal=1;startSize=30;horizontalStack=0;rounded=1;fontSize=14;fontStyle=0;strokeWidth=2;resizeParent=0;resizeLast=1;shadow=0;dashed=0;align=center;" parent="1" vertex="1">
                    <mxGeometry x="970" y="780" width="160" height="120" as="geometry"/>
                </mxCell>
                <mxCell id="54" value="+ appetite = 33&#10;+ care = 40&#10;+ thirst = 45&#10;+ health = 12" style="align=left;strokeColor=none;fillColor=none;spacingLeft=4;fontSize=12;verticalAlign=top;resizable=0;rotatable=0;part=1;" parent="53" vertex="1">
                    <mxGeometry y="30" width="160" height="90" as="geometry"/>
                </mxCell>
                <mxCell id="55" value="" style="shape=image;verticalLabelPosition=bottom;labelBackgroundColor=#ffffff;verticalAlign=top;aspect=fixed;imageAspect=0;image=data:image/gif,R0lGODlhdQBFAJEAAAAAAMbGxv///wAAACH/C05FVFNDQVBFMi4wAwEAAAAh+QQFLQADACwAAAAAdQBFAAAC/pSPqcvtD6OMoYoarsU687+FntiV4Iia5KmmLNfG70q7tXzP9h7jvO4LAoe5Im+CTCqXTIoxCIgKooCplJihWqtarPAJ8wK15OuzzDX/wOzMd52Vot/berdNBzb3/L7/IEYyN6hWQpiGmIfHophyaFfI8TgXCBfUaCinmXjnuAmZWIkJ81dqerogKvk5yerKGbmIN2rRCnsLmqsq67Ybh2ub++iLiWp87EccvPxaRyxK+yvczBzKW6xMrQ3c/DyLDB4+kV3lbdkZTZeObh7Dfu21Hmsp+k5/LZ6vn4qHPnzzz1M5eE8w+esGEKHAdPHqFQroTmGmgfcqltiHcZ9D/oq6as3rKG0Vx3aMNk505nFkSpQhV5K8YfDhJ5ERrbW8yRBmxp3gTNI8qFIa0JMvj/hcOZQFJZdMLUI7KlRmUJAsqxa9yDMrKqjTpv6cKejj1ZgcISqVSPNqyX5SqZ7F9TanJa10S5Gjs/ScWIJGr9mraTWhV7497nrJC2Wv04J1G+9pV62rW8INCUeOrLYg5G2SzVJm7Dh0kqt/DyuWe4n06TGrP/ddzKP0mdaw1Ym+LWFzWdpVZdeu/Ltp4NhtM8/VTXT27sHB5+J+7gA5YtZwXauTDlZv9ebYLKMVPJl7POjkFRjvnX046qfW0yIt3h7f+aFJ49cujx+Q/fD8Fs/rmZ/eV8ytp9l+0703oH8k5IdfAQAAIfkEBS0AAwAsFQAFADcAOwAAAv6MZYGXqw2ZfNO5SLPFu3L8eaIWkpWApurKtu77csAszEBNl5aN3zxY4Qlzox1teANqkL2OScH8nWDUqrXViB63ySC3yUxkv9rukow2j33ppqwdPlzn9NihDIbr2er7Ps8HKCglNviHh9dQt8i4ZhiI+CfmB3loGTgJdfnIScj4SeeoM1okOulWmvpk1Kdp5gRLevYKWkvlmViUO4vbprPL2lv5+jYMy2Ob3CKM6nr8ZerKzFzcbG0zTeRcTU2p/K2S/erp2C2tLRjNeo2O3Q7tzf0+TgMOLm4tj+mFvR63CmwNPnL80hW0903dL3iroinUxTBWvFMEAUZcSAthMkp9nTYp8bcpErFT5UJKmqKxFkaJDSc+WSnr2cgMMFXJZJlyY8GHFunNrMbzJk+gLnGas5BTZcF/Bp0xzQRyn9N5TS8sjcg0oIECAAA7;" parent="1" vertex="1">
                    <mxGeometry x="1540" y="805.5" width="117" height="69" as="geometry"/>
                </mxCell>
                <mxCell id="56" value="adult_kutchipatchi" style="swimlane;childLayout=stackLayout;horizontal=1;startSize=30;horizontalStack=0;rounded=1;fontSize=14;fontStyle=0;strokeWidth=2;resizeParent=0;resizeLast=1;shadow=0;dashed=0;align=center;" parent="1" vertex="1">
                    <mxGeometry x="1370" y="610" width="160" height="120" as="geometry"/>
                </mxCell>
                <mxCell id="57" value="+ appetite = 33&#10;+ care = 40&#10;+ thirst = 45&#10;+ health = 20" style="align=left;strokeColor=none;fillColor=none;spacingLeft=4;fontSize=12;verticalAlign=top;resizable=0;rotatable=0;part=1;" parent="56" vertex="1">
                    <mxGeometry y="30" width="160" height="90" as="geometry"/>
                </mxCell>
                <mxCell id="58" value="" style="shape=image;verticalLabelPosition=bottom;labelBackgroundColor=#ffffff;verticalAlign=top;aspect=fixed;imageAspect=0;image=data:image/gif,R0lGODlhgQBBAPECAP///8DAwAAAAAAAACH/C05FVFNDQVBFMi4wAwH4AAAh/h1HaWZCdWlsZGVyIDAuNSBieSBZdmVzIFBpZ3VldAAh+QQEMgD/ACwAAAAAgQBBAAAC/YSPqcvtD6OcLlhgA7556w5y4jd6ZkimZ4muaguX7hy/7G3nNL7r9dwL/oY8oq+IPKoozKbzCXUahcmZ4Aq4CrJYLXc7DVdbVGXZ2k1vvV6x2W06w6ds9fc+H+s10b7/D1ixJ8fTNmj4NjhFmGiGePaY1wgkyWgSWYU5WdkR6PkJSsFZaPeoeYnVcTpqZklXmnqxKhurMbs56JoJC0bbq2Naq4vLF2p8fMyK+jsMKaz809xyK11CDX1RrXKtSMqMrYMsPv4HvnzHPZmubWCuysv+/t09GW8Nb76uTM7fL0qPZh4xZwLtLcn3DOCrgu6yIWSo0JvBIP4qWlzQ0BbcvojbEg5clBGdnYcTo4Wss8ZjM30cL7p0GXKaSpnMTrEcWFLiwnM0cx5suTOor4A+47w8yi/mPYgda6q8aaloT6EaC0KFI3UpQZ5alRZDCjYZ0F1Mif64mssrV3Uzh6rN2tQSNbT1wtoFpXZqS7pR83bd2/YjD7hmAZc1dzdxIL/AhKHE43ZsPcaFq4p0elhyHMp6LT+WR5iM4tFROP+1DDq1ZpCrDzl+jTm0DNNxVaOOLBgn6d1NaFf+7Vu2o8CQczcTHmQu8be8m0vwDV0z8ujGyVCfLt259gYFAAAh+QQEMgD/ACwZAAUAPwA3AAAC/YxhgZerAgEUMs5Km2Zcpe11DkZeZgSO6Seux0nBpBvWI4Dn+s73/g/s0UaXYarYSn5UIqRt6GQ+WVIiSlmNGg/Brvfbbcii2ub1ca6y0DFLumwjp2lidzvzmpvxbLUIDBj4Bec3ZZilV0O4dQiV6LCIxYjIVyV4iblTdzcj6Rn3uFZiV1h6FEo1htqIFamQCXvpavppVQkyOznpmlu7uxobDLg5euvbukoso1vrqkzKzNo3JFwd5Gh8KJfdWYNNO53HDff9W0lIaK0uhMx9ev5I3g7eXU8MUt78Fv+47p+TT5qtUvK0AXtHMFFAerPS/fNnjt5CfPrcHQtnKGI9NEqlHkK8WE8VPIveQG4rNpDRxpPLxNHzuG7lvpEpP8mkec+lSpMza2LsCNPaxpwGSUoZqnNeNKQ/EUYrAAAh+QQEMgD/ACwRAAUAPwA3AAAC/YwhCRZ7KZCCMlLKXMv8sIx5z0RaZaWl3SZ+6IpepxzBdgvk+s73/g8M/kINWoqowiFvrADSCFIwj1Ic83mK1qzKajP5FYrHZPGS+4Wdi16wZu2ewuErOto9b0/L/D5ZG6N3NwXIBAg1mPhl52LEGHf36DdJyfNIqEi1lWZwmYnJtgnmyVkKGXpaqUqJZSIKmsrY+vKZKduGaApbeLfqW8aLumsr2BRMq1srjHZMmnoM8ystJFeMh2u9Vv0aic29bNz9fS2aNz6N7rP93DUO/WHq/L5YvD4MTu6Wvq9jr8yOD148a/fyrfCXLKFBHPz4wZIn7tRDgv8YTXRXkWI7g4b7LmpCFsgVQI+HvIUcSaxclhEinXFMR5IlSIjhFM6aVVBgLJM4/2V4ia6gOYASM46jCUZoNo0ACwAAIfkEBDIA/wAsCQAFAD8ANwAAAv2MIQkWeymQgjJSylzL/LCMec9EWmWlpd0mfuiKXqccwXYL5PrO9/4PDP5CDVqKqMIhb6wA0ghSMI9SHPN5itasymoz+RWKx2TxkvuFnYtesGbtnsLhKzraPW9Py/w+WRujdzcFyAQINZj4ZedixBh39+g3ScnzSKhItZVmcJmJybYJ5slZChl6WqlKiWUiCprK2PrymSnbhmgKW3i36lvGi7prK9gUTKtbK4x2TJp6DPMrLSRXjIdrvVb9GonNvWzc/X0tmjc+je6z/dw1Dv1h6vy+WLw+DE7ulr6vY6/Mjg9ePGv38q3wlyyhQRz8+MGSJ+7UQ4L/GE10V5FiO4OG+y5qQhbIFUCPh7yFHEmsXJYRIp1xTEeSJUiI4RTOmlVQYCyTOP9leImuoDmAEjOOowlGaDaNAAsAACH5BAQyAP8ALAkABQA/ADcAAAL9jGGBl6stIohiSmpr26yn5zkidJUVhnHg6qhjSJ5mRrv2AeT6zvf+Dwz6bqzYqxhKwTzEY22JVCijLahz6nRhm8Ku99ttGsdWLGr2sZKlkqZ5NhUf3ppyew6/K8D8/tetl6U2yEIBWEcll5gUcSi4CHkl4UdZyeOo+ChyJoOISahpxFlFtQXqONpguUr5GZl56Bp6aicgC0tbOMnK+1c7+4rX+fQhiQisORr3ixupHNgbLaQVuEacXM3EeGxtWpq9Qs0tvAlurCmdPrR9bn2rrTvOduzdDiVuP49cr6run4PvnTNzaeJhk3fwUUBmua65+PdPIDJ39xgG+4ZQhT7EZg6tQPSXiQ4Nkc1CBnpGj2DFgSmHkWz4UZ3JluVolgT1Uh9FSDNr+tyJLqY0jvzIcSy4T6XOhkh7biRUAAAh+QQEMgD/ACwRAAUAPwA3AAAC/YxhgZerLSKIYkpqa9usp+c5InSVFYZx4OqoY0ieZka79gHk+s73/g8M+m6s2KsYSsE8xGNtiVQooy2oc+p0YZvCrvfbbRrHVixq9rGSpZKmeTYVH96acnsOvyvA/P7XrZelNshCAVhHJZeYFHEouAh5JeFHWcnjqPgociaDiEmoacRZRbUF6jjaYLlK+RmZeegaemonIAtLWzjJyvtXO/uK1/n0IYkIrDka94sbqRzYGy2kFbhGnFzNxHhsbVqavULNLbwJbqwpnT60fW59q607znbs3Q4lbj+PXK+q7p+D750zc2niYZN38FFAZrmuufj3TyAyd/cYBvuGUIU+xGYOrUD0l4kODZHNQgZ6Ro9gxYEph5Fs+FGdyZblaJYE9VIfRUgza/rciS6mNI78yHEsuE+lzoZIe24kVAAAIfkEBDIA/wAsGQAFAD8ANwAAAv2MYYGXqy0iiGJKaituUCbOhI+Yldh5eeT2ja4Dd1o61yWosArA9/4PDAqHxCAutlK9jjqTMnOMHprS3BNVkVWR1iyJeaXBMMWy+Vzeyri3r3s5jajj3hf1zdbi1+B6fk+HJjiItnUHh8iG1fah+DSXuLbYknj4Fxk4eUDI2flj+AiIOQqFZwl56SgA6ofqmlThKcvJmvraxVhaGUpa20RRe5uqiTtrXGjKa5vspxMsuozL16Iabf37dKxd1Fc9TXpK/T0W1sp82Z0eiBq+s/0OpL5rDq5MSU6Pbz2OI+8NzY8EvIE9/Al7hsggQGjtFPZiaG8TwYEI98GKVvHgQzpRGRfaifhiIkWINrDZCJiQpJNmYlByYSfGZK52METC0ygtUzmMHvVJ2gkJ58yWG0nZfCfUJc1+PR3mCtr0otMqBQAAIfkEBDIA/wAsIQAFAD8ANwAAAv2MYYGXqy0iiGJKaituUCbOhI+Yldh5eeT2ja4Dd1o61yWosArA9/4PDAqHxCAutlK9jjqTMnOMHprS3BNVkVWR1iyJeaXBMMWy+Vzeyri3r3s5jajj3hf1zdbi1+B6fk+HJjiItnUHh8iG1fah+DSXuLbYknj4Fxk4eUDI2flj+AiIOQqFZwl56SgA6ofqmlThKcvJmvraxVhaGUpa20RRe5uqiTtrXGjKa5vspxMsuozL16Iabf37dKxd1Fc9TXpK/T0W1sp82Z0eiBq+s/0OpL5rDq5MSU6Pbz2OI+8NzY8EvIE9/Al7hsggQGjtFPZiaG8TwYEI98GKVvHgQzpRGRfaifhiIkWINrDZCJiQpJNmYlByYSfGZK52METC0ygtUzmMHvVJ2gkJ58yWG0nZfCfUJc1+PR3mCtr0otMqBQAAIfkEBDIA/wAsIQAFAD8ANwAAAv2MYYGXqwIBFDLOSptmXKXtdQ5GXmYEjuknrsdJwaQb1iOA5/rO9/4P7NFGl2Gq2Ep+VCKkbehkPllSIkpZjRoPwa73223Iotrm9XGustAxS7psI6dpYnc785qb8Wy1CAwY+AXnN2WYpVdDuHUIleiwiMWIyFcleIm5U3c3I+kZ97hWYldYehRKNYbaiBWpkAl76Wr6aVUJMjs56Zpbu7saGwy4OXrr27pKLKNb66pMyszaNyRcHeRofCiX3VmDTTudxw33/VtJSGitLoTMfXr+SN4O3l1PDFLe/Bb/uO6fk0+arVLytAF7RzBRQHqz0v3zZ47eQnz63B0LZyhiPTRKpR5CvFhPFTyL3kBuKzaQ0caTy8TR87hu5b6RKT/JpHnPpUqTM2ti7AjT2sacBklKGapzXjSkPxFGKwAAIfkEBDIA/wAsGQAFAD8ANwAAAv2MYYGXqwIBFDLOSptmXKXtdQ5GXmYEjuknrsdJwaQb1iOA5/rO9/4P7NFGl2Gq2Ep+VCKkbehkPllSIkpZjRoPwa73223Iotrm9XGustAxS7psI6dpYnc785qb8Wy1CAwY+AXnN2WYpVdDuHUIleiwiMWIyFcleIm5U3c3I+kZ97hWYldYehRKNYbaiBWpkAl76Wr6aVUJMjs56Zpbu7saGwy4OXrr27pKLKNb66pMyszaNyRcHeRofCiX3VmDTTudxw33/VtJSGitLoTMfXr+SN4O3l1PDFLe/Bb/uO6fk0+arVLytAF7RzBRQHqz0v3zZ47eQnz63B0LZyhiPTRKpR5CvFhPFTyL3kBuKzaQ0caTy8TR87hu5b6RKT/JpHnPpUqTM2ti7AjT2sacBklKGapzXjSkPxFGKwAAIfkEBDIA/wAsGQAFAEcANwAAAv2MYYGXqw2PmGCKSi2+OqqeMOIzOmajpdnKUd7mvHL5qu0Ng+TnHsAPDAqHxKLxiAzOdqeSrsl82kyWJfT6tEpZ1In1K+kxa+JcWZNMq9ds8Dh8Icdp9DdP4MaWUfv6lY/np9V39yfoRMGmuMiYB2hoB2mGE3IYRSg5iKPjCJdp2bVZxkhaetRZiPoZWQX6qAoLp5rlWnt5YZqruxrKmzcFOIsZW7gVGCnnCwrsuevcaAtDrDeXWslLi7x8JiZcrczK/f1MvvaLaYw9fK1J3Xv+7QHv/rodX1KejzTf7g3J7yebJIGVtFkLd8+gND/6GhIBqNDfEojgBq4LYTFhUcVkVhx6BCIxGkdLISMGvBgjGkGVKBt8/DhtSrp0bmJymSlulU1R35gdlPTS47SRxXLWFHmyJ5d6BociUkrJU56gDp0ipGfLKtZb4LQSfWerAAAh+QQEMgD/ACwpAAUAOwA3AAAC/YxhgZerAgEUMs5Kb2s6sa9sx0VaZhaJT+qFoAOX6IzVqn0A+s73/g8MCne3W8eFjLFWNA6k+DrCjMuadAJNSrM4Zrc2DIvHQO52VOWany8nhfpuy5PudVybnk+jEbL/LwS3R6cnKOMgqFbIR3OUuEgYaXUCA2h5OfilKLmJ8cgJmQn3KRraeYGZSkbaafeFxVgKKnlYF9saWotGodo7xGqqd7UEPCv7SnwbbDx85/tctpvZfOwma016RpuHhK3sdcpdCU2u473tHJ4Ocj4t7prVXnysPV4OLb9M/96iqQ8/J58xdcfukZuHCxwkhPrqqWA4UFong/iEUaJGbZM0K11eMi602KgKR3+SKD5LiKyJxI8RFXYUya9bQ5gqXRY02QulQJLX/q3Es26Wzp9KgsoqAAAh+QQEMgD/ACwtAAUAOwA3AAAC/YxhgZerAgEUMs5Km2Y8qf112HiVEeiknog2JvWOLXsA9o3n+s73/j0LPU40YeoSdCRdRGMSWVRGmZmpCOoU/bbcLu/ZlEWxJEsTXB2mVQdyDIs+hlFuMyzszet99Lk1C8im1re29CcoJ0CIaBgYtwcZiUjWyNhmJ+aRaOk4hgl35dc5Wna3JonqtVjJ6qkYWnjYajSxKnsbeJG6+2NLWvl2BstJvBizQita7Fqawvu8QzUZRskcJO2bSVwthD3sTcrtDE1uA755Hnd9GauGfiiOrH0e/x1VXp5u/8vOqZ/cbpsyefXczZqnBR+0bAf/CWKI690oiPwALlOgcKE2tX7H+s1SxxGTw3W5qH0yGTBJxmcgDXp8WbGltjopi8ikKfHiSpbwBsLUKU8mxYvAfLqs6KAAACH5BAQyAP8ALDEABQA7ADcAAAL9jGGBl6sCARQyzkqbZjyp/XXYeJUR6KSeiDYm9Y4tewD2jef6zvf+PQs9TjRh6hJ0JF1EYxJZVEaZmakI6hT9ttwu79mURbEkSxNcHaZVB3IMiz6GUW4zLOzN6330uTULyKbWt7b0JygnQIhoGBi3BxmJSNbI2GYn5pFo6TiGCXfl1zladrcmieq1WMnqqRhaeNhqNLEqext4kbr7Y0ta+XYGy0m8GLNCK1rsWprC+7xDNRlGyRwk7ZtJXC2EPexNyu0MTW4Dvnked30Zq4Z+KI6sfR7/HVVenm7/y86pn9xumzJ59dzNmqcFH7RsB/8JYojr3SiI/AAuU6BwoTa1fsf6zVLHEZPDdbmofTIZMEnGZyANenxZsaW2OimLyKQp8eJKlvAGwtQpTybFi8B8uqzooAAAIfkEBDIA/wAsIQAFAEsANwAAAv2MIQkWeymQgjJSylzL/PTtMY/yVeY1pVHJhuCrZZh7qrVF0i28A/4PDAqHxKLxWJw1UKtRk0dTaqa9j5Q5lfa0ui40cLXJct8smepFw5DstvsN5Ja35/FTjbfW0/S7Pc/nIgdYNjhYRQOnuMj4h4U4F7UX+eIoFkhp5ocZ43RDCFpyyMlYano0mgmpGeqV2qrquaq3GWvLOpt4ustrYlkLi/e6E4YDnAsz7Hr2yLmqXNYrXfpX7cwJrWa9NBks2g257XudmV0yjQ7XF1wsDO61/szcbS5S+J48D1zfkO7PFo/cuHvH4KXhN9BdwS8Bb71C+C9ikYbesOHTdvAiXDJc5Chu9EhKokgg8hay02iwHEqVJneUrEgQ5pSRNE/eacbNWMKP9kC1+3np1oeXv1jhlJmh5kiintrxpMQ0Z0KE4SzeDLpTYA+lIjcaWom0Z1SOQjsK/NpSq4sCACH5BAQyAP8ALBkABQA/ADcAAAL9jCEJFnspkIIyUspcy/ywjHnPRFplpaXdJn7oil6nHMF2C+T6zvf+Dwz+Qg1aiqjCIW+sANIIUjCPUhzzeYrWrMpqM/kVisdk8ZL7hZ2LXrBm7Z7C4Ss62j1vT8v8Plkbo3c3BcgECDWY+GXnYsQYd/foN0nJ80ioSLWVZnCZicm2CebJWQoZelqpSollIgqaytj68pkp24ZoClt4t+pbxou6ayvYFEyrWyuMdkyaegzzKy0kV4yHa71W/RqJzb1s3P19LZo3Po3us/3cNQ79Yer8vli8PgxO7pa+r2OvzI4PXjxr9/Kt8JcsoUEc/PjBkifu1EOC/xhNdFeRYjuDhvsuakIWyBVAj4e8hRxJrFyWESKdcUxHkiVIiOEUzppVUGAskzj/ZXiJrqA5gBIzjqMJRmg2jQALAAAh+QQEMgD/ACwRAAUAPwA3AAAC/YxhgZerAgEUMs5Km2Zcpe11DkZeZgSO6Seux0nBpBvWI4Dn+s73/g/s0UaXYarYSn5UIqRt6GQ+WVIiSlmNGg/Brvfbbcii2ub1ca6y0DFLumwjp2lidzvzmpvxbLUIDBj4Bec3ZZilV0O4dQiV6LCIxYjIVyV4iblTdzcj6Rn3uFZiV1h6FEo1htqIFamQCXvpavppVQkyOznpmlu7uxobDLg5euvbukoso1vrqkzKzNo3JFwd5Gh8KJfdWYNNO53HDff9W0lIaK0uhMx9ev5I3g7eXU8MUt78Fv+47p+TT5qtUvK0AXtHMFFAerPS/fNnjt5CfPrcHQtnKGI9NEqlHkK8WE8VPIveQG4rNpDRxpPLxNHzuG7lvpEpP8mkec+lSpMza2LsCNPaxpwGSUoZqnNeNKQ/EUYrAAAh+QQEMgD/ACwJAAUAPwA3AAAC/YxhgZerAgEUMs5Km2Zcpe11DkZeZgSO6Seux0nBpBvWI4Dn+s73/g/s0UaXYarYSn5UIqRt6GQ+WVIiSlmNGg/Brvfbbcii2ub1ca6y0DFLumwjp2lidzvzmpvxbLUIDBj4Bec3ZZilV0O4dQiV6LCIxYjIVyV4iblTdzcj6Rn3uFZiV1h6FEo1htqIFamQCXvpavppVQkyOznpmlu7uxobDLg5euvbukoso1vrqkzKzNo3JFwd5Gh8KJfdWYNNO53HDff9W0lIaK0uhMx9ev5I3g7eXU8MUt78Fv+47p+TT5qtUvK0AXtHMFFAerPS/fNnjt5CfPrcHQtnKGI9NEqlHkK8WE8VPIveQG4rNpDRxpPLxNHzuG7lvpEpP8mkec+lSpMza2LsCNPaxpwGSUoZqnNeNKQ/EUYrAAAh+QQEMgD/ACwJAAUAPwA3AAAC/YxhgZerLSKIYkpqK25QJs6Ej5iV2Hl55PaNrgN3WjrXJaiwCsD3/g8MCofEIC62Ur2OOpMyc4wemtLcE1WRVZHWLIl5pcEwxbL5XN7KuLevezmNqOPeF/XN1uLX4Hp+T4cmOIi2dQeHyIbV9qH4NJe4ttiSePgXGTh5QMjZ+WP4CIg5CoVnCXnpKADqh+qaVOEpy8ma+trFWFoZSlrbRFF7m6qJO2tcaMprm+ynEyy6jMvXohpt/ft0rF3UVz1Nekr9PRbWynzZnR6IGr6z/Q6kvmsOrkxJTo9vPY4j7w3NjwS8gT38CXuGyCBAaO0U9mJobxPBgQj3wYpW8eBDOlEZF9qJ+GIiRYg2sNkImJCkk2ZiUHJhJ8ZkrnYwRMLTKC1TOYwe9UnaCQnnzJYbSdl8J9QlzX49HeYK2vSi0yoFAAAh+QQEMgD/ACwRAAUAPwA3AAAC/YxhgZerLSKIYkpqK25QJs6Ej5iV2Hl55PaNrgN3WjrXJaiwCsD3/g8MCofEIC62Ur2OOpMyc4wemtLcE1WRVZHWLIl5pcEwxbL5XN7KuLevezmNqOPeF/XN1uLX4Hp+T4cmOIi2dQeHyIbV9qH4NJe4ttiSePgXGTh5QMjZ+WP4CIg5CoVnCXnpKADqh+qaVOEpy8ma+trFWFoZSlrbRFF7m6qJO2tcaMprm+ynEyy6jMvXohpt/ft0rF3UVz1Nekr9PRbWynzZnR6IGr6z/Q6kvmsOrkxJTo9vPY4j7w3NjwS8gT38CXuGyCBAaO0U9mJobxPBgQj3wYpW8eBDOlEZF9qJ+GIiRYg2sNkImJCkk2ZiUHJhJ8ZkrnYwRMLTKC1TOYwe9UnaCQnnzJYbSdl8J9QlzX49HeYK2vSi0yoFAAAh+QQEMgD/ACwZAAUAPwA3AAAC/YxhgZerLSKIYkpqa9usp+c5InSVFYZx4OqoY0ieZka79gHk+s73/g8M+m6s2KsYSsE8xGNtiVQooy2oc+p0YZvCrvfbbRrHVixq9rGSpZKmeTYVH96acnsOvyvA/P7XrZelNshCAVhHJZeYFHEouAh5JeFHWcnjqPgociaDiEmoacRZRbUF6jjaYLlK+RmZeegaemonIAtLWzjJyvtXO/uK1/n0IYkIrDka94sbqRzYGy2kFbhGnFzNxHhsbVqavULNLbwJbqwpnT60fW59q607znbs3Q4lbj+PXK+q7p+D750zc2niYZN38FFAZrmuufj3TyAyd/cYBvuGUIU+xGYOrUD0l4kODZHNQgZ6Ro9gxYEph5Fs+FGdyZblaJYE9VIfRUgza/rciS6mNI78yHEsuE+lzoZIe24kVAAAIfkEBDIA/wAsIQAFAD8ANwAAAv2MYYGXqy0iiGJKamvbrKfnOSJ0lRWGceDqqGNInmZGu/YB5PrO9/4PDPpurNirGErBPMRjbYlUKKMtqHPqdGGbwq73220ax1YsavaxkqWSpnk2FR/emnJ7Dr8rwPz+162XpTbIQgFYRyWXmBRxKLgIeSXhR1nJ46j4KHImg4hJqGnEWUW1Beo42mC5SvkZmXnoGnpqJyALS1s4ycr7Vzv7itf59CGJCKw5GveLG6kc2BstpBW4RpxczcR4bG1amr1CzS28CW6sKZ0+tH1ufautO8527N0OJW4/j1yvqu6fg++dM3Np4mGTd/BRQGa5rrn4908gMnf3GAb7hlCFPsRmDq1A9JeJDg2RzUIGekaPYMWBKYeRbPhRncmW5WiWBPVSH0VIM2v63IkupjSO/MhxLLhPpc6GSHtuJFQAACH5BAQyAP8ALCkABQA3ADcAAAL9jCEJFnspkIIyUspcyyzj402iNVbayXXNtz3l9SppSwP2jef6zvc+awICZ6chyCAshSJEopGWJDFd05pTdqz5ttwu74nKhlfY2hPcFC/HphlaDSdXi+WT947vrWHztDXephKkBOjHxrJH+LfItpaRBxn5xmhoyDLZWAh4WVepSUllFznqFRUIikpXZYrpaVbG2vmZKSdKeqsX6jjrerpb29uLqEucKlyHm7xjKctoeiXA3LdZBwYhTauqDa3cjYMdXHyYAM4rDl1ufC5G4e2dnh0uBy+ffU09rZ7a7q58nB+PXZl/AfcNnNUKIbJ+yQgmmsPnlAaHoWJJGUOxlihFiY8Y4so4CGIzjApFXvxFC2RElIY8fjQHTCBAP/WsjaQJk+M6VAUAACH5BAQyAP8ALCEABQA/ADcAAAL9jCEJFnspkIIyUspcy/ywjHnPRFplpaXdJn7oil6nHMF2C+T6zvf+Dwz+Qg1aiqjCIW+sANIIUjCPUhzzeYrWrMpqM/kVisdk8ZL7hZ2LXrBm7Z7C4Ss62j1vT8v8Plkbo3c3BcgECDWY+GXnYsQYd/foN0nJ80ioSLWVZnCZicm2CebJWQoZelqpSollIgqaytj68pkp24ZoClt4t+pbxou6ayvYFEyrWyuMdkyaegzzKy0kV4yHa71W/RqJzb1s3P19LZo3Po3us/3cNQ79Yer8vli8PgxO7pa+r2OvzI4PXjxr9/Kt8JcsoUEc/PjBkifu1EOC/xhNdFeRYjuDhvsuakIWyBVAj4e8hRxJrFyWESKdcUxHkiVIiOEUzppVUGAskzj/ZXiJrqA5gBIzjqMJRmg2jQALAAAh+QQEMgD/ACwhAAUAOwA3AAAC/YxhgZerAgEUMs5Km2Y8qf112HiVEeiknog2JvWOLXsA9o3n+s73/j0LPU40YeoSdCRdRGMSWVRGmZmpCOoU/bbcLu/ZlEWxJEsTXB2mVQdyDIs+hlFuMyzszet99Lk1C8im1re29CcoJ0CIaBgYtwcZiUjWyNhmJ+aRaOk4hgl35dc5Wna3JonqtVjJ6qkYWnjYajSxKnsbeJG6+2NLWvl2BstJvBizQita7Fqawvu8QzUZRskcJO2bSVwthD3sTcrtDE1uA755Hnd9GauGfiiOrH0e/x1VXp5u/8vOqZ/cbpsyefXczZqnBR+0bAf/CWKI690oiPwALlOgcKE2tX7H+s1SxxGTw3W5qH0yGTBJxmcgDXp8WbGltjopi8ikKfHiSpbwBsLUKU8mxYvAfLqs6KAAACH5BAQyAP8ALCUABQA7ADcAAAL9jGGBl6sCARQyzkqbZjyp/XXYeJUR6KSeiDYm9Y4tewD2jef6zvf+PQs9TjRh6hJ0JF1EYxJZVEaZmakI6hT9ttwu79mURbEkSxNcHaZVB3IMiz6GUW4zLOzN6330uTULyKbWt7b0JygnQIhoGBi3BxmJSNbI2GYn5pFo6TiGCXfl1zladrcmieq1WMnqqRhaeNhqNLEqext4kbr7Y0ta+XYGy0m8GLNCK1rsWprC+7xDNRlGyRwk7ZtJXC2EPexNyu0MTW4Dvnked30Zq4Z+KI6sfR7/HVVenm7/y86pn9xumzJ59dzNmqcFH7RsB/8JYojr3SiI/AAuU6BwoTa1fsf6zVLHEZPDdbmofTIZMEnGZyANenxZsaW2OimLyKQp8eJKlvAGwtQpTybFi8B8uqzooAAAIfkEBDIA/wAsMQAFAC8ANwAAAv2MYQHC2yxchBKdVBPGtL8/NdtBaRcJVl4YjUp5APJM1/aN59YrnoqbQbF2Ek7v5yPCeEOjwEkEQqHLiu6KzVanSWlXuBVGv8iyEnI8t8hjMzQLj9O8bjY1Zarr22rVkc4HuBKkIGeYBZholwShuOeoBinJRnFomTP5KFbVuKhpNuiUGbiZVnmJOudJCmr6twrJ+frJ2sdVmJp7S1gbVrbryxecxzvMmAaUq3u8RrvrAmS8Jx2NvCqtvOx8bf0Ly93cNirYTZSNOs5cS5zOtG7yPl2efG45KNsk5njvmu++nwJfsXlJ6lmqFi6UPk8I+wh01PBOQoJmDB4iF+4ZDUNK5bBB45hx4bYABQAAIfkEBDIA/wAsKQAFADsANwAAAv2MYYGXqwIBFDLOSm9rOrGvbMdFWmYWiU/qhaADl+iM1ap9APrO9/4PDAp3t1vHhYyxVjQOpPg6wozLmnQCTUqzOGa3NgyLx0DudlTlmp8vJ4X6bsuT7nVcm55PoxGy/y8Et0enJyjjIKhWyEdzlLhIGGl1AgNoeTn4pSi5ifHICZkJ9yka2nmBmUpG2mn3hcVYCip5WBfbGlqLRqHaO8Rqqne1BDwr+0p8G2w8fOf7XLab2XzsJmtNekabh4St7HXKXQlNruO97RyeDnI+Le6a1V58rD1eDi2/TP/eoqkPPyefMXXH7pGbhwscJIT66qlgOFBaJ4P4hFGiRm2TNCtdXjIutNioCkd/kig+S4isicSPERV2FMmvW0OYKl0WNNkLpUCS1/6txLNuls6fSoLKKgAAOw==;" parent="1" vertex="1">
                    <mxGeometry x="1540" y="637.5" width="129" height="65" as="geometry"/>
                </mxCell>
                <mxCell id="59" value="adult_beetle" style="swimlane;childLayout=stackLayout;horizontal=1;startSize=30;horizontalStack=0;rounded=1;fontSize=14;fontStyle=0;strokeWidth=2;resizeParent=0;resizeLast=1;shadow=0;dashed=0;align=center;" parent="1" vertex="1">
                    <mxGeometry x="1370" y="-200" width="160" height="120" as="geometry"/>
                </mxCell>
                <mxCell id="60" value="+ appetite = 33&#10;+ care = 40&#10;+ thirst = 45&#10;+ health = 15" style="align=left;strokeColor=none;fillColor=none;spacingLeft=4;fontSize=12;verticalAlign=top;resizable=0;rotatable=0;part=1;" parent="59" vertex="1">
                    <mxGeometry y="30" width="160" height="90" as="geometry"/>
                </mxCell>
                <mxCell id="62" value="" style="shape=image;verticalLabelPosition=bottom;labelBackgroundColor=#ffffff;verticalAlign=top;aspect=fixed;imageAspect=0;image=data:image/gif,R0lGODlhgQBBAJEAAAAAAMbGxv///wAAACH/C05FVFNDQVBFMi4wAwEAAAAh+QQFMgAAACwAAAAAgQBBAAAC/pSPqcvtD6OcLdggbrYb68+BXkiOZoeKabme6suq7Qy78W3nNL7r9dwL/oY8oq+IPJ4ozKbzCXUahcng4ErFXAfZ7tRbnaq2XbI4XAUr1Shz1b0+r6P0uv3ukLP15D4WvoemExgn2PaHyAWox8hC+Pjjp5gIaSiDh5mpOdFY6DkjWfn5I1o6RtlpyqE6+oZqCTu3OUtLm3rrOsmF2zrIy3qoC5w6HAv62gtcu8xs9/sbGo1c7Gv8zCEtHHr9Sc2WLQDO3dVcbk4xzoelsYi97r5rbeg9Bdiu9Y4fn6xHnxt8bF+4fP4wnDuIcEG6f+PuKVu4xmEqifKWQLRCEFrG2YpAEnpEeJEdQYr6Bgo8JZAkm4ImAUaahtIlRw0s7W08sY2HzZMcP/o0F5JFTn5CYc5cFRSnUaIlVRJLCtCpoaHKflqtBTUmuK2UpDI1kLWotq5kxwqDylJr2ZZczx4ddDWuprBKzbJdK+4tELpR8fq1i5avSLtt77r9Skqu4juCxRp+nBdxmsZ1If9tyTetzsuFMy/+HIVyQMuA9X4RrZbwUpaaI3JejRa07Cao4T3yWqr16Ik3vemOyZunZLizi0cQTVXdYd/IYf/D/dT08971nA83jv1BAQAAIfkEBTIAAAAsKQABADcALwAAAv6MZYGXMr9Um+eNiGmSrCubeRiohZs5QmVJiqUAx/JM1/Z9r24Fgb664wh1wtTldwQWiUQU0tFTol64qvVaazaf2mB3yUteviYyKzoOTg/Ytjun3qLX4GFczb3XzaJ8nf4WKAjY8GQ490V2KAbFmKjXGLkYSTZoeSWX9iFVKNWyh+fJGWZEl1l6pkmpdtkKV/RJCBm70Tf6p3ibKotrq9rgGjyze0rrW3ZcfIvqQRzq+IwiPO20zAermwyZ+1vL3Av+jUEt3Mk4iT7nZy6p7n7+vnqSDl/fbg9M7hpLf+/v14hfvH6TzAm0RzAeO337RCEcCFGVhYP/IlaUOBHjwwWNF40UAAA7;" parent="1" vertex="1">
                    <mxGeometry x="1540" y="-172.5" width="129" height="65" as="geometry"/>
                </mxCell>
                <mxCell id="66" value="" style="edgeStyle=elbowEdgeStyle;elbow=horizontal;endArrow=classic;html=1;exitX=0.997;exitY=0.059;exitDx=0;exitDy=0;entryX=0;entryY=0.5;entryDx=0;entryDy=0;exitPerimeter=0;" parent="1" source="18" target="60" edge="1">
                    <mxGeometry width="50" height="50" relative="1" as="geometry">
                        <mxPoint x="1210" y="160" as="sourcePoint"/>
                        <mxPoint x="1260" y="110" as="targetPoint"/>
                    </mxGeometry>
                </mxCell>
                <mxCell id="67" value="" style="endArrow=classic;html=1;entryX=-0.009;entryY=0.139;entryDx=0;entryDy=0;entryPerimeter=0;exitX=0.997;exitY=0.16;exitDx=0;exitDy=0;exitPerimeter=0;" parent="1" source="14" target="37" edge="1">
                    <mxGeometry width="50" height="50" relative="1" as="geometry">
                        <mxPoint x="1121" y="539" as="sourcePoint"/>
                        <mxPoint x="1180" y="550" as="targetPoint"/>
                    </mxGeometry>
                </mxCell>
                <mxCell id="70" value="" style="edgeStyle=elbowEdgeStyle;elbow=horizontal;endArrow=classic;html=1;exitX=1;exitY=0.75;exitDx=0;exitDy=0;entryX=0;entryY=0.5;entryDx=0;entryDy=0;" parent="1" source="15" target="57" edge="1">
                    <mxGeometry width="50" height="50" relative="1" as="geometry">
                        <mxPoint x="1170" y="660" as="sourcePoint"/>
                        <mxPoint x="1220" y="610" as="targetPoint"/>
                    </mxGeometry>
                </mxCell>
                <mxCell id="71" value="" style="edgeStyle=elbowEdgeStyle;elbow=horizontal;endArrow=classic;html=1;exitX=1.004;exitY=0.85;exitDx=0;exitDy=0;exitPerimeter=0;entryX=0;entryY=0.5;entryDx=0;entryDy=0;" parent="1" source="26" target="54" edge="1">
                    <mxGeometry width="50" height="50" relative="1" as="geometry">
                        <mxPoint x="1170" y="500" as="sourcePoint"/>
                        <mxPoint x="940" y="670" as="targetPoint"/>
                        <Array as="points">
                            <mxPoint x="900" y="610"/>
                        </Array>
                    </mxGeometry>
                </mxCell>
                <mxCell id="72" value="" style="endArrow=classic;html=1;exitX=0.992;exitY=0.145;exitDx=0;exitDy=0;exitPerimeter=0;entryX=0.007;entryY=0.131;entryDx=0;entryDy=0;entryPerimeter=0;" parent="1" source="53" target="40" edge="1">
                    <mxGeometry width="50" height="50" relative="1" as="geometry">
                        <mxPoint x="1450" y="770" as="sourcePoint"/>
                        <mxPoint x="1500" y="720" as="targetPoint"/>
                    </mxGeometry>
                </mxCell>
                <mxCell id="74" value="old_man" style="swimlane;childLayout=stackLayout;horizontal=1;startSize=30;horizontalStack=0;rounded=1;fontSize=14;fontStyle=0;strokeWidth=2;resizeParent=0;resizeLast=1;shadow=0;dashed=0;align=center;" parent="1" vertex="1">
                    <mxGeometry x="1820" y="278.5" width="160" height="120" as="geometry"/>
                </mxCell>
                <mxCell id="75" value="+ appetite = 33&#10;+ care = 40&#10;+ thirst = 45&#10;+ health = 10" style="align=left;strokeColor=none;fillColor=none;spacingLeft=4;fontSize=12;verticalAlign=top;resizable=0;rotatable=0;part=1;" parent="74" vertex="1">
                    <mxGeometry y="30" width="160" height="90" as="geometry"/>
                </mxCell>
                <mxCell id="76" value="" style="shape=image;verticalLabelPosition=bottom;labelBackgroundColor=#ffffff;verticalAlign=top;aspect=fixed;imageAspect=0;image=data:image/gif,R0lGODlhhQBFAPEDAP8A/////8DAwAAAACH/C05FVFNDQVBFMi4wAwEAAAAh/h1HaWZCdWlsZGVyIDAuNSBieSBZdmVzIFBpZ3VldAAh+QQFMgAAACwAAAAAhQBFAEAC/YSPqcvtD6OcMgSBb8ZCd+6F4LiVnymiw5qebguTrxwGhkXnqD7v2ToIAIWsoZHFi/l6zNpN2Uwmj8EhiEoMXovIJfRLswFwXmn51+1Yvesm1hw9d8TkuP3bDmHf8iy4n0T3dzeV5rdVZYjox0cIiCIINwiTJ2mJpvXo+BKpOXm5+ekJavFEejqKKRqKOmeaygp7KNv61RmLq6foWUnrebs62Zu72BgsCVxbmEncN3zslex7Z7w8q7bbfCetrctMyZUozpjtDb392k2zV17L/q0MSTFPX29/j/9ksc/f7/8PMKDAgHMGGjyI8KC+hAwbOnwIMWKpMRIrWryIUeD+wowcO3pUSPGjyJEjN5I8iTKiyZQsWw5c6TKmTDEZZtpsiQHmzZ0idfL8mdEn0KEShRI92tAo0qUGlTJ9+s8p1KkTqforaLVq1n1Ys6Y7B9ZaPHXyKI4Ny6bdNLDc0JJ98ewsqbZy1y6q242u3bVx9+bS+xZs38Bzv+IVFo7cuMFubRn2i3hx4mqQkT0mnBYeL7WYOV1uLFYW48MgAINWZeydudGQTR9WXSxxbM2dnZitrIJzMNi4Pd+ufRcyb+A1P782xDi57N6265yGi1y38nGkyzqvjo3282vbSxsXrvss67zfAz9TPZ47dq3rg0OXTN1Z+LWuwcentjx792hm5bdTdpOfesx599t++rmnGDjwCVhbfd3kAWGAsyXYXnEFHqfdhOhJN99f/bnD4YLDKWggewOqUuGBJ7pyIXPpgZhhax+KNlmHkVHInIO71RhjLiMepmOKJa4X5IpD5ijVUF1ZBUABACH5BAUyAAEALCsAAwAvADsAQAL9lGOCl6sNmXwz0uvy2Nn2NH1Ysw3iCYbluXokZ7WhO6vcWspjvffa9jLpUAccrHgUGIW3JvMZWEad0wHNdyVesp4ht8KriqXSa3Cc/EHPumHZtoZXvUjoG1t3p+kYsvOLFygCqFVoQdiVBohYZ8jD2KcYluLjZ0dlJpdoksXHhimnF6ckKdhJlbMHGjmqNlfqaJoHaylGWPLJOdko6tB7dnr5VEuMavwEGVsYwNzs/AwdLT2tnJxFjZ2tbd2YrP0N7pzMpxxuvr1bCXt93i4djCZsG+Ze/7zJst4dYt/vevdPVSt/9shxU1CLYL1e5ADmUrhQnyxBKyC2a3hsHhlFDhbPPby1SmPHc7/2qZNXcSS4YigzWioAACH5BAUyAAEALCcAAwA7ADsAQAL9lGOCl6sNz5iuxsdSxtzuOg1edzllGY4qSp1al8aULNKBjbcvqJOf64P1gLfe6odUpC6smjHnjBZFxBD0GMTypCGiNznVMsHN8HVJ3pVtX+XsTd2UG2e42U4fftDZtpbvxye29wSXF9eXliiE6Bdo5KimOOiGSBm5GIZpMnl4x4Wn+Gi5KTiWdTX6ObJmVwcKqylZubX6Kkv7wkjJOzeL29spoYcKKVxM+uubufzZannLBtY1nMx8XJuQiq1Ks1llfK0QQF5ufo6err7OXv49aTrZPk9fr/6OHNxhz9/PXuoqoBQ//goa5BVPHLASBxvaAxerW6h9Div+IxQrmj/AVQ0sekzXTGPGQpY+mnSHUZ9KQSdPNsP3x0hLkxBV1mQ406MqmIJs5NSZsufGbfl+WvQEE2BJow6J2pwmsAAAOw==;" parent="1" vertex="1">
                    <mxGeometry x="1992" y="310" width="133" height="69" as="geometry"/>
                </mxCell>
                <mxCell id="77" value="" style="edgeStyle=elbowEdgeStyle;elbow=horizontal;endArrow=classic;html=1;exitX=1;exitY=0.75;exitDx=0;exitDy=0;entryX=0;entryY=0;entryDx=0;entryDy=0;" parent="1" source="60" target="75" edge="1">
                    <mxGeometry width="50" height="50" relative="1" as="geometry">
                        <mxPoint x="1770" y="40" as="sourcePoint"/>
                        <mxPoint x="1900" y="410" as="targetPoint"/>
                        <Array as="points">
                            <mxPoint x="1790" y="90"/>
                        </Array>
                    </mxGeometry>
                </mxCell>
                <mxCell id="78" value="" style="edgeStyle=elbowEdgeStyle;elbow=horizontal;endArrow=classic;html=1;exitX=1;exitY=0.75;exitDx=0;exitDy=0;entryX=0;entryY=0.25;entryDx=0;entryDy=0;" parent="1" source="34" target="75" edge="1">
                    <mxGeometry width="50" height="50" relative="1" as="geometry">
                        <mxPoint x="1820" y="160" as="sourcePoint"/>
                        <mxPoint x="1870" y="110" as="targetPoint"/>
                        <Array as="points">
                            <mxPoint x="1750" y="270"/>
                        </Array>
                    </mxGeometry>
                </mxCell>
                <mxCell id="79" value="" style="edgeStyle=elbowEdgeStyle;elbow=horizontal;endArrow=classic;html=1;exitX=1;exitY=0.75;exitDx=0;exitDy=0;entryX=-0.003;entryY=0.128;entryDx=0;entryDy=0;entryPerimeter=0;" parent="1" source="29" target="75" edge="1">
                    <mxGeometry width="50" height="50" relative="1" as="geometry">
                        <mxPoint x="1820" y="160" as="sourcePoint"/>
                        <mxPoint x="1870" y="110" as="targetPoint"/>
                        <Array as="points">
                            <mxPoint x="1770" y="170"/>
                        </Array>
                    </mxGeometry>
                </mxCell>
                <mxCell id="81" value="" style="endArrow=classic;html=1;exitX=0.998;exitY=0.443;exitDx=0;exitDy=0;exitPerimeter=0;" parent="1" source="22" edge="1">
                    <mxGeometry width="50" height="50" relative="1" as="geometry">
                        <mxPoint x="1830" y="410" as="sourcePoint"/>
                        <mxPoint x="1820" y="350" as="targetPoint"/>
                    </mxGeometry>
                </mxCell>
                <mxCell id="82" value="" style="edgeStyle=elbowEdgeStyle;elbow=horizontal;endArrow=classic;html=1;exitX=1.011;exitY=0.192;exitDx=0;exitDy=0;exitPerimeter=0;entryX=-0.002;entryY=0.689;entryDx=0;entryDy=0;entryPerimeter=0;" parent="1" source="56" target="75" edge="1">
                    <mxGeometry width="50" height="50" relative="1" as="geometry">
                        <mxPoint x="1680" y="460" as="sourcePoint"/>
                        <mxPoint x="1730" y="410" as="targetPoint"/>
                        <Array as="points">
                            <mxPoint x="1700" y="500"/>
                        </Array>
                    </mxGeometry>
                </mxCell>
                <mxCell id="83" value="" style="edgeStyle=elbowEdgeStyle;elbow=horizontal;endArrow=classic;html=1;exitX=1.017;exitY=0.171;exitDx=0;exitDy=0;exitPerimeter=0;" parent="1" source="37" edge="1">
                    <mxGeometry width="50" height="50" relative="1" as="geometry">
                        <mxPoint x="1680" y="460" as="sourcePoint"/>
                        <mxPoint x="1821" y="361" as="targetPoint"/>
                    </mxGeometry>
                </mxCell>
                <mxCell id="84" value="" style="edgeStyle=elbowEdgeStyle;elbow=horizontal;endArrow=classic;html=1;exitX=0.995;exitY=0.151;exitDx=0;exitDy=0;exitPerimeter=0;entryX=-0.007;entryY=0.794;entryDx=0;entryDy=0;entryPerimeter=0;" parent="1" source="40" target="75" edge="1">
                    <mxGeometry width="50" height="50" relative="1" as="geometry">
                        <mxPoint x="1710" y="790" as="sourcePoint"/>
                        <mxPoint x="1810" y="390" as="targetPoint"/>
                        <Array as="points">
                            <mxPoint x="1730" y="590"/>
                        </Array>
                    </mxGeometry>
                </mxCell>
                <mxCell id="85" value="" style="shape=image;verticalLabelPosition=bottom;labelBackgroundColor=#ffffff;verticalAlign=top;aspect=fixed;imageAspect=0;image=data:image/gif,R0lGODlhgQBBAPECAP///8DAwAAAAAAAACH/C05FVFNDQVBFMi4wAwH4AAAh/h1HaWZCdWlsZGVyIDAuNSBieSBZdmVzIFBpZ3VldAAh+QQEMgD/ACwAAAAAgQBBAAAC/YSPqcvtD6OcLlhgA7556w5y4ncJJmAK3hqSWoqeLTvSro3j817z7wnz4WDBnvEmFOqOS2SNKGPOoKqk9OrUULbcrvfbtWabK2pMVRybzWJy240lr4FRNR19h4/bHb1/msfGNIdXFcfHBKa4yNhYcQh5Q3hGOTmJuBf3F1kW6FlY+UmJuXlTemopmgpK2nrhCBsrS+GaKVl3KpSWy8lr22n4S7pb6+frR8ypi1v8NvsMDd0cl/wTPMRcki2s/Dr9Wz06uC3ObZ7zLUce3hHO3v0bLT/PmA54bT+OD092vLx/bhi5fFoIAvPH6V3ARPQaOpxgsN3AJ6LaKERYkN/oP2QVqU1cOAYjNoAjQ5G8J1LJw5UsFUSkeFKjtpgg+728RfPYRYMp9fXE+bNfy6Esbx6UmBOlUpnxjCI9mnDdR5FBl1pDJTUpU6JcHzqdaVJnnq+myIbd6RNtzRlVYYYtJmhtr650o5lVi1Wr3LJbNxrFm64t0L9TedY9LMvs03SA+3pzDK6wR71BBZdkLHlvDsScGyl2+zRuOctKPg8GK7qxZramoV5Nndly59mKWlt1Pdr249X83OFSXVn36eG5IRujjZyL8Lykey0XSNlsc95Xn9dIjh2icevUjXGfLvu7eH7ZyzsoAAAh+QQEMgD/ACwlAAEANwA7AAAC/YxhgScNLZZKslL4HE37XId1k0cqWFiK1amVlstGKkDX9o3n+r6rcRZBjYbA4o8DAymDLeKHCS0iib+j62lcVnjcrlfn01bF5KgwbC5n02wJeg0ft4Xfup33VumvfFMz3/fiFHiWJBO4N0jVdNfoKChlCIkFyLHCSEmIyfAnWQlJl6nwSOolOomYuihwmoiqCNrQqvpai1GK28N5CItl1bs7CytX+yQc2+aKlct886lMK/ocTVu4Wkx9TdHMfcnrja296zY+Dez3bR0pfg5+2t38Fpod13k93+6rNQWOH17/DR4zc/9cqTsGrd3BcvQSrhM4UNM3h+YMbsrnKYU4xIIbZ0As5ZAOMYRIbDEayVBRyJNqSI76SGpluosPE8l0l/HczWP+PMJ0RDElR5X0ejYsufOoogIAOw==;" vertex="1" parent="1">
                    <mxGeometry x="1540" y="990" width="129" height="65" as="geometry"/>
                </mxCell>
                <mxCell id="86" value="adult_normy" style="swimlane;childLayout=stackLayout;horizontal=1;startSize=30;horizontalStack=0;rounded=1;fontSize=14;fontStyle=0;strokeWidth=2;resizeParent=0;resizeLast=1;shadow=0;dashed=0;align=center;" vertex="1" parent="1">
                    <mxGeometry x="1370" y="950" width="160" height="120" as="geometry"/>
                </mxCell>
                <mxCell id="87" value="+ appetite = 33&#10;+ care = 40&#10;+ thirst = 45&#10;+ health = 20" style="align=left;strokeColor=none;fillColor=none;spacingLeft=4;fontSize=12;verticalAlign=top;resizable=0;rotatable=0;part=1;" vertex="1" parent="86">
                    <mxGeometry y="30" width="160" height="90" as="geometry"/>
                </mxCell>
                <mxCell id="89" value="" style="edgeStyle=elbowEdgeStyle;elbow=horizontal;endArrow=classic;html=1;exitX=1;exitY=0.75;exitDx=0;exitDy=0;" edge="1" parent="1" source="54" target="87">
                    <mxGeometry width="50" height="50" relative="1" as="geometry">
                        <mxPoint x="1210" y="800" as="sourcePoint"/>
                        <mxPoint x="1260" y="750" as="targetPoint"/>
                    </mxGeometry>
                </mxCell>
                <mxCell id="91" value="" style="edgeStyle=elbowEdgeStyle;elbow=horizontal;endArrow=classic;html=1;exitX=1;exitY=0;exitDx=0;exitDy=0;entryX=0;entryY=0.906;entryDx=0;entryDy=0;entryPerimeter=0;" edge="1" parent="1" source="87" target="75">
                    <mxGeometry width="50" height="50" relative="1" as="geometry">
                        <mxPoint x="1730" y="680" as="sourcePoint"/>
                        <mxPoint x="1780" y="630" as="targetPoint"/>
                        <Array as="points">
                            <mxPoint x="1760" y="680"/>
                            <mxPoint x="1750" y="680"/>
                        </Array>
                    </mxGeometry>
                </mxCell>
            </root>
        </mxGraphModel>
    </diagram>
</mxfile>